<svg width="34" height="32" viewBox="0 0 34 32" fill="none" xmlns="http://www.w3.org/2000/svg">
<path d="M16.6158 14.6845L4.03125 11.3778L17.9667 7.7334L29.9292 11.049L16.6158 14.6845Z" fill="#39309F"/>
<path d="M18.0918 14.2312L29.9298 11.0934L18.1451 7.7334L18.0918 14.2312Z" fill="#3F3FB4"/>
<path d="M16.5807 31.6978L3.99609 28.3822L4.03164 11.3778L16.6162 14.6845L16.5807 31.6978Z" fill="#3F3FB4"/>
<path d="M29.929 11.049L29.8934 28.0534L16.5801 31.6978L16.6156 14.6845L29.929 11.049Z" fill="#5959FF"/>
<path d="M0.964844 14.6667L13.4961 17.9556L16.6067 14.6667L4.07544 11.3778L0.964844 14.6667Z" fill="#4E4EDE"/>
<path d="M33.0491 14.4L19.718 17.9555L16.6074 14.6666L29.9385 11.1111L33.0491 14.4Z" fill="#4E4EDE"/>
<path d="M13.3747 3.37085H7.14161C6.44639 3.37085 5.88281 3.93453 5.88281 4.62985V7.68294C5.88281 8.37827 6.44639 8.94195 7.14161 8.94195H13.3747C14.0699 8.94195 14.6335 8.37827 14.6335 7.68294V4.62985C14.6335 3.93453 14.0699 3.37085 13.3747 3.37085Z" fill="#5959FF"/>
<path d="M12.7148 8.47791L14.6335 11.7777V8.47791H12.7148Z" fill="#5959FF"/>
<path d="M13.2123 2.91394H7.30407C6.92714 2.91394 6.56565 3.0637 6.29912 3.33028C6.03259 3.59685 5.88285 3.9584 5.88285 4.3354V7.05647C5.8815 7.24352 5.91734 7.42897 5.98828 7.60204C6.05923 7.7751 6.16386 7.93234 6.29611 8.06461C6.42835 8.19687 6.58556 8.30152 6.7586 8.37248C6.93164 8.44344 7.11706 8.47928 7.30407 8.47793H13.1108L14.6335 11.0975V4.3354C14.6335 3.9584 14.4838 3.59685 14.2172 3.33028C13.9507 3.0637 13.5892 2.91394 13.2123 2.91394Z" fill="url(#paint0_linear_140_25454)"/>
<path d="M11.3357 6.39658C11.3357 6.7621 10.8687 7.06669 10.2799 7.07685C9.69113 7.087 9.20386 6.80271 9.19371 6.43719C9.18356 6.07167 9.39674 5.98029 9.71144 5.85846C9.73334 5.73308 9.79817 5.61924 9.8948 5.53644C9.99144 5.45364 10.1139 5.40704 10.2411 5.40464C10.3683 5.40224 10.4924 5.44418 10.5921 5.52328C10.6918 5.60237 10.7609 5.71369 10.7875 5.83815C11.1124 5.93968 11.3255 6.1529 11.3357 6.39658Z" fill="white"/>
<path d="M9.26408 5.88895C9.1963 5.91759 9.1216 5.9257 9.04925 5.91226C8.97691 5.89882 8.9101 5.86444 8.85713 5.81337C8.80415 5.7623 8.76734 5.6968 8.75127 5.62499C8.73519 5.55319 8.74055 5.47825 8.76669 5.40946C8.79283 5.34068 8.83859 5.28109 8.89829 5.23808C8.958 5.19507 9.02902 5.17055 9.10254 5.16755C9.17606 5.16455 9.24884 5.18321 9.31186 5.2212C9.37487 5.2592 9.42533 5.31487 9.45699 5.38129C9.49823 5.47425 9.5011 5.57974 9.46498 5.67481C9.42885 5.76988 9.35665 5.84684 9.26408 5.88895Z" fill="white"/>
<path d="M11.5981 5.83808C11.5301 5.86772 11.4549 5.87657 11.3818 5.86352C11.3088 5.85048 11.2413 5.81612 11.1878 5.76477C11.1343 5.71342 11.0972 5.64738 11.0812 5.57498C11.0651 5.50257 11.0709 5.42704 11.0977 5.3579C11.1245 5.28875 11.1712 5.22909 11.2318 5.18643C11.2925 5.14377 11.3644 5.12001 11.4386 5.11816C11.5127 5.11631 11.5857 5.13644 11.6484 5.17602C11.7111 5.2156 11.7607 5.27285 11.791 5.34057C11.8291 5.43238 11.8303 5.53536 11.7944 5.62805C11.7585 5.72074 11.6881 5.79598 11.5981 5.83808Z" fill="white"/>
<path d="M10.8676 5.20866C10.7998 5.2373 10.7251 5.2454 10.6528 5.23196C10.5804 5.21853 10.5136 5.18414 10.4606 5.13307C10.4077 5.082 10.3709 5.0165 10.3548 4.9447C10.3387 4.87289 10.3441 4.79795 10.3702 4.72916C10.3963 4.66038 10.4421 4.60079 10.5018 4.55778C10.5615 4.51478 10.6325 4.49025 10.7061 4.48725C10.7796 4.48425 10.8524 4.50291 10.9154 4.54091C10.9784 4.5789 11.0288 4.63457 11.0605 4.70099C11.1017 4.79396 11.1046 4.89945 11.0685 4.99451C11.0324 5.08958 10.9602 5.16654 10.8676 5.20866Z" fill="white"/>
<path d="M9.90463 5.22891C9.85996 5.25025 9.81153 5.26257 9.7621 5.26519C9.71266 5.26781 9.6632 5.26066 9.61653 5.24416C9.56986 5.22766 9.5269 5.20213 9.4901 5.16903C9.45329 5.13593 9.42337 5.0959 9.40204 5.05123C9.3807 5.00656 9.36838 4.95813 9.36576 4.9087C9.36314 4.85927 9.37029 4.80981 9.38679 4.76314C9.40329 4.71647 9.42882 4.67351 9.46192 4.6367C9.49503 4.5999 9.53505 4.56998 9.57972 4.54864C9.62439 4.52731 9.67282 4.51498 9.72225 4.51237C9.77168 4.50975 9.82114 4.5169 9.86781 4.5334C9.91448 4.5499 9.95744 4.57543 9.99425 4.60853C10.0311 4.64163 10.061 4.68166 10.0823 4.72633C10.1036 4.77099 10.116 4.81942 10.1186 4.86886C10.1212 4.91829 10.1141 4.96775 10.0976 5.01442C10.0811 5.06109 10.0555 5.10405 10.0224 5.14085C9.98932 5.17766 9.94929 5.20758 9.90463 5.22891Z" fill="white"/>
<path d="M18.3078 7.84851L27.1904 7.84851C27.8856 7.84851 28.4492 7.28483 28.4492 6.58951V1.85199C28.4492 1.15666 27.8856 0.592987 27.1904 0.592987L18.3078 0.592987C17.6126 0.592987 17.049 1.15666 17.049 1.85199V6.58951C17.049 7.28483 17.6126 7.84851 18.3078 7.84851Z" fill="#5959FF"/>
<path d="M19.5461 7.25952L17.0488 11.5544V7.25952H19.5461Z" fill="#5959FF"/>
<path d="M27.0278 0H18.47C18.0931 0 17.7316 0.14976 17.4651 0.416335C17.1986 0.68291 17.0488 1.04446 17.0488 1.42146V10.6609L19.0284 7.25958H27.0278C27.4057 7.2569 27.7672 7.10489 28.0334 6.8367C28.2996 6.56851 28.4491 6.20591 28.4491 5.82797V1.42146C28.4491 1.04446 28.2993 0.68291 28.0328 0.416335C27.7663 0.14976 27.4048 0 27.0278 0Z" fill="url(#paint1_linear_140_25454)"/>
<path d="M21.3536 4.53854C21.3435 5.01575 21.9526 5.41172 22.7241 5.42188C23.4956 5.43203 24.125 5.06651 24.1352 4.58931C24.1352 4.27456 23.8611 3.99027 23.455 3.83797C23.4306 3.67185 23.3481 3.51974 23.2223 3.40862C23.0964 3.2975 22.9353 3.23453 22.7674 3.23088C22.5996 3.22723 22.4359 3.28314 22.3053 3.38868C22.1747 3.49423 22.0857 3.6426 22.0541 3.80751C21.6379 3.94965 21.3536 4.22379 21.3536 4.53854Z" fill="white"/>
<path d="M24.0445 3.87851C24.1025 3.90585 24.1654 3.92149 24.2294 3.92455C24.2935 3.9276 24.3575 3.91802 24.4178 3.89633C24.4782 3.87465 24.5336 3.84129 24.5811 3.79816C24.6285 3.75504 24.667 3.70299 24.6944 3.64499C24.7217 3.58699 24.7373 3.52417 24.7404 3.46013C24.7434 3.39608 24.7339 3.33206 24.7122 3.27172C24.6905 3.21138 24.6571 3.1559 24.614 3.10845C24.5709 3.061 24.5188 3.02251 24.4608 2.99518C24.4022 2.96558 24.3383 2.94788 24.2728 2.94309C24.2073 2.93831 24.1415 2.94654 24.0793 2.9673C24.017 2.98807 23.9594 3.02096 23.9099 3.06408C23.8603 3.1072 23.8198 3.1597 23.7907 3.21855C23.7389 3.33997 23.7365 3.47679 23.7838 3.59999C23.8312 3.7232 23.9247 3.8231 24.0445 3.87851Z" fill="white"/>
<path d="M21.009 3.81764C21.1267 3.87163 21.2606 3.87857 21.3833 3.83704C21.506 3.79552 21.6082 3.70866 21.6689 3.59427C21.7166 3.50448 21.7362 3.40244 21.7252 3.30137C21.7143 3.20029 21.6732 3.10485 21.6074 3.02738C21.5415 2.94992 21.4539 2.89401 21.3559 2.8669C21.258 2.83978 21.1541 2.84271 21.0578 2.87531C20.9615 2.9079 20.8772 2.96866 20.8158 3.04971C20.7545 3.13076 20.7188 3.22837 20.7136 3.3299C20.7083 3.43143 20.7337 3.5322 20.7863 3.61916C20.839 3.70612 20.9165 3.77526 21.009 3.81764Z" fill="white"/>
<path d="M21.9535 2.98506C22.0114 3.01445 22.0745 3.03199 22.1392 3.03665C22.204 3.04131 22.269 3.03299 22.3305 3.01218C22.3919 2.99137 22.4486 2.9585 22.4972 2.91548C22.5458 2.87247 22.5853 2.82018 22.6135 2.76169C22.642 2.70333 22.6584 2.63975 22.6615 2.57485C22.6647 2.50995 22.6545 2.44509 22.6317 2.38425C22.6089 2.32341 22.5739 2.26787 22.5288 2.22103C22.4838 2.1742 22.4297 2.13705 22.3698 2.11188C22.3112 2.08228 22.2473 2.06458 22.1818 2.05979C22.1163 2.05501 22.0505 2.06324 21.9882 2.084C21.9259 2.10477 21.8683 2.13766 21.8188 2.18078C21.7693 2.2239 21.7288 2.2764 21.6997 2.33525C21.6728 2.39447 21.6581 2.45845 21.6564 2.52343C21.6547 2.58842 21.666 2.65309 21.6897 2.71364C21.7133 2.77419 21.7488 2.8294 21.7941 2.87601C21.8395 2.92262 21.8936 2.9597 21.9535 2.98506Z" fill="white"/>
<path d="M23.2127 3.01552C23.2707 3.04286 23.3335 3.0585 23.3975 3.06156C23.4616 3.06461 23.5256 3.05503 23.5859 3.03334C23.6463 3.01166 23.7018 2.9783 23.7492 2.93517C23.7967 2.89205 23.8352 2.84 23.8625 2.782C23.8898 2.724 23.9055 2.66118 23.9085 2.59714C23.9116 2.53309 23.902 2.46907 23.8803 2.40873C23.8586 2.34839 23.8253 2.29291 23.7821 2.24546C23.739 2.19801 23.687 2.15952 23.629 2.13219C23.5711 2.1028 23.508 2.08526 23.4432 2.0806C23.3785 2.07595 23.3135 2.08426 23.252 2.10507C23.1905 2.12588 23.1338 2.15875 23.0852 2.20177C23.0366 2.24478 22.9971 2.29707 22.969 2.35556C22.9403 2.41466 22.9238 2.47897 22.9205 2.54461C22.9173 2.61024 22.9273 2.67586 22.9501 2.73751C22.9729 2.79916 23.0079 2.85557 23.053 2.90335C23.0981 2.95113 23.1524 2.98928 23.2127 3.01552Z" fill="white"/>
<defs>
<linearGradient id="paint0_linear_140_25454" x1="12.9524" y1="9.01605" x2="7.43087" y2="2.2234" gradientUnits="userSpaceOnUse">
<stop stop-color="#6678FF"/>
<stop offset="1" stop-color="#5891FF"/>
</linearGradient>
<linearGradient id="paint1_linear_140_25454" x1="17.8853" y1="6.66866" x2="29.2765" y2="-0.451135" gradientUnits="userSpaceOnUse">
<stop stop-color="#6678FF"/>
<stop offset="1" stop-color="#5891FF"/>
</linearGradient>
</defs>
</svg>
