<svg width="730" height="825" viewBox="0 0 730 825" fill="none" xmlns="http://www.w3.org/2000/svg"><g clip-path="url(#clip0_716_25092)"><path d="M54.927 630.613l-2.17-2.919c-16.695-22.433-27.714-49.118-32.723-79.223-5.593-33.607-5.593-68.715 0-104.407a382.32 382.32 0 0128.8-97.069l-1.336-1.834v-.334c-19.116-32.106-33.474-83.225-38.4-136.763-1.919-20.265-6.26-87.812 16.696-105.241 7.346-5.588 18.532-8.34 34.059-8.34 57.765 0 164.197 39.445 191.327 49.952a291.885 291.885 0 0159.769-16.678 281.934 281.934 0 0145.077-3.836c8.014-6.671 38.399-32.023 73.292-56.957 55.178-39.611 95.414-59.792 119.455-59.792 3.708.011 7.393.573 10.935 1.668 27.297 9.173 44.994 74.469 49.669 94.233 12.187 50.452 15.276 101.655 8.514 138.014 54.26 55.456 90.322 123.754 101.675 192.636 6.845 41.029 1.168 79.056-16.779 113.08-16.362 31.106-42.99 58.875-79.136 82.642l-1.836 1.168H54.927z" fill="#5959FF"/><path d="M548.773 14.51c2.944-.083 5.881.34 8.682 1.251 33.39 11.175 68.951 150.44 52.59 227.745 52.59 52.87 90.488 119.918 102.341 191.468 13.607 82.225-25.46 144.269-92.825 188.467H58.517c-15.527-20.932-26.379-46.116-31.304-76.137-11.102-67.131 1.085-137.931 30.135-201.643a26.993 26.993 0 01-3.756-4.42C13.189 273.193 2.003 129.925 29.968 108.66c6.428-4.92 16.779-6.921 29.717-6.921 58.35 0 168.038 41.362 191.328 50.452a276.37 276.37 0 01106.683-21.098h.835S494.597 14.427 548.69 14.427l.083.083zM548.69 0c-25.878 0-66.364 19.93-123.796 61.043-33.14 23.684-61.438 47.033-71.706 55.623a291.158 291.158 0 00-102.258 19.931c-15.193-5.838-44.911-16.762-78.218-26.936-48.833-14.844-86.815-22.433-113.026-22.433-17.197 0-29.802 3.253-38.483 9.84-10.1 7.756-16.445 22.517-19.45 45.449-2.337 18.43-2.42 41.28-.083 66.214 5.008 54.038 19.533 105.908 38.9 139.015a394.384 394.384 0 00-27.715 95.234c-5.676 36.442-5.676 72.384 0 106.742 5.176 31.189 16.612 58.958 34.059 82.308l4.34 5.838h572.731l3.59-2.419c37.23-24.35 64.694-53.121 81.639-85.227 18.699-35.441 24.542-75.053 17.53-117.583-6.01-36.609-18.698-72.718-37.397-107.326a400.25 400.25 0 00-63.692-86.561c6.093-37.026 2.754-87.645-9.183-137.347-5.843-24.267-13.272-45.95-21.453-62.628-10.184-20.764-20.953-32.773-32.973-36.776A42.7 42.7 0 00548.773 0h-.083z" fill="#000"/><path d="M424.226 560.73a39.43 39.43 0 01-20.702-5.921 39.79 39.79 0 01-13.49-13.735 39.747 39.747 0 01-5.459-18.454 5.927 5.927 0 019.674-4.172 5.92 5.92 0 012.096 3.671 28.002 28.002 0 003.847 13.006 28.025 28.025 0 009.51 9.677 27.738 27.738 0 0021.203 3.336 27.366 27.366 0 0017.279-12.593 27.821 27.821 0 00-1.151-31.044 27.87 27.87 0 00-8.031-7.399 5.854 5.854 0 01-1.716-1.541 5.836 5.836 0 01-.288-6.548 5.92 5.92 0 013.692-2.658 5.933 5.933 0 014.489.739 39.792 39.792 0 0115.316 17.263 39.74 39.74 0 01-6.924 43.608 39.824 39.824 0 01-19.912 11.681 45.487 45.487 0 01-9.433 1.084z" fill="#000"/><path d="M357.028 570.737a39.187 39.187 0 01-20.285-5.587 39.647 39.647 0 01-12.697-11.906 39.582 39.582 0 013.348-48.721 5.893 5.893 0 014.058-1.947 5.889 5.889 0 014.248 1.489 5.868 5.868 0 01.459 8.297 28.17 28.17 0 00-6.261 25.518 28.013 28.013 0 008.424 13.896 28.065 28.065 0 0042.831-6.474 27.329 27.329 0 003.005-21.181 6.002 6.002 0 014.257-7.172 5.837 5.837 0 014.484.62 5.846 5.846 0 012.695 3.633 39.249 39.249 0 01-4.341 30.104 39.208 39.208 0 01-14.496 14.314 39.274 39.274 0 01-19.729 5.117zm109.771-128.925a50.948 50.948 0 01-33.047-12.395 50.854 50.854 0 01-17.038-30.885l-4.926-33.107a7.167 7.167 0 013.356-7.293 7.169 7.169 0 012.655-.963 7.264 7.264 0 018.264 6.088l4.925 33.19a36.273 36.273 0 0014.585 23.05A36.34 36.34 0 00495.604 412a36.257 36.257 0 007.174-26.311l-4.926-33.106a7.214 7.214 0 018.866-8.087 7.226 7.226 0 014.45 3.272c.491.811.816 1.71.959 2.647l5.008 33.106a50.743 50.743 0 01-9.414 37.69 50.847 50.847 0 01-33.325 20.018c-2.517.36-5.055.555-7.597.583z" fill="#000"/><path d="M262.7 147.688s25.794 13.676 24.208 45.949c-1.586 33.69-23.791 31.189-19.617 68.465 4.174 37.276 102.509 108.243 54.593 216.486-47.164 106.743-260.028 78.723-298.26 36.776C14.44 402.451 86.899 292.04 86.899 292.04S175.217 168.286 262.7 147.688z" fill="#6678FF"/><path d="M273.218 464.829a50.7 50.7 0 01-32.832-12.078 50.603 50.603 0 01-17.17-30.452l-5.009-33.107a7.248 7.248 0 013.367-7.44 7.283 7.283 0 015.573-.842 7.279 7.279 0 014.497 3.393c.485.837.798 1.762.921 2.721l4.925 33.106a36.272 36.272 0 0014.603 22.934 36.342 36.342 0 0026.452 6.362 36.322 36.322 0 0023.45-13.782 36.252 36.252 0 007.285-26.188l-4.925-33.107a7.082 7.082 0 013.361-7.238 7.11 7.11 0 012.649-.934 7.184 7.184 0 017.322 3.41c.49.821.81 1.731.942 2.678l5.009 33.19a50.666 50.666 0 01-9.535 36.946 50.764 50.764 0 01-32.621 19.844 55.337 55.337 0 01-8.264.584z" fill="#000"/><path d="M175.551 208.564s-31.888-44.114-65.529-67.214c-33.641-23.1-59.268-34.274-73.376-27.52-17.78 8.673-18.782 63.545-8.515 119.835C38.4 289.955 54.26 316.39 61.44 330.984c7.179 14.594 114.112-122.42 114.112-122.42z" fill="#6678FF"/><path opacity=".2" d="M522.979 168.869a87.16 87.16 0 01-40.943 51.259 87.312 87.312 0 01-65.126 8.228 87.224 87.224 0 01-52.428-39.462 87.07 87.07 0 01-10.042-64.806s34.643-32.356 156.017-102.323c120.707-66.463 111.274 213.068 111.274 213.068l-98.752-65.964z" fill="#000"/><path d="M459.704 144.519s11.102-39.361 35.227-72.301c24.124-32.94 44.409-52.12 60.019-50.37 19.617 2.252 38.817 53.705 47.832 110.162 9.016 56.457 3.005 86.728 1.002 102.823-10.602-17.513-144.08-90.314-144.08-90.314z" fill="#6678FF"/><path d="M627.324 637.868H48.584l-2.255-3.002c-17.029-23.017-28.298-50.203-33.39-80.891-10.685-64.879-1.169-134.678 27.714-201.809 27.714-64.463 72.374-122.504 125.799-163.616a7.38 7.38 0 018.181-.557 7.365 7.365 0 012.727 10.064 7.367 7.367 0 01-1.893 2.168C67.867 283.033 7.012 427.552 27.547 551.557c4.508 27.019 14.108 51.036 28.549 71.467H622.9c71.706-47.784 101.924-109.578 89.653-183.713C691.35 311.47 584.918 192.803 453.61 150.773a7.42 7.42 0 01-.844-13.317 7.438 7.438 0 015.352-.776c65.028 20.848 127.385 61.544 175.717 114.664a398.45 398.45 0 0160.27 86.728 340.589 340.589 0 0133.057 98.82c6.928 41.78 1.085 80.641-17.196 115.415-16.696 31.689-43.909 60.043-80.805 84.31l-1.837 1.251z" fill="#000"/><path d="M61.689 651.461a25.818 25.818 0 01-18.293-7.518 25.766 25.766 0 01-7.585-18.251 23.326 23.326 0 011.086-7.171c5.76-19.764 18.865-35.859 37.898-46.283 17.196-9.59 39.317-14.677 63.776-14.677 24.458 0 46.579 5.087 63.859 14.594 19.033 10.59 32.138 26.602 37.898 46.366a25.822 25.822 0 01-2.241 19.623 25.872 25.872 0 01-15.456 12.316 26.17 26.17 0 01-7.179 1.001H61.689z" fill="#5959FF"/><path d="M138.571 564.899c45.494 0 83.726 17.846 94.829 55.706a18.585 18.585 0 01-1.646 14.101 18.611 18.611 0 01-11.126 8.832c-1.68.5-3.423.753-5.176.751H61.689a18.623 18.623 0 01-13.163-5.447 18.587 18.587 0 01-5.452-13.15 17.89 17.89 0 01.751-5.087c11.019-37.86 49.251-55.706 94.746-55.706zm0-14.51c-55.93 0-96.582 24.684-108.686 66.13a33.077 33.077 0 002.835 25.146 33.134 33.134 0 0019.787 15.8 34.33 34.33 0 009.182 1.251h153.763a33.08 33.08 0 0023.429-9.643 33.025 33.025 0 007.187-10.724 32.985 32.985 0 002.524-12.657 31.222 31.222 0 00-1.335-9.173c-12.021-41.446-52.674-66.13-108.686-66.13z" fill="#000"/><path d="M174.382 619.438s5.092 11.842 3.339 21.932l-3.339-21.932z" fill="#5959FF"/><path d="M177.721 648.625h-1.169a7.257 7.257 0 01-5.927-8.339c1.086-6.505-1.753-15.177-2.921-17.929a7.256 7.256 0 013.955-9.236 7.263 7.263 0 019.401 3.565c.584 1.418 5.843 14.093 3.84 25.935a7.264 7.264 0 01-7.179 6.004z" fill="#000"/><path d="M112.109 619.438s-7.68 15.094-5.343 24.851l5.343-24.851z" fill="#5959FF"/><path d="M106.766 651.461a7.091 7.091 0 01-7.012-5.504c-2.922-11.925 5.009-28.02 5.927-29.771a7.21 7.21 0 0113.275 1.011 7.188 7.188 0 01-.42 5.493c-2.671 5.337-5.926 15.011-4.758 19.848a7.161 7.161 0 01-2.756 7.583 7.187 7.187 0 01-2.586 1.173 5.692 5.692 0 01-1.67.167z" fill="#000"/><path d="M461.749 318.807c19.188-1.779 33.787-13.518 32.608-26.221-1.18-12.703-17.692-21.559-36.88-19.781-19.189 1.778-33.788 13.518-32.608 26.221 1.18 12.703 17.691 21.559 36.88 19.781z" fill="#6678FF"/><path d="M253.503 349.907c19.078-3.273 32.784-16.165 30.613-28.795-2.17-12.63-19.396-20.216-38.475-16.943-19.078 3.273-32.784 16.165-30.613 28.795 2.171 12.63 19.397 20.215 38.475 16.943z" fill="#5959FF"/><path opacity=".2" d="M648.277 278.947s-19.534 33.691-38.149 47.284c-18.615 13.593-53.091 16.678-53.592 30.021-.501 13.343 59.769 38.11 127.552-23.683l-35.811-53.622z" fill="#000"/><path opacity=".2" d="M687.427 337.572s-25.377 29.604-46.162 39.528c-20.786 9.924-55.262 6.671-58.183 19.681-2.922 13.009 51.755 48.367 129.722.083l-25.377-59.292z" fill="#000"/><path d="M386.495 467.748a3.42 3.42 0 01-4.397 2.023 3.424 3.424 0 01-1.446-1.023c-6.094-6.921-16.612-9.507-24.96-5.837-10.518 4.586-15.86 17.512-11.853 29.02s35.477 34.024 46.579 30.522c12.021-1.668 35.144-32.19 36.313-43.864 1.168-11.675-6.929-23.1-18.115-24.184-8.848-.918-18.031 4.837-22.121 13.343z" fill="#000"/><path opacity=".1" d="M613.634 244.59c.334.834 85.062 186.632-.334 302.63-26.629 36.193-69.87 60.71-116.867 77.222H623.15c67.282-44.198 106.433-106.159 92.826-188.384-11.854-71.55-49.752-138.681-102.342-191.468z" fill="#000"/><path d="M529.74 651.461a25.71 25.71 0 01-23.853-15.894 25.677 25.677 0 01-1.941-9.875 26.076 26.076 0 011.002-7.171c5.76-19.764 18.866-35.859 37.898-46.283 17.196-9.59 39.317-14.677 63.859-14.677s46.58 5.087 63.776 14.594c19.033 10.59 32.139 26.602 37.899 46.366a25.74 25.74 0 01-2.18 19.617 25.78 25.78 0 01-15.434 12.322 26.17 26.17 0 01-7.179 1.001H529.74z" fill="#5959FF"/><path d="M606.706 564.899c45.494 0 83.726 17.846 94.745 55.706a18.497 18.497 0 01-1.616 14.118 18.516 18.516 0 01-11.156 8.815 17.566 17.566 0 01-5.092.751H529.74a18.706 18.706 0 01-13.138-5.471 18.673 18.673 0 01-5.477-13.126c.005-1.723.258-3.436.752-5.087 11.018-37.86 49.251-55.706 94.745-55.706h.084zm-.084-14.51c-55.929 0-96.582 24.684-108.686 66.13a33.162 33.162 0 002.866 25.13 33.216 33.216 0 0019.756 15.816 34.33 34.33 0 009.182 1.251h153.847a33.073 33.073 0 0023.375-9.673 33.006 33.006 0 009.682-23.351c0-3.1-.422-6.186-1.252-9.173-12.104-41.446-52.757-66.13-108.686-66.13h-.084z" fill="#000"/><path d="M642.433 619.438s5.092 11.842 3.339 21.932l-3.339-21.932z" fill="#5959FF"/><path d="M645.772 648.625h-1.252a7.257 7.257 0 01-5.926-8.339c1.168-6.505-1.67-15.177-2.839-17.929a7.25 7.25 0 013.955-9.236 7.275 7.275 0 015.419-.106 7.258 7.258 0 013.982 3.671c.585 1.418 5.844 14.093 3.84 26.018a7.334 7.334 0 01-2.53 4.242 7.352 7.352 0 01-4.649 1.679z" fill="#000"/><path d="M580.16 619.438s-7.68 15.094-5.342 24.851l5.342-24.851z" fill="#5959FF"/><path d="M574.818 651.461a7.109 7.109 0 01-4.48-1.514 7.086 7.086 0 01-2.532-3.99c-2.922-11.925 5.008-28.02 5.926-29.771a7.173 7.173 0 014.182-3.599 7.189 7.189 0 015.502.43 7.169 7.169 0 013.651 4.157 7.165 7.165 0 01-.396 5.516c-2.755 5.337-5.927 15.011-4.758 19.848a7.25 7.25 0 01-.857 5.482 7.265 7.265 0 01-4.485 3.274 6.27 6.27 0 01-1.753.167z" fill="#000"/></g><defs><clipPath id="clip0_716_25092"><path fill="#fff" d="M0 0h730v825H0z"/></clipPath></defs></svg>