<svg width="32" height="32" viewBox="0 0 32 32" fill="none" xmlns="http://www.w3.org/2000/svg">
<g clip-path="url(#clip0_114_8353)">
<circle cx="16" cy="16" r="16" fill="url(#paint0_radial_114_8353)"/>
<circle cx="16" cy="16" r="15.5" stroke="white" stroke-opacity="0.2"/>
<path fill-rule="evenodd" clip-rule="evenodd" d="M7.63626 7H15.2227C19.8375 7 23.3355 9.47274 24.6368 13.0708H27V15.2455H25.1344C25.1712 15.5941 25.1896 15.9445 25.1894 16.2951V16.3485C25.1896 16.7427 25.1663 17.1367 25.1197 17.5282H27V19.7029H24.5918C23.2561 23.2509 19.7853 25.7 15.2227 25.7H7.63626V19.7029H5V17.5282H7.63626V15.2455H5V13.0708H7.63626V7ZM9.75717 19.7029V23.7494H15.2227C18.5956 23.7494 21.1015 22.1288 22.2679 19.7029H9.75717ZM22.9177 17.5282H9.75717V15.2455H22.9211C22.9704 15.6111 22.995 15.9796 22.9947 16.3485V16.4019C22.9951 16.7786 22.9693 17.155 22.9177 17.5282ZM15.2227 8.94768C18.6107 8.94768 21.1245 10.611 22.284 13.0709H9.75717V8.94768H15.2227Z" fill="white"/>
</g>
<defs>
<radialGradient id="paint0_radial_114_8353" cx="0" cy="0" r="1" gradientUnits="userSpaceOnUse" gradientTransform="translate(16 16) rotate(90) scale(16)">
<stop stop-color="#FFDD93"/>
<stop offset="1" stop-color="#F6BF48"/>
</radialGradient>
<clipPath id="clip0_114_8353">
<rect width="32" height="32" fill="white"/>
</clipPath>
</defs>
</svg>
