<svg width="59" height="68" viewBox="0 0 59 68" fill="none" xmlns="http://www.w3.org/2000/svg">
<path d="M58.386 19.201V55.0025C58.386 59.4776 55.128 63.4874 50.2233 64.9195C44.4133 66.6481 38.3842 67.5283 32.3226 67.533H31.3917C25.6189 67.4395 19.8857 66.5603 14.3502 64.9195C9.51705 63.4516 6.29492 59.4776 6.29492 55.0025V19.201C6.29492 14.8333 9.33804 11.0025 14.0996 9.39146L14.3502 9.31986L15.6391 8.92604C16.1105 9.3926 16.626 9.81225 17.1786 10.1791L15.3527 10.7161L14.7799 10.8951C10.7343 12.2556 8.1566 15.5135 8.1566 19.201V55.0025C8.1566 58.7974 10.8775 62.1627 14.9589 63.38C26.2608 66.7666 38.3057 66.7791 49.6146 63.4158C53.7676 62.1627 56.5243 58.7974 56.5243 55.0025V18.9862C56.5243 18.7356 56.4885 18.5208 56.4885 18.2702C56.0947 15.0123 53.5886 12.1482 50.0442 10.9667L49.3282 10.7161L47.3949 10.1433L47.8962 9.67787C48.0833 9.45392 48.251 9.21437 48.3974 8.96184L48.469 8.78284H48.5048L48.8628 8.89024L50.3307 9.35566L50.7245 9.49887C54.054 10.6087 56.5601 12.9716 57.7058 15.7999C58.1428 16.8812 58.3735 18.0348 58.386 19.201V19.201Z" fill="#4239AB"/>
<path d="M49.9011 4.057C49.2925 1.30029 39.1965 0.297852 32.3226 0.297852C25.4488 0.297852 16.749 1.15709 15.0306 3.51998C14.8524 3.74461 14.7519 4.02099 14.7441 4.30761C14.7441 4.88043 15.138 5.38165 15.8182 5.81127C18.6823 7.63714 26.6302 8.35317 32.3226 8.35317C38.0151 8.35317 45.9988 7.63714 48.8629 5.81127C49.5431 5.38165 49.9369 4.88043 49.9369 4.30761C49.9427 4.22249 49.9305 4.1371 49.9011 4.057V4.057ZM32.3226 7.27913C21.4748 7.27913 15.8182 5.34585 15.8182 4.30761C15.8182 3.26937 21.4748 1.37189 32.3226 1.37189C43.1705 1.37189 48.8629 3.30517 48.8629 4.30761C48.8629 5.31005 43.1705 7.27913 32.3226 7.27913Z" fill="#4239AB"/>
<path d="M48.8631 4.30766C48.8631 5.34591 43.1706 7.27918 32.3228 7.27918C21.475 7.27918 15.8184 5.34591 15.8184 4.30766C15.8184 3.26942 21.475 1.37195 32.3228 1.37195C43.1706 1.37195 48.8631 3.30522 48.8631 4.30766Z" fill="#39309F"/>
<path d="M50.33 9.14076V9.31977C50.2723 9.61058 50.153 9.88565 49.9801 10.1265C49.8072 10.3673 49.5847 10.5683 49.3276 10.716C46.3203 12.8283 37.4415 13.4369 32.3219 13.4369C27.2023 13.4369 18.3594 12.8283 15.352 10.716C15.095 10.5683 14.8725 10.3673 14.6996 10.1265C14.5267 9.88565 14.4073 9.61058 14.3496 9.31977V9.14076C14.3559 8.7701 14.4957 8.41415 14.7434 8.13832L15.1014 7.78031L15.6385 8.31733L15.8175 8.46054L16.1039 8.71115L16.3545 8.92595C16.3134 8.9454 16.2783 8.97566 16.2531 9.0135C16.2279 9.05134 16.2134 9.09533 16.2113 9.14076C16.2113 9.92839 21.6889 11.8259 32.3219 11.8259C40.9859 11.8259 46.2129 10.5728 47.8955 9.67778C48.2894 9.46298 48.4684 9.28397 48.4684 9.14076C48.4684 8.99756 48.4326 9.03336 48.3968 8.96176C48.361 8.89015 48.3252 8.92595 48.3252 8.89015L48.4684 8.78275H48.5758L48.8622 8.53214C49.0044 8.37398 49.136 8.20654 49.256 8.03092L49.435 7.74451C49.6266 7.87087 49.796 8.02815 49.9362 8.20993C50.1685 8.46704 50.3073 8.79501 50.33 9.14076V9.14076Z" fill="#4239AB"/>
<path d="M15.8182 3.52002H14.7441V8.87591H15.8182V3.52002Z" fill="#4239AB"/>
<path d="M48.8631 5.81128V8.46058L48.5767 8.71119H48.4692L48.326 8.8186C48.326 8.8544 48.3618 8.8544 48.3976 8.8902C48.2513 9.14273 48.0836 9.38228 47.8964 9.60623V9.60623C46.2138 10.5013 40.9868 11.7543 32.3228 11.7543C21.6898 11.7543 16.2122 9.85684 16.2122 9.06921C16.2143 9.02378 16.2288 8.97979 16.254 8.94194C16.2792 8.9041 16.3143 8.87384 16.3554 8.8544L16.1048 8.63959L15.8184 8.38898V5.81128C18.6825 7.63715 26.6304 8.35318 32.3228 8.35318C38.0152 8.35318 45.9989 7.63715 48.8631 5.81128Z" fill="#39309F"/>
<path d="M49.9373 4.05701H48.8633V8.87588H49.9373V4.05701Z" fill="#4239AB"/>
<path d="M56.524 18.9862C56.4882 18.8788 56.4882 18.7714 56.4524 18.664C56.4465 18.5317 56.4585 18.3992 56.4882 18.2702C56.0943 15.0122 53.5882 12.1481 50.0439 10.9667L49.3279 10.7161C46.3206 12.8283 37.4418 13.437 32.3222 13.437C27.2026 13.437 18.3597 12.8283 15.3523 10.7161L14.7795 10.8951C10.734 12.2555 8.15625 15.5135 8.15625 19.201V43.9398C8.15625 43.904 8.19205 43.904 8.22785 43.904C8.87499 43.6798 9.5784 43.6778 10.2268 43.8982C10.8752 44.1187 11.4316 44.549 11.808 45.1212V45.1212C11.9624 45.3407 12.0831 45.582 12.166 45.8373V45.8373L12.2734 46.2311C12.2919 46.2861 12.325 46.3352 12.3691 46.373C12.4132 46.4108 12.4668 46.436 12.524 46.4459V46.4459C12.7384 46.4792 12.9448 46.5521 13.1326 46.6607H13.1684C13.6101 46.8541 13.9995 47.1498 14.3045 47.5233C14.6095 47.8967 14.8214 48.3373 14.9227 48.8088C14.9758 49.0203 15.0118 49.2358 15.0301 49.4532V49.4532C15.024 49.6696 15.0001 49.8851 14.9585 50.0976C14.8857 50.5135 14.7272 50.9098 14.493 51.2611C14.2588 51.6124 13.954 51.9111 13.5981 52.1383C13.2595 52.3596 12.8834 52.5173 12.4882 52.6037H12.3808L11.5932 52.6753H8.15625V55.0024C8.15625 58.7974 10.8772 62.1627 14.9585 63.3799C26.2605 66.7666 38.3054 66.779 49.6143 63.4157C53.7673 62.1627 56.524 58.7974 56.524 55.0024V18.9862Z" fill="#5959FF"/>
<path d="M21.8307 51.6954C21.8236 51.9473 21.7956 52.1983 21.7471 52.4456C21.662 52.9299 21.4768 53.3912 21.2032 53.8002C20.9296 54.2092 20.5736 54.557 20.1578 54.8215C19.7622 55.0791 19.3229 55.2627 18.8612 55.3634H18.7358L17.8157 55.4467H4.64128C3.8993 55.4529 3.17238 55.238 2.55384 54.8295C1.9353 54.421 1.45338 53.8376 1.16994 53.1542C0.968234 52.6642 0.875395 52.1365 0.897806 51.6073C0.920216 51.0782 1.05735 50.5601 1.29977 50.0888C1.54219 49.6175 1.88415 49.2041 2.30214 48.877C2.72013 48.55 3.20423 48.317 3.72117 48.1941C3.93029 48.1524 3.97211 48.0691 4.01393 47.8607C4.0683 46.5892 4.61923 45.3893 5.54911 44.517C6.479 43.6448 7.71416 43.1694 8.99092 43.1923C9.92609 43.2065 10.8387 43.4808 11.6258 43.9843C11.9339 44.2 12.2147 44.4519 12.4623 44.7345L12.9641 45.3598C13.0896 45.5265 13.1314 45.5682 13.2987 45.4848L13.8006 45.2764H13.8843C14.6402 45.0154 15.462 45.013 16.2194 45.2697C16.9769 45.5264 17.6269 46.0274 18.0666 46.6936V46.6936C18.247 46.9491 18.388 47.2301 18.4848 47.5272V47.5272L18.6103 47.9857C18.6319 48.0498 18.6706 48.1069 18.7221 48.1509C18.7736 48.195 18.8362 48.2243 18.9031 48.2358V48.2358C19.1535 48.2746 19.3946 48.3594 19.6141 48.4859H19.6559C20.1719 48.7111 20.6267 49.0553 20.983 49.4901C21.3394 49.925 21.5869 50.4379 21.7052 50.9868C21.7651 51.2194 21.8071 51.4563 21.8307 51.6954Z" fill="white"/>
<path d="M46.2487 39.1065C46.0941 36.6775 45.3039 34.3318 43.9574 32.3043C41.9196 29.2719 38.7613 27.1726 35.1765 26.4678C31.5917 25.7629 27.8737 26.5101 24.8395 28.5451C23.3202 29.5273 22.0267 30.8208 21.0445 32.3401C20.0212 33.8404 19.3146 35.5337 18.968 37.3165C18.2726 40.8996 19.023 44.6124 21.0554 47.6442C23.0878 50.6761 26.2372 52.7807 29.8159 53.4987C30.6776 53.6667 31.5517 53.7625 32.4294 53.7851H32.5368L33.8972 53.7135C36.1411 53.4714 38.2918 52.6849 40.1625 51.4222C40.5229 51.1921 40.8696 50.941 41.2007 50.6704L41.7377 50.205L42.3822 49.5963L42.5612 49.3815C44.326 47.5122 45.5187 45.1766 45.9981 42.6509C46.1519 41.9811 46.2358 41.2972 46.2487 40.6102C46.2846 40.1096 46.2846 39.6071 46.2487 39.1065V39.1065ZM44.566 42.3645C44.1001 44.7584 42.9339 46.96 41.2153 48.6904C39.4966 50.4208 37.3029 51.6019 34.9122 52.0841C32.5216 52.5663 30.0415 52.3279 27.7865 51.399C25.5315 50.4701 23.603 48.8926 22.2456 46.8665C20.8881 44.8404 20.1628 42.4568 20.1615 40.018C20.1602 37.5792 20.8831 35.1949 22.2384 33.1673C23.5938 31.1398 25.5206 29.5603 27.7746 28.629C30.0287 27.6978 32.5085 27.4568 34.8997 27.9365C36.4818 28.2354 37.9878 28.8489 39.3285 29.7406C40.6691 30.6323 41.8171 31.7841 42.7044 33.1277C43.6093 34.4681 44.2398 35.9744 44.5593 37.5598C44.8788 39.1452 44.8811 40.7782 44.566 42.3645V42.3645Z" fill="#A49FDA"/>
<path d="M42.7046 33.1278C41.8173 31.7842 40.6693 30.6324 39.3287 29.7407C37.988 28.849 36.482 28.2355 34.8999 27.9366C32.1118 27.3849 29.2186 27.8174 26.7137 29.1604C24.2088 30.5034 22.2474 32.6737 21.1638 35.3012C20.0802 37.9287 19.9416 40.8508 20.7716 43.5691C21.6017 46.2873 23.3489 48.6335 25.7154 50.2076C28.0819 51.7817 30.9211 52.4861 33.749 52.2008C36.5768 51.9154 39.2181 50.658 41.2225 48.643C43.2268 46.6279 44.4702 43.98 44.7404 41.1507C45.0107 38.3214 44.2912 35.4859 42.7046 33.1278V33.1278ZM41.917 41.8633C41.4733 44.0371 40.2954 45.9921 38.5809 47.4002C36.8664 48.8083 34.7197 49.5837 32.5012 49.5964C31.8745 49.5956 31.2499 49.5236 30.6395 49.3816C28.2983 48.923 26.2119 47.6085 24.7874 45.6947C23.363 43.7809 22.7025 41.4051 22.9351 39.0307C23.1676 36.6563 24.2763 34.4538 26.045 32.8527C27.8137 31.2516 30.1155 30.3669 32.5012 30.3711C33.1278 30.3737 33.7521 30.4458 34.3629 30.5859C35.6008 30.82 36.7797 31.2982 37.8308 31.9928C38.882 32.6874 39.7842 33.5844 40.4849 34.6315C41.8952 36.7598 42.4098 39.3582 41.917 41.8633V41.8633Z" fill="#C8C5E9"/>
<path d="M40.4862 34.6314C39.7854 33.5843 38.8832 32.6873 37.8321 31.9927C36.781 31.2981 35.6021 30.8199 34.3641 30.5858C33.7534 30.4457 33.129 30.3736 32.5024 30.371C30.1167 30.3668 27.815 31.2515 26.0463 32.8526C24.2776 34.4537 23.1688 36.6562 22.9363 39.0306C22.7038 41.405 23.3642 43.7808 24.7887 45.6946C26.2132 47.6084 28.2995 48.9229 30.6408 49.3815C31.2512 49.5234 31.8758 49.5955 32.5024 49.5963C34.721 49.5836 36.8677 48.8082 38.5821 47.4001C40.2966 45.992 41.4745 44.037 41.9182 41.8632C42.411 39.3581 41.8965 36.7597 40.4862 34.6314V34.6314ZM41.3454 41.72C41.0058 43.4742 40.1531 45.088 38.8952 46.357C37.6373 47.6259 36.031 48.4928 34.2799 48.8477C32.5288 49.2026 30.7117 49.0295 29.059 48.3505C27.4064 47.6714 25.9925 46.5169 24.9968 45.0334C24.0011 43.5498 23.4683 41.804 23.4659 40.0173C23.4636 38.2306 23.9918 36.4834 24.9837 34.9972C25.9755 33.5111 27.3863 32.3529 29.0372 31.6695C30.688 30.9861 32.5047 30.8083 34.2567 31.1586C36.5936 31.6259 38.6508 32.9988 39.9789 34.9776C41.3071 36.9564 41.7983 39.3803 41.3454 41.72V41.72Z" fill="#A49FDA"/>
<path d="M34.256 31.1587C32.5125 30.8173 30.7069 31.0004 29.0674 31.6847C27.4279 32.3691 26.0281 33.5241 25.0448 35.0038C24.0615 36.4835 23.5389 38.2215 23.543 39.9981C23.5471 41.7747 24.0777 43.5102 25.0678 44.9853C26.0579 46.4605 27.463 47.609 29.1056 48.2858C30.7483 48.9627 32.5547 49.1374 34.2966 48.788C36.0385 48.4386 37.6377 47.5806 38.8922 46.3226C40.1467 45.0646 41.0001 43.463 41.3447 41.7201C41.7976 39.3804 41.3063 36.9565 39.9782 34.9777C38.65 32.9989 36.5929 31.626 34.256 31.1587V31.1587ZM33.54 35.5981C33.7821 35.5095 34.0448 35.4935 34.2958 35.5521C34.5469 35.6106 34.7754 35.7412 34.9534 35.9277C35.1314 36.1142 35.251 36.3486 35.2977 36.6022C35.3444 36.8557 35.3161 37.1174 35.2163 37.3551C35.1165 37.5928 34.9495 37.7962 34.7357 37.9403C34.522 38.0845 34.2708 38.1631 34.0131 38.1666C33.7553 38.1702 33.5021 38.0984 33.2845 37.9601C33.0669 37.8218 32.8944 37.623 32.7881 37.3881C32.7182 37.2214 32.6823 37.0425 32.6823 36.8617C32.6824 36.681 32.7185 36.502 32.7885 36.3354C32.8585 36.1687 32.961 36.0177 33.09 35.8911C33.219 35.7645 33.372 35.6649 33.54 35.5981V35.5981ZM30.0314 35.5981C30.1934 35.5193 30.3694 35.4735 30.5493 35.4633C30.7291 35.4531 30.9092 35.4788 31.079 35.5387C31.2489 35.5987 31.4051 35.6917 31.5387 35.8126C31.6723 35.9334 31.7806 36.0795 31.8573 36.2425C31.991 36.5757 31.9912 36.9476 31.8578 37.281C31.7245 37.6143 31.4679 37.8835 31.1413 38.0326C30.9793 38.1113 30.8032 38.1571 30.6234 38.1673C30.4436 38.1775 30.2635 38.1519 30.0937 38.0919C29.9238 38.032 29.7675 37.9389 29.6339 37.8181C29.5003 37.6973 29.3921 37.5511 29.3154 37.3881C29.2394 37.2244 29.1977 37.0468 29.1928 36.8663C29.1879 36.6858 29.22 36.5062 29.2871 36.3386C29.3541 36.1709 29.4547 36.0188 29.5827 35.8914C29.7107 35.7641 29.8634 35.6643 30.0314 35.5981V35.5981ZM26.9883 39.7152C26.9123 39.5515 26.8706 39.3739 26.8657 39.1934C26.8608 39.0129 26.8929 38.8333 26.96 38.6657C27.027 38.498 27.1276 38.3459 27.2556 38.2185C27.3837 38.0912 27.5363 37.9913 27.7043 37.9252C27.8663 37.8464 28.0423 37.8006 28.2222 37.7904C28.402 37.7802 28.5821 37.8059 28.7519 37.8658C28.9218 37.9257 29.0781 38.0188 29.2117 38.1396C29.3452 38.2605 29.4535 38.4066 29.5302 38.5696C29.6639 38.9028 29.6641 39.2747 29.5307 39.608C29.3974 39.9414 29.1408 40.2106 28.8142 40.3597C28.6522 40.4384 28.4762 40.4842 28.2963 40.4944C28.1165 40.5046 27.9364 40.479 27.7666 40.419C27.5967 40.3591 27.4404 40.266 27.3068 40.1452C27.1732 40.0244 27.065 39.8782 26.9883 39.7152V39.7152ZM32.3585 44.7274C30.2104 44.7274 28.492 43.6534 28.492 42.3645C28.492 41.0757 29.2796 40.7177 30.4252 40.2881C30.5088 39.8361 30.7478 39.4276 31.1009 39.1334C31.454 38.8391 31.8989 38.6777 32.3585 38.677C32.8163 38.6844 33.2577 38.8483 33.6094 39.1414C33.9611 39.4345 34.2019 39.8391 34.2918 40.2881C35.4374 40.7177 36.1893 41.4695 36.1893 42.3645C36.1893 43.2596 34.4708 44.7274 32.3585 44.7274V44.7274ZM37.1917 40.3597C37.0297 40.4384 36.8537 40.4842 36.6738 40.4944C36.494 40.5046 36.3139 40.479 36.1441 40.419C35.9742 40.3591 35.818 40.266 35.6844 40.1452C35.5508 40.0244 35.4425 39.8782 35.3658 39.7152C35.2898 39.5515 35.2481 39.3739 35.2432 39.1934C35.2384 39.0129 35.2704 38.8333 35.3375 38.6657C35.4045 38.498 35.5052 38.3459 35.6332 38.2185C35.7612 38.0912 35.9139 37.9913 36.0819 37.9252C36.2439 37.8464 36.4199 37.8006 36.5997 37.7904C36.7795 37.7802 36.9596 37.8059 37.1295 37.8658C37.2993 37.9257 37.4556 38.0188 37.5892 38.1396C37.7228 38.2605 37.8311 38.4066 37.9077 38.5696C37.9837 38.7334 38.0255 38.911 38.0303 39.0915C38.0352 39.2719 38.0031 39.4515 37.9361 39.6192C37.869 39.7868 37.7684 39.939 37.6404 40.0663C37.5124 40.1937 37.3597 40.2935 37.1917 40.3597V40.3597Z" fill="#C8C5E9"/>
<path d="M36.1895 42.3646C36.1895 43.6534 34.471 44.7274 32.3587 44.7274C30.2465 44.7274 28.4922 43.6534 28.4922 42.3646C28.4922 41.0757 29.2798 40.7177 30.4255 40.2881C30.509 39.8361 30.7481 39.4276 31.1011 39.1334C31.4542 38.8392 31.8991 38.6777 32.3587 38.677C32.8165 38.6844 33.2579 38.8483 33.6096 39.1414C33.9613 39.4345 34.2021 39.8392 34.292 40.2881C35.4377 40.7177 36.1895 41.4695 36.1895 42.3646Z" fill="#A49FDA"/>
<path d="M28.8142 40.3598C28.6522 40.4385 28.4762 40.4843 28.2963 40.4945C28.1165 40.5047 27.9364 40.4791 27.7666 40.4191C27.5967 40.3592 27.4405 40.2661 27.3069 40.1453C27.1733 40.0245 27.065 39.8783 26.9883 39.7153C26.9123 39.5516 26.8706 39.374 26.8657 39.1935C26.8608 39.013 26.8929 38.8334 26.96 38.6658C27.027 38.4981 27.1277 38.3459 27.2557 38.2186C27.3837 38.0913 27.5364 37.9914 27.7043 37.9253C27.8663 37.8465 28.0424 37.8007 28.2222 37.7905C28.402 37.7803 28.5821 37.8059 28.752 37.8659C28.9218 37.9258 29.0781 38.0189 29.2117 38.1397C29.3453 38.2605 29.4535 38.4067 29.5302 38.5697C29.6639 38.9029 29.6641 39.2748 29.5308 39.6081C29.3974 39.9415 29.1408 40.2107 28.8142 40.3598V40.3598Z" fill="#A49FDA"/>
<path d="M37.1911 40.3598C37.0291 40.4385 36.8531 40.4843 36.6733 40.4945C36.4935 40.5047 36.3134 40.4791 36.1435 40.4191C35.9737 40.3592 35.8174 40.2661 35.6838 40.1453C35.5502 40.0245 35.4419 39.8783 35.3653 39.7153C35.2893 39.5516 35.2475 39.374 35.2427 39.1935C35.2378 39.013 35.2699 38.8334 35.3369 38.6658C35.404 38.4981 35.5046 38.3459 35.6326 38.2186C35.7606 38.0913 35.9133 37.9914 36.0813 37.9253C36.2433 37.8465 36.4193 37.8007 36.5992 37.7905C36.779 37.7803 36.9591 37.8059 37.1289 37.8659C37.2988 37.9258 37.455 38.0189 37.5886 38.1397C37.7222 38.2605 37.8305 38.4067 37.9072 38.5697C37.9832 38.7335 38.0249 38.9111 38.0298 39.0915C38.0346 39.272 38.0026 39.4516 37.9355 39.6193C37.8685 39.7869 37.7678 39.9391 37.6398 40.0664C37.5118 40.1938 37.3591 40.2936 37.1911 40.3598V40.3598Z" fill="#A49FDA"/>
<path d="M34.6137 38.0326C34.3716 38.1211 34.1089 38.1371 33.8578 38.0786C33.6067 38.02 33.3782 37.8895 33.2002 37.7029C33.0223 37.5164 32.9026 37.282 32.8559 37.0285C32.8092 36.7749 32.8375 36.5133 32.9373 36.2756C33.0372 36.0379 33.2042 35.8345 33.4179 35.6903C33.6317 35.5462 33.8828 35.4675 34.1406 35.464C34.3984 35.4605 34.6516 35.5323 34.8692 35.6705C35.0867 35.8088 35.2592 36.0076 35.3655 36.2425C35.4354 36.4092 35.4714 36.5882 35.4713 36.7689C35.4712 36.9497 35.4351 37.1286 35.3652 37.2953C35.2952 37.4619 35.1927 37.613 35.0636 37.7395C34.9346 37.8661 34.7816 37.9658 34.6137 38.0326V38.0326Z" fill="#A49FDA"/>
<path d="M31.1404 38.0326C30.9784 38.1114 30.8023 38.1572 30.6225 38.1674C30.4427 38.1775 30.2626 38.1519 30.0928 38.092C29.9229 38.032 29.7666 37.9389 29.633 37.8181C29.4994 37.6973 29.3912 37.5512 29.3145 37.3882C29.2385 37.2244 29.1968 37.0468 29.1919 36.8663C29.187 36.6858 29.2191 36.5062 29.2862 36.3386C29.3532 36.171 29.4538 36.0188 29.5818 35.8915C29.7098 35.7641 29.8625 35.6643 30.0305 35.5981C30.1925 35.5194 30.3685 35.4736 30.5484 35.4634C30.7282 35.4532 30.9083 35.4788 31.0781 35.5387C31.248 35.5987 31.4042 35.6918 31.5378 35.8126C31.6714 35.9334 31.7797 36.0795 31.8564 36.2425C31.9901 36.5757 31.9903 36.9476 31.8569 37.281C31.7236 37.6143 31.467 37.8835 31.1404 38.0326V38.0326Z" fill="#A49FDA"/>
<path opacity="0.48" d="M56.524 18.9862C56.4882 18.8788 56.4882 18.7714 56.4524 18.664C56.4465 18.5317 56.4585 18.3993 56.4882 18.2702C56.336 17.2825 56.0215 16.3269 55.5573 15.4419C54.1969 16.3011 52.8722 17.1962 51.5834 18.127L51.2612 18.4134C48.3677 21.4019 45.295 24.2115 42.0602 26.8267C40.6997 28.044 39.3393 29.2254 37.9072 30.3711C32.895 34.8105 27.7038 38.9634 22.3694 43.009C20.3645 44.5842 18.2881 46.1595 16.2116 47.699L14.8869 48.6298C14.9159 48.6848 14.9283 48.7469 14.9227 48.8088C14.9758 49.0204 15.0118 49.2359 15.0301 49.4532V49.4532C15.024 49.6696 15.0001 49.8852 14.9585 50.0977C14.8857 50.5136 14.7272 50.9098 14.493 51.2611C14.2588 51.6124 13.954 51.9112 13.5981 52.1383C13.2595 52.3596 12.8834 52.5173 12.4882 52.6038H12.3808L11.5932 52.6754H9.4451L8.15625 53.642V55.0025C8.15625 58.7974 10.8772 62.1627 14.9585 63.38L16.2832 63.738C21.4386 60.2653 26.5582 56.7209 31.3556 52.747C39.8405 45.6583 47.2156 37.2092 56.524 31.1229V18.9862Z" fill="white"/>
<path opacity="0.48" d="M25.0547 65.4922C27.1702 65.7434 29.2972 65.8868 31.4273 65.9218H32.8236C36.0815 62.6997 39.2679 59.406 42.49 56.1839C45.7121 52.9617 48.5404 50.4556 51.6909 47.7705C53.2662 46.1595 54.8773 44.5484 56.5241 42.9731V38.9634C46.9174 48.8037 36.3781 57.6883 25.0547 65.4922V65.4922Z" fill="white"/>
<path d="M1.78475 15.2986C1.76706 15.4293 1.76706 15.5617 1.78475 15.6924C1.89853 16.1864 2.19206 16.6203 2.60818 16.9097C2.81796 17.0413 3.04768 17.138 3.28841 17.1961H10.5919C10.9725 17.1932 11.3442 17.0801 11.6619 16.8705C11.9796 16.6608 12.2297 16.3635 12.382 16.0146C12.4756 15.7638 12.5151 15.496 12.4978 15.2288C12.4806 14.9616 12.4069 14.7011 12.2818 14.4644C12.1567 14.2277 11.9829 14.0202 11.7719 13.8554C11.5608 13.6907 11.3173 13.5725 11.0573 13.5085C10.9499 13.4727 10.9141 13.4369 10.9141 13.3295C10.8862 12.6774 10.605 12.0619 10.1303 11.614C9.65559 11.166 9.02484 10.9209 8.37221 10.9308C7.88972 10.9244 7.41619 11.0614 7.01176 11.3246C6.84095 11.4362 6.68462 11.5685 6.54634 11.7185L6.29573 12.0407C6.25993 12.1123 6.22413 12.1481 6.11672 12.0765L5.90191 12.0049H5.83031C5.44335 11.8715 5.02321 11.8693 4.6349 11.9988C4.24659 12.1282 3.91177 12.382 3.68223 12.7209L3.46742 13.1147C3.43162 13.1863 3.43162 13.2937 3.39582 13.3653C3.36001 13.4369 3.36001 13.4727 3.25261 13.4727L2.8946 13.6159C2.62719 13.7317 2.39071 13.9087 2.20416 14.1325C2.01761 14.3564 1.88622 14.6209 1.82055 14.9048C1.79091 15.0338 1.77887 15.1663 1.78475 15.2986V15.2986Z" fill="white"/>
</svg>
