<svg width="31" height="34" viewBox="0 0 31 34" fill="none" xmlns="http://www.w3.org/2000/svg"><g clip-path="url(#clip0_576_8495)"><path d="M2.924 34c-.19 0-.38-.024-.564-.072a1.427 1.427 0 01-.475-.22l-.017-.014-.02-.014a1.052 1.052 0 01-.334-.498 1.456 1.456 0 01-.083-.381v-.021a7.092 7.092 0 01-.007-.327v-5.756a3.537 3.537 0 01.02-.426v-.042c.029-.168.087-.33.173-.477.14-.248.373-.43.647-.509.189-.058.42-.086.698-.086.207-.007.413.017.612.072.17.043.33.117.472.217l.037.027c.159.13.276.303.338.499.041.124.068.254.079.385v.017c.007.079.007.185.007.326v4.516h2.191c.13-.003.26.004.389.02l.038.008c.137.025.27.07.395.134a.982.982 0 01.485.598l.007.024a2.54 2.54 0 010 1.203.986.986 0 01-.485.618 1.298 1.298 0 01-.423.151l-.034.007a3.493 3.493 0 01-.382.021H2.924zm-.244-1.279c.088.021.178.032.268.031h3.888a.744.744 0 00.003-.123v-.038a.694.694 0 00-.003-.12H3.26V26.7c0-.135 0-.21-.003-.252a.038.038 0 00-.004-.017 1.022 1.022 0 00-.268-.027h-.014a1.58 1.58 0 00-.289.02c-.007.083-.01.172-.01.258v5.77c0 .134.003.21.003.251 0 .042.004.01.004.017z" fill="#000"/><path d="M9.01 34c-.19 0-.378-.024-.56-.072a1.425 1.425 0 01-.476-.22l-.02-.014-.017-.014a1.028 1.028 0 01-.334-.498 1.483 1.483 0 01-.083-.381v-.021c-.007-.076-.007-.186-.007-.327v-5.76c0-.532.124-.914.382-1.168.258-.254.647-.371 1.187-.371h4.08a3.58 3.58 0 01.427.02h.041c.168.03.33.088.478.172.249.14.432.372.51.646.058.193.085.42.085.698a2.13 2.13 0 01-.068.608 1.42 1.42 0 01-.22.475l-.014.02-.017.017a1.06 1.06 0 01-.496.337 1.639 1.639 0 01-.382.08h-.017c-.076.006-.175.006-.33.006h-.179c.243.142.422.372.499.643.058.189.086.416.086.694a2.22 2.22 0 01-.072.612c-.043.17-.117.33-.217.474l-.017.02-.014.018c-.072.086-.157.16-.251.22h.168c.143-.003.285.003.427.017l.041.007c.168.028.33.085.478.168.25.141.432.375.51.65.058.189.085.416.085.694.007.206-.016.412-.068.612-.044.17-.118.329-.22.47l-.014.021-.014.018a1.06 1.06 0 01-.499.336 1.644 1.644 0 01-.382.08h-.017l-.33.006h-4.15V34zm-.24-1.278c.086.02.175.03.264.03h4.393c.02-.087.031-.177.031-.268v-.017a1.324 1.324 0 00-.02-.288 2.08 2.08 0 00-.255-.007H9.35v-2.3h2.91l.028-.006a.974.974 0 00.027-.265v-.014a1.56 1.56 0 00-.02-.288 1.599 1.599 0 00-.259-.01H9.351v-2.3h4.076a1.14 1.14 0 00.031-.265v-.017a1.3 1.3 0 00-.02-.288 3.187 3.187 0 00-.255-.01H9.072a1.11 1.11 0 00-.286.027 1.182 1.182 0 00-.024.264v5.753c0 .135 0 .21.004.251 0 .006 0 .012.003.018z" fill="#000"/><path d="M20.476 33.997h-.003c-.365 0-.61-.031-.791-.107a1.21 1.21 0 01-.527-.398l-1.947-2.588v1.553c.002.145-.005.29-.02.433l-.008.045a1.411 1.411 0 01-.168.467c-.142.247-.373.43-.647.509a2.431 2.431 0 01-.702.086h-.003c-.279 0-.506-.028-.695-.09a1.083 1.083 0 01-.64-.508 1.448 1.448 0 01-.168-.488v-.031a3.026 3.026 0 01-.021-.433v-5.77a2.77 2.77 0 01.027-.447l.007-.042c.032-.151.087-.297.162-.433.093-.168.279-.388.636-.498a2.55 2.55 0 01.706-.093c.218-.003.435.024.646.08l.021.006c.22.069.375.155.495.268l.01.01c.087.083.166.173.238.269l.066.079c.712.969 1.314 1.78 1.795 2.43v-1.63a2.77 2.77 0 01.028-.446l.007-.042a1.54 1.54 0 01.161-.433 1.06 1.06 0 01.64-.498c.19-.059.423-.09.706-.093.203-.003.405.02.602.072.175.042.34.118.485.224l.024.02.02.017c.147.131.256.299.317.485a1.6 1.6 0 01.079.382v.02c.003.08.007.19.007.33v5.743c0 .144-.007.289-.02.433l-.008.045a1.411 1.411 0 01-.168.467c-.142.247-.373.43-.647.509a2.431 2.431 0 01-.702.086zm-.33-1.265a2.513 2.513 0 00.616-.004c.007-.085.01-.171.01-.254v-5.76c0-.137-.003-.213-.003-.25a.046.046 0 01-.004-.021 1.134 1.134 0 00-.261-.031h-.007c-.1 0-.198.008-.296.024a2.29 2.29 0 00-.01.22v5.347l-1.118-1.45a250.538 250.538 0 01-2.925-3.925l-.051-.069-.09-.103-.034-.01a1.06 1.06 0 00-.275-.034h-.014a1.78 1.78 0 00-.292.024 1.553 1.553 0 00-.01.22v5.804c0 .09.003.18.01.268.088.013.178.018.268.018h.003c.096.002.192-.005.286-.02.007-.087.01-.173.01-.255v-5.248l1.118 1.45c.489.633 1.52 1.997 3.069 4.059z" fill="#000"/><path d="M23.087 33.986a2.29 2.29 0 01-.626-.086h-.02a1.082 1.082 0 01-.626-.477 1.322 1.322 0 01-.186-.502v-.02a3.425 3.425 0 01-.024-.461v-5.753c-.003-.145.003-.29.017-.434v-.048c.03-.163.088-.32.172-.464a1.066 1.066 0 01.647-.508c.227-.064.462-.095.698-.09h.007l.956.007h.96c1.163 0 2.198.423 3.076 1.255.877.831 1.334 1.89 1.334 3.12 0 1.23-.436 2.272-1.293 3.145-.857.873-1.92 1.313-3.148 1.313h-1.944v.003zm-.227-1.271c.085.02.172.028.258.024h1.917c.89 0 1.63-.31 2.256-.942a3.097 3.097 0 00.936-2.268c0-.887-.31-1.612-.946-2.217-.636-.605-1.373-.91-2.215-.91h-.97l-.95-.008a1.588 1.588 0 00-.289.021c-.008.086-.01.172-.007.258v5.777c-.002.088.002.177.01.265zm2.206-.56h-1.631v-5.166h1.62c.692 0 1.3.247 1.81.739.509.491.774 1.117.774 1.842 0 .725-.268 1.375-.802 1.866-.533.491-1.114.718-1.771.718zm-.382-1.248h.382c.337 0 .64-.127.925-.389.286-.26.4-.553.4-.948 0-.395-.125-.684-.393-.945a1.292 1.292 0 00-.943-.389h-.371v2.67z" fill="#000"/><path d="M3.887 31.838h2.821c.103 0 .205.005.307.017a.738.738 0 01.22.08.35.35 0 01.179.226c.038.146.055.297.051.447.004.147-.014.294-.051.437a.37.37 0 01-.183.23.798.798 0 01-.234.086 2.294 2.294 0 01-.299.014H2.962a1.657 1.657 0 01-.447-.052.796.796 0 01-.269-.124.447.447 0 01-.14-.213.944.944 0 01-.052-.237c-.004-.065-.004-.165-.004-.296V26.69c-.002-.12.003-.239.014-.357a.878.878 0 01.1-.275.45.45 0 01.279-.217c.13-.041.31-.062.53-.062.15-.003.3.014.447.052a.835.835 0 01.268.124.415.415 0 01.14.213.979.979 0 01.053.237c.003.069.006.165.006.295v5.138zm6.086-.298h3.196c.12-.002.24.004.358.017.097.015.19.047.275.096a.457.457 0 01.217.282 1.8 1.8 0 01.062.525c.004.151-.014.301-.052.447a.88.88 0 01-.124.272.444.444 0 01-.213.137.954.954 0 01-.237.055H9.05a1.64 1.64 0 01-.447-.051.764.764 0 01-.268-.124.426.426 0 01-.141-.213.944.944 0 01-.052-.237 5.717 5.717 0 01-.007-.296v-5.76c0-.35.069-.591.2-.722.13-.13.378-.192.746-.189h4.087c.12-.002.24.003.358.014a.88.88 0 01.275.1.45.45 0 01.217.278c.041.134.062.31.062.53.004.15-.014.3-.052.446a.764.764 0 01-.124.268.427.427 0 01-.213.141.946.946 0 01-.237.052l-.296.007H9.973v1.044h2.054c.12 0 .239.005.358.018.097.013.19.046.275.096a.465.465 0 01.22.282c.041.13.062.305.062.529.003.15-.014.3-.052.447a.799.799 0 01-.127.268.42.42 0 01-.213.137.97.97 0 01-.244.055H9.973v1.048zm10.521-5.75a1.59 1.59 0 01.44.051.765.765 0 01.268.124.45.45 0 01.134.213.946.946 0 01.055.237c.004.069.004.165.004.296v5.75c.002.121-.002.243-.014.364a.843.843 0 01-.1.268.456.456 0 01-.278.22c-.134.04-.31.062-.53.062-.22 0-.458-.021-.56-.062a.592.592 0 01-.259-.2 483.028 483.028 0 00-3.072-4.058v3.405c.002.122-.002.244-.014.365a.841.841 0 01-.1.268.455.455 0 01-.278.22c-.134.04-.31.062-.53.062-.22 0-.385-.021-.513-.062a.465.465 0 01-.275-.22.793.793 0 01-.1-.279 3.167 3.167 0 01-.017-.364v-5.78c0-.118.008-.235.024-.351a.886.886 0 01.097-.261.446.446 0 01.275-.206c.13-.042.31-.062.53-.062.159-.004.317.014.47.055a.643.643 0 01.256.127c.065.066.127.136.185.21l.052.061a279.294 279.294 0 002.924 3.929v-3.503a1.986 1.986 0 01.02-.35.883.883 0 01.097-.261.446.446 0 01.275-.206 1.82 1.82 0 01.534-.062zm8.356 3.739c0 1.052-.372 1.953-1.115 2.705a3.67 3.67 0 01-2.7 1.13h-1.9a1.791 1.791 0 01-.505-.061.472.472 0 01-.282-.203.817.817 0 01-.104-.282 3.437 3.437 0 01-.02-.378v-5.76c-.001-.12.005-.241.017-.361a.825.825 0 01.096-.272.457.457 0 01.282-.216c.131-.041.307-.062.53-.062h.953l.963.007c1.002 0 1.886.36 2.646 1.082.76.722 1.139 1.616 1.139 2.67zm-1.834.041c0-.55-.196-1.017-.585-1.392a1.926 1.926 0 00-1.376-.567h-.994v3.918h1.005c.498 0 .946-.182 1.348-.553.403-.371.602-.839.602-1.406z" fill="#8D9EFF"/><path d="M2.264 25.989l-.09-.12c-.688-.925-1.142-2.025-1.348-3.265a13.471 13.471 0 010-4.303c.216-1.38.615-2.725 1.187-4l-.056-.076v-.014C1.17 12.888.578 10.781.375 8.575c-.08-.835-.258-3.62.688-4.337.303-.23.764-.344 1.404-.344 2.38 0 6.767 1.626 7.885 2.059a12.03 12.03 0 012.463-.688 11.617 11.617 0 011.858-.158c.33-.275 1.582-1.32 3.02-2.347C19.967 1.127 21.625.296 22.616.296c.153 0 .305.023.45.068 1.126.378 1.855 3.07 2.048 3.884.502 2.08.63 4.19.35 5.688 2.237 2.285 3.723 5.1 4.19 7.939.283 1.69.049 3.258-.69 4.66-.675 1.282-1.772 2.426-3.262 3.406l-.076.048H2.264z" fill="#5959FF"/><path d="M22.616.598a1.06 1.06 0 01.358.052c1.376.46 2.842 6.2 2.167 9.385 2.168 2.18 3.73 4.942 4.218 7.891.56 3.389-1.05 5.946-3.826 7.767H2.413c-.64-.862-1.087-1.9-1.29-3.137-.458-2.767.044-5.685 1.241-8.31a1.114 1.114 0 01-.154-.183C.544 11.26.083 5.355 1.235 4.478c.265-.203.692-.285 1.225-.285 2.405 0 6.925 1.705 7.885 2.08a11.39 11.39 0 014.396-.87h.035S20.383.595 22.613.595l.003.003zM22.613 0c-1.067 0-2.735.821-5.102 2.516a51.332 51.332 0 00-2.955 2.292 12 12 0 00-4.215.821 50.83 50.83 0 00-3.223-1.11c-2.013-.611-3.578-.924-4.658-.924-.709 0-1.228.134-1.586.405-.416.32-.678.928-.802 1.873-.096.76-.1 1.702-.003 2.73.206 2.226.805 4.364 1.603 5.728A16.255 16.255 0 00.53 18.256a13.872 13.872 0 000 4.4c.213 1.285.684 2.43 1.403 3.391l.18.24h23.603l.148-.099c1.534-1.003 2.666-2.189 3.364-3.512.77-1.46 1.012-3.093.723-4.846-.248-1.509-.77-2.997-1.541-4.423a16.493 16.493 0 00-2.625-3.567c.25-1.526.113-3.613-.379-5.66-.24-1-.547-1.894-.884-2.582-.42-.856-.863-1.35-1.359-1.515A1.76 1.76 0 0022.616 0h-.003z" fill="#000"/><path d="M17.483 23.109c-.301 0-.597-.085-.853-.244a1.638 1.638 0 01-.78-1.327.244.244 0 01.484-.02 1.153 1.153 0 001.425 1.072 1.13 1.13 0 00.712-.519 1.149 1.149 0 00-.379-1.584.242.242 0 01.165-.446.244.244 0 01.09.033 1.64 1.64 0 01-.475 2.99 1.877 1.877 0 01-.389.045z" fill="#000"/><path d="M14.714 23.521a1.607 1.607 0 01-.836-.23 1.632 1.632 0 01-.385-2.498.244.244 0 01.342-.02.24.24 0 01.019.343 1.161 1.161 0 00-.258 1.051 1.154 1.154 0 001.617.757 1.156 1.156 0 00.646-.875c.021-.15.012-.302-.027-.449a.247.247 0 01.27-.301.24.24 0 01.201.18 1.616 1.616 0 01-.179 1.242 1.615 1.615 0 01-1.41.8zm4.524-5.313a2.1 2.1 0 01-2.064-1.784l-.203-1.364a.295.295 0 01.247-.34.3.3 0 01.341.25l.203 1.368a1.495 1.495 0 002.663.641c.236-.309.342-.698.296-1.084l-.203-1.364a.295.295 0 01.14-.3.298.298 0 01.448.21l.206 1.365a2.092 2.092 0 01-2.074 2.402z" fill="#000"/><path d="M10.826 6.086s1.063.564.998 1.894c-.065 1.389-.98 1.285-.808 2.822.172 1.536 4.224 4.46 2.25 8.922-1.944 4.399-10.717 3.244-12.292 1.515-.379-4.653 2.607-9.204 2.607-9.204s3.64-5.1 7.245-5.949z" fill="#6678FF"/><path d="M11.26 19.157a2.09 2.09 0 01-2.06-1.753l-.207-1.365a.299.299 0 11.591-.089l.203 1.364a1.495 1.495 0 001.692 1.208 1.497 1.497 0 001.267-1.647l-.203-1.365a.29.29 0 01.248-.337.294.294 0 01.301.14c.02.035.034.072.04.111l.206 1.368a2.088 2.088 0 01-2.078 2.364z" fill="#000"/><path d="M7.235 8.595s-1.314-1.818-2.7-2.77C3.147 4.873 2.091 4.413 1.51 4.691c-.733.358-.774 2.62-.35 4.939.422 2.32 1.076 3.41 1.372 4.01.296.602 4.703-5.045 4.703-5.045z" fill="#6678FF"/><path opacity=".2" d="M21.553 6.96a3.592 3.592 0 01-4.371 2.451 3.594 3.594 0 01-2.575-4.297s1.428-1.334 6.43-4.217c4.975-2.74 4.586 8.78 4.586 8.78l-4.07-2.718z" fill="#000"/><path d="M18.945 5.956s.458-1.622 1.452-2.98c.994-1.357 1.83-2.148 2.474-2.075.808.092 1.6 2.213 1.97 4.54.372 2.326.125 3.574.042 4.237-.437-.722-5.938-3.722-5.938-3.722z" fill="#6678FF"/><path d="M25.853 26.288H2.003l-.094-.124c-.701-.948-1.166-2.069-1.376-3.333-.44-2.674-.048-5.55 1.142-8.317 1.143-2.657 2.983-5.05 5.185-6.743a.304.304 0 01.371.48c-4.434 3.414-6.942 9.37-6.096 14.48.186 1.113.582 2.103 1.177 2.945H25.67c2.955-1.97 4.2-4.516 3.695-7.571-.874-5.269-5.26-10.16-10.672-11.891a.306.306 0 01.186-.581c2.68.86 5.25 2.536 7.242 4.725a16.418 16.418 0 012.483 3.575c.66 1.28 1.12 2.653 1.363 4.072.285 1.722.045 3.324-.709 4.757-.688 1.306-1.81 2.474-3.33 3.474l-.076.052z" fill="#000"/><path d="M2.542 26.848a1.064 1.064 0 01-1.066-1.062c0-.1.014-.2.045-.295.237-.815.777-1.478 1.561-1.908.71-.395 1.62-.605 2.629-.605 1.008 0 1.92.21 2.632.602.784.436 1.324 1.096 1.561 1.91a1.064 1.064 0 01-1.025 1.358H2.542z" fill="#5959FF"/><path d="M5.71 23.28c1.876 0 3.451.736 3.909 2.296a.766.766 0 01-.74.976H2.542a.767.767 0 01-.736-.976c.454-1.56 2.03-2.295 3.905-2.295zm0-.597c-2.304 0-3.98 1.017-4.478 2.725a1.363 1.363 0 001.31 1.739H8.88a1.364 1.364 0 001.366-1.361 1.31 1.31 0 00-.055-.378c-.495-1.708-2.17-2.725-4.48-2.725z" fill="#000"/><path d="M7.187 25.528s.21.488.137.904l-.137-.904z" fill="#5959FF"/><path d="M7.324 26.731h-.048a.3.3 0 01-.244-.344c.045-.268-.072-.625-.12-.738a.299.299 0 01.55-.234c.024.058.24.58.158 1.069a.299.299 0 01-.296.247z" fill="#000"/><path d="M4.62 25.528s-.316.622-.22 1.024l.22-1.024z" fill="#5959FF"/><path d="M4.4 26.848a.293.293 0 01-.289-.227c-.12-.491.207-1.154.244-1.227a.297.297 0 01.53.268c-.11.22-.244.619-.196.818a.295.295 0 01-.289.368z" fill="#000"/><path d="M19.03 13.139c.79-.074 1.392-.557 1.343-1.081-.048-.524-.729-.889-1.52-.815-.79.073-1.392.557-1.343 1.08.048.524.729.889 1.52.816z" fill="#6678FF"/><path d="M10.447 14.42c.787-.134 1.352-.666 1.262-1.186-.09-.52-.8-.833-1.586-.698-.786.134-1.35.666-1.261 1.186.09.52.8.833 1.585.699z" fill="#5959FF"/><path opacity=".2" d="M26.717 11.496s-.805 1.389-1.572 1.949-2.188.687-2.209 1.237c-.02.55 2.463 1.57 5.257-.976l-1.476-2.21z" fill="#000"/><path opacity=".2" d="M28.33 13.912s-1.045 1.22-1.902 1.63c-.857.408-2.278.274-2.398.81-.12.536 2.133 1.994 5.346.004l-1.046-2.444z" fill="#000"/><path d="M15.928 19.277a.14.14 0 01-.18.083.142.142 0 01-.06-.042.917.917 0 00-1.03-.24c-.433.189-.653.721-.488 1.196.165.474 1.463 1.402 1.92 1.258.495-.07 1.448-1.327 1.497-1.808.048-.481-.286-.952-.747-.997-.365-.038-.743.2-.912.55z" fill="#000"/><path opacity=".1" d="M25.29 10.08c.013.034 3.505 7.692-.015 12.472-1.097 1.492-2.879 2.502-4.816 3.183h5.222c2.773-1.822 4.387-4.375 3.826-7.764-.489-2.949-2.05-5.715-4.218-7.89z" fill="#000"/><path d="M21.832 26.848a1.062 1.062 0 01-1.022-1.357c.237-.815.777-1.478 1.562-1.908.709-.395 1.62-.605 2.632-.605 1.011 0 1.92.21 2.628.602.784.436 1.324 1.096 1.562 1.91a1.06 1.06 0 01-1.022 1.358h-6.34z" fill="#5959FF"/><path d="M25.004 23.28c1.875 0 3.45.736 3.904 2.296a.763.763 0 01-.736.976h-6.34a.77.77 0 01-.767-.766c0-.071.01-.142.03-.21.455-1.56 2.03-2.295 3.905-2.295h.004zM25 22.684c-2.305 0-3.98 1.017-4.479 2.725a1.367 1.367 0 001.31 1.739h6.341a1.363 1.363 0 001.31-1.739c-.498-1.708-2.173-2.725-4.478-2.725H25z" fill="#000"/><path d="M26.476 25.528s.21.488.138.904l-.138-.904z" fill="#5959FF"/><path d="M26.614 26.731h-.052a.3.3 0 01-.244-.344c.048-.268-.069-.625-.117-.738a.298.298 0 01.386-.385.3.3 0 01.164.15c.024.06.241.582.159 1.073a.303.303 0 01-.296.244z" fill="#000"/><path d="M23.91 25.529s-.317.622-.22 1.024l.22-1.024z" fill="#5959FF"/><path d="M23.69 26.848a.292.292 0 01-.29-.227c-.12-.491.207-1.154.245-1.227a.295.295 0 01.399-.13.297.297 0 01.134.399c-.114.22-.244.618-.196.817a.299.299 0 01-.293.368z" fill="#000"/></g><defs><clipPath id="clip0_576_8495"><path fill="#fff" d="M0 0h30.085v34H0z"/></clipPath></defs></svg>