<svg width="40" height="32" viewBox="0 0 40 32" fill="none" xmlns="http://www.w3.org/2000/svg"><g clip-path="url(#clip0_277_17494)"><path fill-rule="evenodd" clip-rule="evenodd" d="M14.6 10.224c-.022.582-.06 1.172-.134 1.754l.022-.145a8.52 8.52 0 01-.499 1.937 4.705 4.705 0 01-.426.786c-.024.04-.05.079-.076.116l-.044.066-.067.087c-.06.073-.18.211-.276.313-.094.1-.194.195-.299.284-.054.05-.111.096-.171.138a.455.455 0 00-.035.03l-.048.036c-.198.137-.41.256-.63.357a3.29 3.29 0 01-.818.218l.15-.015a3.216 3.216 0 01-.774.008 3.705 3.705 0 01-.742-.213c-.22-.1-.43-.219-.627-.355l-.082-.066c-.015-.009-.02-.012-.021-.01l-.12-.106a2.935 2.935 0 01-.314-.292 4.877 4.877 0 01-.196-.218l-.065-.074c.04.045.026.027 0-.005a1.475 1.475 0 01-.068-.088l-.127-.182a4.402 4.402 0 01-.406-.747 6.364 6.364 0 01-.37-1.452l.022.146c-.142-1.034-.067-2.083.075-3.116l-.015.145c.013-.129.032-.252.052-.38l.008-.05a.591.591 0 00-.06-.422.558.558 0 00-.329-.247.558.558 0 00-.432.05c-.112.074-.24.19-.262.328-.216 1.442-.358 2.913-.045 4.354.262 1.216.896 2.38 1.904 3.16.493.401 1.072.69 1.695.844a3.77 3.77 0 001.91-.036c1.225-.35 2.248-1.267 2.852-2.344.702-1.245.91-2.687.986-4.092l.022-.502c.007-.284-.269-.561-.56-.546a.575.575 0 00-.394.162.546.546 0 00-.166.384zm-.657 3.662l.03-.076-.03.076zm-2.142 2.148l.097-.043a4.191 4.191 0 01-.097.043zm-1.948 0a4.196 4.196 0 01-.098-.043l.098.043zm-2.098-2.075a6.386 6.386 0 01-.04-.1l.04.1zm16.55-3.735c.017.716.08 1.431.186 2.14.111.7.314 1.382.605 2.031.5 1.1 1.41 2.097 2.56 2.578a3.785 3.785 0 001.904.313 4.171 4.171 0 001.777-.62c1.082-.69 1.843-1.776 2.21-2.977.417-1.369.358-2.825.163-4.223-.01-.067-.018-.133-.026-.199a9.503 9.503 0 00-.063-.427c-.034-.193-.131-.252-.227-.31a.595.595 0 00-.46-.067.574.574 0 00-.336.246.59.59 0 00-.052.423l.03.214c.009.071.018.142.03.215l-.023-.145c.142 1.033.224 2.082.082 3.116l.023-.146a6.07 6.07 0 01-.426 1.573l.06-.131a4.974 4.974 0 01-.41.757l-.128.182-.044.065a.641.641 0 00-.043.045c-.024.026-.034.037.043-.052l-.284.328a5.708 5.708 0 01-.314.29l-.134.112-.007.005-.09.066a4.022 4.022 0 01-.629.359 3.708 3.708 0 01-.733.209 3.216 3.216 0 01-.773-.008l.15.015a3.344 3.344 0 01-.818-.215 4.027 4.027 0 01-.63-.36l-.09-.066-.165-.138a3.688 3.688 0 01-.306-.284 9.786 9.786 0 00-.07-.079 3.51 3.51 0 01-.198-.234l-.068-.087-.127-.182a5.162 5.162 0 01-.425-.801l.052.13a7.888 7.888 0 01-.545-2.052l.023.145a15.422 15.422 0 01-.135-1.754c-.007-.284-.253-.561-.56-.546-.306.014-.574.24-.56.546zm5.867 5.81l.071-.031-.071.03zm-1.956 0a4.508 4.508 0 01-.071-.031l.071.03z" fill="#fff"/><path d="M23.513 16.907c.5.619.904 1.296.986 2.09.06.655-.165 1.332-.62 1.79a2.367 2.367 0 01-1.687.656c-.993-.022-1.829-.597-2.3-1.405-.168.31-.4.585-.678.808-.515.4-1.18.648-1.852.59a2.382 2.382 0 01-.88-.242 2.328 2.328 0 01-.717-.552c-.47-.553-.59-1.281-.463-1.951.127-.67.515-1.26.94-1.784.135-.167.381-.153.553 0 .172.153.127.386 0 .539l-.03.044-.09.116-.134.19c-.09.134-.171.272-.246.414l-.06.124-.022.044c-.03.073-.06.153-.082.226a2.305 2.305 0 00-.053.218.832.832 0 00-.03.146v.014a2.212 2.212 0 000 .444v.022a.029.029 0 00.008.022.415.415 0 00.015.095c.016.066.036.132.06.196l.022.051.001.012a.029.029 0 00.006.01 1.838 1.838 0 00.127.218l.038.051h.007v.015l.202.196.044.037.112.073.165.094.074.03h.008c.122.04.247.074.373.101h.455c.015 0 .053-.007.015-.007l.187-.036.164-.044.105-.036h.015l.014-.015c.119-.049.231-.11.336-.182l.12-.087.12-.117.163-.175v-.014l.053-.066a2.047 2.047 0 00.215-.364c.01-.023.022-.046.031-.073h.008l.067-.196a2.78 2.78 0 00.082-.357c.03-.175.209-.24.388-.276.18-.037.41.087.448.276.02.144.055.286.105.422l.044.131v.008c.03.065.067.138.097.196.03.058.067.117.105.175l.082.11v.014l.015.014c.087.104.181.202.284.292l.074.058.067.043.15.095.171.08h.023l.097.037.201.05.105.023.06.014c.119.01.238.012.358.007h.134l.157-.036.187-.058h.007l.075-.03.194-.123.052-.03.037-.029.254-.247a.037.037 0 00.008-.015.036.036 0 01.007-.014.132.132 0 00.037-.051c.036-.052.068-.105.098-.16l.014-.037.03-.065a2.363 2.363 0 00.075-.299l.015-.072c0-.032.002-.06.003-.09a1.543 1.543 0 00-.01-.318v-.022H23.7a.416.416 0 00-.015-.095 2.843 2.843 0 00-.127-.43l-.022-.065a.259.259 0 01-.03-.065l-.023-.049a6.756 6.756 0 00-.313-.52l-.112-.152a.629.629 0 01-.052-.073c-.005 0-.024-.024-.038-.04-.007-.009-.012-.016-.015-.018-.134-.168-.134-.393 0-.539.135-.145.433-.16.56 0z" fill="#fff"/><path d="M36.332 23.366c2.123-.582 3.413-2.55 2.881-4.397-.532-1.847-2.685-2.872-4.808-2.29-2.124.583-3.414 2.551-2.881 4.398.532 1.846 2.684 2.871 4.808 2.289zM8.41 21.12c.532-1.841-.754-3.805-2.872-4.386-2.117-.58-4.264.441-4.795 2.283-.531 1.84.755 3.804 2.872 4.385 2.118.581 4.265-.44 4.796-2.282z" fill="#FB5182"/></g><defs><clipPath id="clip0_277_17494"><path fill="#fff" transform="translate(.648 8.44)" d="M0 0h38.683v15.122H0z"/></clipPath></defs></svg>