<svg width="31" height="34" viewBox="0 0 31 34" fill="none" xmlns="http://www.w3.org/2000/svg"><g clip-path="url(#clip0_642_9198)"><path d="M2.924 34c-.19 0-.38-.024-.564-.072a1.425 1.425 0 01-.475-.22l-.017-.014-.02-.014a1.052 1.052 0 01-.334-.498 1.456 1.456 0 01-.083-.381v-.021a7.099 7.099 0 01-.007-.327v-5.756a3.535 3.535 0 01.02-.426v-.041a1.43 1.43 0 01.173-.478c.14-.248.373-.43.647-.509.189-.058.42-.086.698-.086.207-.007.413.017.612.072.17.043.33.117.472.217l.038.027c.158.13.275.303.337.499.042.124.068.254.079.385v.017c.007.079.007.185.007.326v4.516h2.191c.13-.003.26.004.389.02l.038.008c.137.025.27.07.395.134a.98.98 0 01.485.598l.007.024a2.54 2.54 0 010 1.203.986.986 0 01-.485.618 1.298 1.298 0 01-.423.151l-.034.007a3.493 3.493 0 01-.382.021H2.924zm-.244-1.279c.088.021.178.032.268.032h3.888a.745.745 0 00.003-.124v-.038a.694.694 0 00-.003-.12H3.26V26.7c0-.135 0-.21-.003-.252a.038.038 0 00-.004-.017 1.022 1.022 0 00-.268-.027h-.014a1.571 1.571 0 00-.289.02c-.006.083-.01.172-.01.258v5.77c0 .134.004.21.004.251 0 .042.003.01.003.017z" fill="#000"/><path d="M9.01 34c-.19 0-.378-.024-.56-.072a1.425 1.425 0 01-.476-.22l-.02-.014-.017-.014a1.028 1.028 0 01-.334-.498 1.482 1.482 0 01-.083-.381v-.021c-.007-.076-.007-.186-.007-.327v-5.76c0-.532.124-.914.382-1.168.258-.254.647-.371 1.187-.371h4.08a3.58 3.58 0 01.427.02h.041c.168.03.33.088.478.172.25.14.432.372.51.646.058.193.086.42.086.698.006.205-.017.41-.07.608a1.41 1.41 0 01-.22.475l-.013.02-.017.017c-.13.158-.302.274-.496.337a1.642 1.642 0 01-.382.08h-.017a4.713 4.713 0 01-.33.006h-.179c.243.142.422.372.499.643.058.189.086.416.086.694a2.22 2.22 0 01-.072.612c-.043.17-.117.33-.217.474l-.017.02-.014.018a1.09 1.09 0 01-.251.22h.168c.143-.003.285.003.427.017l.041.007c.168.028.33.085.478.168.25.141.432.375.51.65.058.189.086.416.086.694.006.206-.017.412-.07.612a1.368 1.368 0 01-.22.47l-.013.021-.014.017a1.06 1.06 0 01-.499.337 1.637 1.637 0 01-.382.08h-.017l-.33.006H9.01V34zm-.24-1.279c.086.021.175.032.264.031h4.393c.02-.087.031-.177.031-.268v-.017a1.324 1.324 0 00-.02-.288 2.121 2.121 0 00-.255-.007H9.351v-2.3h2.91l.028-.006a.975.975 0 00.027-.265v-.014a1.568 1.568 0 00-.02-.288 1.624 1.624 0 00-.259-.01H9.351v-2.3h4.076a1.14 1.14 0 00.031-.265v-.017a1.3 1.3 0 00-.02-.288 3.14 3.14 0 00-.255-.01H9.072a1.106 1.106 0 00-.286.027 1.18 1.18 0 00-.024.264v5.753c0 .134 0 .21.004.251 0 .006 0 .012.003.017z" fill="#000"/><path d="M20.476 33.997h-.003c-.365 0-.61-.031-.791-.107a1.211 1.211 0 01-.527-.399l-1.947-2.587v1.553c.002.145-.005.29-.02.433l-.008.045a1.411 1.411 0 01-.168.467c-.141.247-.373.43-.647.509a2.429 2.429 0 01-.702.086h-.003c-.279 0-.506-.028-.695-.09a1.084 1.084 0 01-.64-.508 1.446 1.446 0 01-.168-.489v-.03a3.042 3.042 0 01-.021-.433v-5.77c-.003-.15.006-.3.027-.447l.007-.042a1.54 1.54 0 01.162-.433c.093-.168.279-.388.636-.498a2.55 2.55 0 01.706-.093c.218-.003.435.024.646.08l.021.006c.22.069.375.155.495.268l.01.01c.087.083.166.173.238.268l.066.08c.712.969 1.314 1.78 1.795 2.43v-1.63a2.77 2.77 0 01.028-.446l.007-.042c.032-.151.086-.297.162-.433a1.05 1.05 0 01.64-.498c.189-.059.422-.09.705-.093.203-.004.405.02.602.072.175.042.34.118.485.224l.024.02.02.017c.147.131.256.298.317.485a1.6 1.6 0 01.08.381v.021c.002.08.006.19.006.33v5.743c0 .144-.007.289-.02.433l-.008.045a1.411 1.411 0 01-.168.467c-.142.247-.373.43-.647.509a2.429 2.429 0 01-.702.086zm-.33-1.265a2.531 2.531 0 00.616-.004c.007-.086.01-.171.01-.254v-5.76c0-.137-.003-.213-.003-.25a.044.044 0 01-.004-.021 1.134 1.134 0 00-.261-.031h-.007c-.1 0-.198.008-.296.024a2.29 2.29 0 00-.01.22v5.347l-1.118-1.45a250.538 250.538 0 01-2.925-3.925l-.051-.069-.09-.103-.034-.01a1.06 1.06 0 00-.275-.034h-.014a1.78 1.78 0 00-.292.024 1.538 1.538 0 00-.01.22v5.804c0 .09.003.179.01.268.088.012.178.018.268.018h.003c.096.002.192-.005.286-.021a3.2 3.2 0 00.01-.254v-5.248l1.118 1.45c.489.632 1.52 1.997 3.069 4.059z" fill="#000"/><path d="M23.087 33.986a2.29 2.29 0 01-.626-.086h-.02a1.082 1.082 0 01-.627-.477 1.323 1.323 0 01-.185-.502v-.02a3.407 3.407 0 01-.024-.461v-5.753a3.62 3.62 0 01.017-.434v-.048c.03-.163.088-.32.172-.464a1.066 1.066 0 01.647-.508c.227-.064.462-.095.698-.09h.007l.956.007h.96c1.163 0 2.198.423 3.076 1.255.877.831 1.334 1.89 1.334 3.12 0 1.23-.436 2.272-1.293 3.145-.857.873-1.92 1.313-3.148 1.313h-1.944v.003zm-.227-1.271c.085.02.172.028.258.024h1.917c.89 0 1.63-.31 2.256-.942a3.096 3.096 0 00.936-2.268c0-.887-.31-1.612-.946-2.217-.636-.605-1.373-.91-2.215-.91h-.97l-.95-.008a1.598 1.598 0 00-.29.021 2.222 2.222 0 00-.006.258v5.777c-.002.088.002.177.01.265zm2.206-.56h-1.631v-5.166h1.62c.692 0 1.3.247 1.81.739.509.491.774 1.117.774 1.842 0 .725-.268 1.375-.802 1.866-.533.492-1.114.718-1.771.718zm-.382-1.248h.381c.338 0 .64-.127.926-.389.285-.26.399-.553.399-.948 0-.395-.124-.684-.392-.945a1.292 1.292 0 00-.943-.389h-.371v2.67z" fill="#000"/><path d="M3.887 31.838h2.821c.103 0 .205.005.307.017a.735.735 0 01.22.08.35.35 0 01.179.226c.038.146.055.297.051.447.004.147-.014.294-.051.437a.371.371 0 01-.183.23.795.795 0 01-.234.086 2.294 2.294 0 01-.299.014H2.962a1.657 1.657 0 01-.447-.052.796.796 0 01-.268-.124.447.447 0 01-.142-.213.944.944 0 01-.051-.237c-.004-.065-.004-.165-.004-.296V26.69c-.002-.12.003-.239.014-.357a.88.88 0 01.1-.275.45.45 0 01.279-.217c.13-.041.31-.062.53-.062.15-.003.3.014.447.052a.832.832 0 01.268.123c.068.055.117.13.141.214a.98.98 0 01.052.237c.003.069.006.165.006.295v5.138zm6.086-.298h3.196c.12-.002.24.004.358.017.097.014.19.047.275.096a.456.456 0 01.217.282 1.8 1.8 0 01.062.525c.004.15-.014.301-.052.447a.883.883 0 01-.124.272.443.443 0 01-.213.137.953.953 0 01-.237.055H9.05a1.645 1.645 0 01-.447-.052.764.764 0 01-.268-.123.426.426 0 01-.141-.213.944.944 0 01-.052-.237 5.717 5.717 0 01-.007-.296v-5.76c0-.35.069-.591.2-.722.13-.13.378-.192.746-.189h4.087c.12-.002.24.003.358.014.097.018.19.051.275.1a.448.448 0 01.217.278c.041.134.062.31.062.53.004.15-.014.3-.052.446a.761.761 0 01-.124.268.426.426 0 01-.213.141.94.94 0 01-.237.052l-.296.006H9.973v1.045h2.054c.12-.001.239.005.358.017a.75.75 0 01.275.097.465.465 0 01.22.282c.041.13.062.305.062.529.003.15-.014.3-.051.447a.802.802 0 01-.128.268.42.42 0 01-.213.137.97.97 0 01-.244.055H9.973v1.048zm10.521-5.75a1.59 1.59 0 01.44.051.765.765 0 01.268.124.45.45 0 01.134.213.948.948 0 01.055.237c.004.069.004.165.004.296v5.75c.002.12-.002.243-.014.364a.844.844 0 01-.1.268.458.458 0 01-.278.22c-.134.04-.31.061-.53.061-.22 0-.458-.02-.56-.061a.59.59 0 01-.259-.2 482.396 482.396 0 00-3.072-4.058v3.405c.002.122-.002.244-.014.365a.842.842 0 01-.1.268.456.456 0 01-.278.22c-.134.04-.31.061-.53.061-.22 0-.385-.02-.513-.061a.464.464 0 01-.275-.22.793.793 0 01-.1-.279 3.166 3.166 0 01-.017-.364v-5.78c0-.118.008-.235.024-.351a.888.888 0 01.097-.261.447.447 0 01.275-.207c.13-.04.31-.061.53-.061.159-.005.317.014.47.055a.643.643 0 01.256.127c.065.066.127.136.185.21l.052.061a278.05 278.05 0 002.924 3.928V26.67a1.986 1.986 0 01.02-.35.884.884 0 01.097-.261.447.447 0 01.275-.207c.131-.04.31-.061.534-.061zm8.356 3.739c0 1.051-.372 1.953-1.115 2.704a3.67 3.67 0 01-2.7 1.131h-1.9a1.788 1.788 0 01-.505-.062.471.471 0 01-.282-.202.818.818 0 01-.104-.282 3.437 3.437 0 01-.02-.378v-5.76c-.001-.12.005-.241.017-.361a.825.825 0 01.096-.272.458.458 0 01.282-.216c.131-.041.307-.062.53-.062h.953l.963.007c1.002 0 1.886.36 2.646 1.082.76.722 1.139 1.616 1.139 2.67zm-1.834.041c0-.55-.196-1.017-.585-1.392a1.926 1.926 0 00-1.376-.567h-.994v3.918h1.005c.498 0 .946-.182 1.348-.553.403-.371.602-.839.602-1.406z" fill="#8D9EFF"/><path d="M2.264 25.989l-.09-.12c-.688-.925-1.142-2.025-1.348-3.265a13.471 13.471 0 010-4.303c.216-1.38.615-2.725 1.187-4l-.056-.076v-.014C1.17 12.888.578 10.781.375 8.575c-.08-.835-.258-3.62.688-4.337.303-.23.764-.344 1.404-.344 2.38 0 6.767 1.625 7.885 2.058.794-.316 1.62-.546 2.463-.687a11.617 11.617 0 011.858-.158c.33-.275 1.582-1.32 3.02-2.347C19.967 1.127 21.625.296 22.616.296c.153 0 .305.023.45.068 1.126.378 1.855 3.07 2.048 3.884.502 2.08.63 4.19.35 5.688 2.237 2.285 3.723 5.1 4.19 7.939.283 1.69.049 3.258-.69 4.66-.675 1.282-1.772 2.426-3.262 3.406l-.076.048H2.264z" fill="#5959FF"/><path d="M22.616.598c.121-.003.242.014.358.052 1.376.46 2.841 6.2 2.167 9.385 2.168 2.18 3.73 4.942 4.218 7.891.56 3.389-1.05 5.946-3.826 7.767H2.412c-.64-.862-1.088-1.9-1.29-3.138-.458-2.766.044-5.684 1.241-8.31a1.114 1.114 0 01-.154-.182C.544 11.26.083 5.354 1.235 4.478c.265-.203.692-.285 1.225-.285 2.404 0 6.925 1.705 7.885 2.08a11.39 11.39 0 014.396-.87h.035S20.383.595 22.613.595l.003.003zM22.613 0c-1.067 0-2.735.821-5.102 2.516a51.345 51.345 0 00-2.955 2.292 12 12 0 00-4.215.821c-.626-.24-1.85-.69-3.223-1.11-2.013-.611-3.578-.924-4.658-.924-.709 0-1.228.134-1.586.405-.416.32-.678.928-.802 1.873-.096.76-.1 1.702-.003 2.73.206 2.226.805 4.364 1.603 5.728A16.255 16.255 0 00.53 18.256a13.872 13.872 0 000 4.4c.213 1.285.684 2.429 1.403 3.391l.18.24h23.603l.148-.099c1.534-1.003 2.666-2.189 3.364-3.512.77-1.46 1.012-3.093.723-4.846-.248-1.509-.771-2.997-1.542-4.423a16.492 16.492 0 00-2.624-3.568c.25-1.525.113-3.612-.379-5.66-.24-1-.547-1.894-.884-2.58-.42-.857-.863-1.352-1.359-1.517A1.76 1.76 0 0022.616 0h-.003z" fill="#000"/><path d="M17.483 23.109a1.64 1.64 0 01-1.634-1.57.244.244 0 01.485-.021 1.153 1.153 0 001.425 1.072 1.129 1.129 0 00.712-.519 1.146 1.146 0 00-.379-1.584.24.24 0 01-.017-.404.245.245 0 01.272-.009 1.64 1.64 0 01-.475 2.99 1.875 1.875 0 01-.389.045z" fill="#000"/><path d="M14.714 23.521a1.616 1.616 0 01-.836-.23 1.633 1.633 0 01-.385-2.498.242.242 0 01.36.323 1.163 1.163 0 00-.257 1.051 1.156 1.156 0 002.263-.118c.021-.15.012-.302-.027-.449a.247.247 0 01.27-.301.242.242 0 01.201.18 1.618 1.618 0 01-.179 1.242 1.616 1.616 0 01-1.41.8zm4.524-5.313a2.1 2.1 0 01-2.064-1.784l-.203-1.364a.295.295 0 01.47-.285.299.299 0 01.118.196l.203 1.367a1.495 1.495 0 001.695 1.214 1.497 1.497 0 001.264-1.657l-.204-1.364a.3.3 0 01.14-.3.296.296 0 01.331.016.299.299 0 01.118.194l.206 1.365a2.09 2.09 0 01-1.761 2.378 2.411 2.411 0 01-.313.024z" fill="#000"/><path d="M10.826 6.087s1.063.563.998 1.893c-.065 1.389-.98 1.286-.808 2.822.172 1.536 4.224 4.46 2.25 8.922-1.944 4.399-10.717 3.244-12.292 1.515-.379-4.653 2.607-9.203 2.607-9.203s3.64-5.1 7.245-5.95z" fill="#6678FF"/><path d="M11.26 19.157a2.09 2.09 0 01-2.06-1.753l-.207-1.365a.299.299 0 11.591-.089l.203 1.364a1.495 1.495 0 001.692 1.208 1.497 1.497 0 001.267-1.647l-.203-1.365a.29.29 0 01.248-.337.294.294 0 01.301.14c.02.035.034.072.04.111l.206 1.368a2.088 2.088 0 01-2.078 2.365z" fill="#000"/><path d="M7.235 8.595s-1.314-1.818-2.7-2.77C3.147 4.873 2.091 4.413 1.51 4.691.778 5.05.736 7.31 1.16 9.63c.423 2.32 1.076 3.41 1.372 4.01.296.602 4.703-5.045 4.703-5.045z" fill="#6678FF"/><path opacity=".2" d="M21.553 6.96a3.592 3.592 0 01-4.371 2.451 3.594 3.594 0 01-2.575-4.297s1.428-1.334 6.43-4.217c4.975-2.74 4.586 8.781 4.586 8.781l-4.07-2.719z" fill="#000"/><path d="M18.945 5.956s.458-1.622 1.452-2.98C21.391 1.62 22.227.828 22.871.9c.808.093 1.6 2.214 1.97 4.54.372 2.327.125 3.575.042 4.238-.437-.722-5.938-3.722-5.938-3.722z" fill="#6678FF"/><path d="M25.853 26.288H2.003l-.094-.124C1.208 25.216.743 24.095.533 22.83c-.44-2.673-.048-5.55 1.142-8.316 1.143-2.657 2.983-5.05 5.185-6.743a.304.304 0 01.371.48c-4.434 3.413-6.942 9.37-6.096 14.48.186 1.113.582 2.103 1.177 2.945H25.67c2.955-1.97 4.2-4.516 3.695-7.571-.874-5.269-5.26-10.16-10.672-11.891a.306.306 0 01.186-.581c2.68.86 5.25 2.536 7.242 4.725a16.419 16.419 0 012.483 3.575c.66 1.28 1.12 2.653 1.363 4.072.285 1.722.045 3.324-.709 4.757-.688 1.306-1.81 2.474-3.33 3.474l-.076.052z" fill="#000"/><path d="M2.542 26.848a1.064 1.064 0 01-1.066-1.062c0-.1.014-.2.045-.295.237-.815.777-1.478 1.561-1.908.71-.395 1.62-.605 2.629-.605 1.008 0 1.92.21 2.632.602.784.436 1.324 1.096 1.561 1.91a1.064 1.064 0 01-1.025 1.358H2.542z" fill="#5959FF"/><path d="M5.71 23.28c1.876 0 3.451.736 3.909 2.296a.766.766 0 01-.74.976H2.542a.767.767 0 01-.736-.976c.454-1.56 2.03-2.295 3.905-2.295zm0-.597c-2.304 0-3.98 1.017-4.478 2.725a1.363 1.363 0 001.31 1.74H8.88a1.364 1.364 0 001.366-1.362 1.31 1.31 0 00-.055-.378c-.495-1.708-2.17-2.725-4.48-2.725z" fill="#000"/><path d="M7.187 25.528s.21.488.137.904z" fill="#5959FF"/><path d="M7.324 26.731h-.048a.3.3 0 01-.244-.343c.045-.269-.072-.626-.12-.74a.299.299 0 01.55-.233c.024.058.24.58.158 1.069a.299.299 0 01-.296.247z" fill="#000"/><path d="M4.62 25.528s-.316.622-.22 1.024z" fill="#5959FF"/><path d="M4.4 26.848a.292.292 0 01-.289-.227c-.12-.491.207-1.154.244-1.227a.296.296 0 01.53.268c-.11.22-.244.619-.196.818a.295.295 0 01-.289.368z" fill="#000"/><path d="M19.03 13.139c.79-.074 1.392-.557 1.343-1.08-.048-.524-.729-.89-1.52-.816-.79.073-1.392.557-1.343 1.08.048.524.729.889 1.52.816z" fill="#6678FF"/><path d="M10.447 14.42c.787-.134 1.352-.666 1.262-1.186-.09-.52-.8-.833-1.586-.698-.786.134-1.35.666-1.261 1.186.09.52.8.833 1.585.698z" fill="#5959FF"/><path opacity=".2" d="M26.717 11.496s-.805 1.388-1.572 1.949c-.767.56-2.188.687-2.209 1.237-.02.55 2.463 1.57 5.257-.976l-1.476-2.21z" fill="#000"/><path opacity=".2" d="M28.33 13.912s-1.045 1.22-1.902 1.63c-.857.408-2.277.274-2.398.81-.12.536 2.133 1.994 5.346.004l-1.046-2.444z" fill="#000"/><path d="M15.928 19.277a.14.14 0 01-.18.083.14.14 0 01-.06-.042.918.918 0 00-1.03-.24c-.433.189-.653.721-.488 1.195.165.475 1.462 1.403 1.92 1.258.495-.068 1.448-1.326 1.497-1.807.048-.482-.286-.952-.747-.997-.365-.038-.743.2-.912.55z" fill="#000"/><path opacity=".1" d="M25.29 10.08c.013.034 3.505 7.692-.015 12.472-1.097 1.492-2.88 2.502-4.816 3.183h5.222c2.773-1.822 4.387-4.375 3.826-7.764-.489-2.949-2.05-5.716-4.218-7.89z" fill="#000"/><path d="M21.832 26.848a1.062 1.062 0 01-1.022-1.357c.237-.815.777-1.478 1.562-1.908.709-.395 1.62-.605 2.632-.605 1.011 0 1.92.21 2.628.602.784.436 1.324 1.096 1.562 1.91a1.06 1.06 0 01-1.022 1.358h-6.34z" fill="#5959FF"/><path d="M25.004 23.28c1.875 0 3.45.736 3.904 2.296a.763.763 0 01-.736.976h-6.34a.77.77 0 01-.767-.766c0-.07.01-.142.03-.21.455-1.56 2.03-2.295 3.905-2.295h.004zM25 22.684c-2.305 0-3.98 1.017-4.479 2.725a1.367 1.367 0 001.31 1.74h6.341a1.363 1.363 0 001.31-1.74c-.498-1.708-2.173-2.725-4.478-2.725H25z" fill="#000"/><path d="M26.476 25.528s.21.488.138.904z" fill="#5959FF"/><path d="M26.614 26.731h-.052a.299.299 0 01-.244-.343c.048-.269-.069-.626-.117-.74a.299.299 0 01.55-.233c.024.058.241.58.159 1.072a.302.302 0 01-.296.244z" fill="#000"/><path d="M23.91 25.528s-.317.622-.22 1.024z" fill="#5959FF"/><path d="M23.69 26.848a.293.293 0 01-.29-.227c-.12-.491.207-1.154.245-1.227a.296.296 0 01.399-.13.296.296 0 01.134.398c-.114.22-.244.619-.196.818a.3.3 0 01-.293.368z" fill="#000"/></g><defs><clipPath id="clip0_642_9198"><path fill="#fff" d="M0 0h30.085v34H0z"/></clipPath></defs></svg>