<svg width="50" height="50" viewBox="0 0 50 50" fill="none" xmlns="http://www.w3.org/2000/svg">
<g filter="url(#filter0_d_140_23795)">
<path d="M12.1367 26.3486L33.0648 32.428L44.1314 25.2583V24.4745L23.2033 19.1738L12.1367 25.5698V26.3486Z" fill="#4E4EEE"/>
<path d="M23.2031 18.395L44.1312 24.6302V12.2352L23.2031 6V18.395Z" fill="#5959FF"/>
<path d="M12.1367 25.5698L33.0648 31.6492L44.1314 24.4745L23.2033 18.395L12.1367 25.5698Z" fill="#6678FF"/>
<path d="M24.0775 18.2393L42.7945 23.6455C42.9088 23.6778 43.0299 23.6852 43.1479 23.6671C43.2659 23.6491 43.3776 23.606 43.4739 23.5415C43.5702 23.4769 43.6485 23.3926 43.7024 23.2955C43.7562 23.1983 43.7842 23.091 43.784 22.9823V13.5164C43.7851 13.3709 43.7354 13.2287 43.642 13.1105C43.5487 12.9922 43.4164 12.9039 43.2644 12.8582L24.5474 7.16062C24.4329 7.12649 24.3111 7.1175 24.1921 7.13439C24.073 7.15128 23.9601 7.19356 23.8625 7.25778C23.7648 7.32199 23.6854 7.40631 23.6305 7.50383C23.5756 7.60134 23.547 7.70928 23.5469 7.81881V17.5761C23.5479 17.7232 23.5997 17.8663 23.6949 17.9852C23.7901 18.1042 23.9239 18.1931 24.0775 18.2393Z" fill="#221A7E"/>
<path d="M19.207 26.9514L24.3755 28.4537L27.1117 26.6801L21.9377 25.1779L19.207 26.9514Z" fill="#4E4EEE"/>
<path d="M18.8917 23.3189L28.0014 25.9667C28.0964 25.9962 28.1978 26.0044 28.297 25.9904C28.3962 25.9764 28.4901 25.9406 28.5708 25.8863L32.6116 23.2686C32.7098 23.2055 32.7867 23.1187 32.8336 23.0181C32.8806 22.9174 32.8957 22.8069 32.8773 22.6988C32.8589 22.5908 32.8078 22.4895 32.7296 22.4065C32.6514 22.3234 32.5493 22.2618 32.4347 22.2286L23.3304 19.5757C23.2342 19.5486 23.1324 19.5417 23.0328 19.5556C22.9332 19.5695 22.8384 19.6039 22.7556 19.6561L18.7148 22.2788C18.6166 22.3419 18.5397 22.4287 18.4927 22.5294C18.4458 22.63 18.4306 22.7406 18.449 22.8486C18.4674 22.9567 18.5185 23.0579 18.5967 23.141C18.6749 23.224 18.7771 23.2856 18.8917 23.3189Z" fill="#4E4EEE"/>
<path d="M32.1148 27.3082L35.752 28.3683C35.8494 28.396 35.9526 28.4026 36.0533 28.3878C36.154 28.373 36.2496 28.3371 36.3324 28.2829L40.3345 25.6501C40.4311 25.5863 40.5063 25.4994 40.5519 25.3991C40.5975 25.2987 40.6116 25.1889 40.5927 25.0817C40.5738 24.9746 40.5227 24.8743 40.4449 24.7919C40.3671 24.7095 40.2658 24.6483 40.1521 24.6151L36.5149 23.56C36.4181 23.53 36.3149 23.5217 36.2138 23.5356C36.1128 23.5496 36.0169 23.5856 35.9344 23.6404L31.9323 26.2731C31.8358 26.337 31.7605 26.4239 31.715 26.5242C31.6694 26.6245 31.6553 26.7344 31.6742 26.8415C31.693 26.9487 31.7442 27.049 31.822 27.1314C31.8997 27.2137 32.0011 27.2749 32.1148 27.3082Z" fill="#4E4EEE"/>
<path opacity="0.48" d="M25.3418 18.6011L26.5358 18.9477C27.3373 18.4001 37.1988 11.165 37.3426 11.0545L36.4637 10.7882C36.0878 11.165 28.9017 16.6516 25.3418 18.6011Z" fill="white"/>
<path opacity="0.48" d="M39.9737 12.607C36.9831 15.2197 33.8655 17.7871 30.5488 20.1084L32.2901 20.6108C35.756 17.9579 39.2219 15.3051 42.7265 12.6924L40.6038 12.0493L39.9737 12.607Z" fill="white"/>
<path d="M32.6121 22.8767L28.5713 25.4994C28.4895 25.5516 28.3956 25.5859 28.2969 25.5999C28.1982 25.6138 28.0973 25.6069 28.0019 25.5798L18.8922 22.927C18.7963 22.8996 18.7088 22.8522 18.6368 22.7885C18.5648 22.7248 18.5103 22.6466 18.4776 22.5602C18.4491 22.6347 18.4372 22.7136 18.4427 22.7924C18.4482 22.8711 18.4709 22.9481 18.5095 23.0187C18.5481 23.0894 18.6018 23.1523 18.6676 23.2038C18.7333 23.2554 18.8096 23.2945 18.8922 23.3189L28.0019 25.9667C28.0969 25.9962 28.1984 26.0044 28.2975 25.9904C28.3967 25.9764 28.4907 25.9406 28.5713 25.8863L32.6121 23.2686C32.7274 23.1956 32.8132 23.0901 32.8561 22.9685C32.8991 22.8468 32.8968 22.7157 32.8498 22.5954C32.8031 22.7085 32.7203 22.8065 32.6121 22.8767Z" fill="#39309F"/>
<path d="M40.3345 25.2633L36.3324 27.891C36.2495 27.9452 36.154 27.9811 36.0532 27.996C35.9525 28.0108 35.8494 28.0041 35.7519 27.9764L32.1147 26.9213C32.0198 26.8923 31.9333 26.8443 31.8615 26.7808C31.7897 26.7173 31.7346 26.64 31.7001 26.5546C31.6717 26.6287 31.6599 26.7073 31.6654 26.7857C31.6709 26.8641 31.6937 26.9407 31.7323 27.0109C31.771 27.0812 31.8247 27.1437 31.8904 27.1947C31.9561 27.2458 32.0323 27.2844 32.1147 27.3082L35.7519 28.3683C35.8494 28.396 35.9525 28.4027 36.0532 28.3879C36.154 28.373 36.2495 28.3371 36.3324 28.2829L40.3345 25.6502C40.4474 25.5766 40.5307 25.4714 40.5716 25.3508C40.6126 25.2301 40.6089 25.1005 40.5611 24.9819C40.5186 25.0944 40.4396 25.1925 40.3345 25.2633Z" fill="#39309F"/>
</g>
<defs>
<filter id="filter0_d_140_23795" x="-0.0683594" y="-1" width="56.1992" height="56" filterUnits="userSpaceOnUse" color-interpolation-filters="sRGB">
<feFlood flood-opacity="0" result="BackgroundImageFix"/>
<feColorMatrix in="SourceAlpha" type="matrix" values="0 0 0 0 0 0 0 0 0 0 0 0 0 0 0 0 0 0 127 0" result="hardAlpha"/>
<feOffset dy="6"/>
<feGaussianBlur stdDeviation="6"/>
<feComposite in2="hardAlpha" operator="out"/>
<feColorMatrix type="matrix" values="0 0 0 0 0 0 0 0 0 0 0 0 0 0 0 0 0 0 0.1 0"/>
<feBlend mode="normal" in2="BackgroundImageFix" result="effect1_dropShadow_140_23795"/>
<feBlend mode="normal" in="SourceGraphic" in2="effect1_dropShadow_140_23795" result="shape"/>
</filter>
</defs>
</svg>
