<svg width="72" height="62" viewBox="0 0 72 62" fill="none" xmlns="http://www.w3.org/2000/svg">
<path d="M60.4491 7.81713C60.2646 6.21935 59.6476 4.72054 58.6791 3.51731C57.7106 2.31408 56.4358 1.46262 55.022 1.0746C54.4611 0.939018 53.8886 0.871195 53.3145 0.872328H6.93971C5.0366 0.87231 3.21098 1.70592 1.86242 3.19071C0.513865 4.6755 -0.247795 6.69053 -0.255859 8.7948V48.6094C-0.247795 50.7137 0.513865 52.7287 1.86242 54.2135C3.21098 55.6983 5.0366 56.5319 6.93971 56.5319H53.3145C55.2152 56.5231 57.0362 55.6866 58.383 54.2037C59.7299 52.7209 60.4941 50.7109 60.5101 48.6094V8.7948C60.5101 8.49138 60.4796 8.15426 60.4491 7.81713ZM58.9856 48.6094C58.9776 50.2666 58.3765 51.8529 57.3138 53.0216C56.2512 54.1903 54.8133 54.8463 53.3145 54.8463H6.93971C6.19641 54.8507 5.45965 54.6927 4.77178 54.3812C4.08391 54.0698 3.45849 53.6111 2.93148 53.0315C2.40447 52.4519 1.98626 51.7629 1.70089 51.004C1.41552 50.2451 1.26861 49.4313 1.26863 48.6094V8.7948C1.26861 7.97292 1.41552 7.15914 1.70089 6.40025C1.98626 5.64136 2.40447 4.95231 2.93148 4.37272C3.45849 3.79314 4.08391 3.33444 4.77178 3.023C5.45965 2.71156 6.19641 2.55352 6.93971 2.55796H53.3145C53.7759 2.5623 54.2356 2.61878 54.6866 2.72652C55.9093 3.06962 56.9947 3.85142 57.7726 4.94951C58.5505 6.04759 58.9771 7.39995 58.9856 8.7948V48.6094Z" fill="#4040B7"/>
<path d="M54.6796 2.57382C54.2287 2.46544 53.7691 2.40863 53.3079 2.40427H6.94501C6.20191 2.3998 5.46534 2.55877 4.77765 2.87204C4.08995 3.18531 3.46469 3.6467 2.93782 4.2297C2.41094 4.81269 1.99284 5.50578 1.70754 6.26914C1.42224 7.03249 1.27538 7.85105 1.27539 8.67775V48.7263C1.27538 49.553 1.42224 50.3716 1.70754 51.135C1.99284 51.8983 2.41094 52.5914 2.93782 53.1744C3.46469 53.7574 4.08995 54.2188 4.77765 54.5321C5.46534 54.8453 6.20191 55.0043 6.94501 54.9998H53.3079C54.8063 54.9999 56.2438 54.34 57.3062 53.1644C58.3686 51.9889 58.9695 50.3933 58.9775 48.7263V8.67775C58.9691 7.27471 58.5426 5.91441 57.7648 4.80987C56.9871 3.70533 55.902 2.91893 54.6796 2.57382ZM54.771 45.8439C54.771 47.0581 54.3375 48.2225 53.5658 49.081C52.794 49.9396 51.7474 50.4219 50.656 50.4219H9.26163C8.72011 50.4264 8.18318 50.3111 7.68209 50.0826C7.18099 49.8541 6.72574 49.5171 6.34281 49.0911C5.95988 48.6651 5.65693 48.1586 5.45156 47.6012C5.2462 47.0437 5.14253 46.4464 5.14658 45.8439V11.5602C5.14253 10.9577 5.2462 10.3604 5.45156 9.80294C5.65693 9.24548 5.95988 8.73901 6.34281 8.31301C6.72574 7.887 7.18099 7.54996 7.68209 7.3215C8.18318 7.09303 8.72011 6.9777 9.26163 6.98222H50.656C51.7474 6.98222 52.794 7.46453 53.5658 8.32307C54.3375 9.1816 54.771 10.346 54.771 11.5602V45.8439Z" fill="#6678FF"/>
<path d="M11.7434 43.3288L12.3672 44.0212L7.34481 49.3829C6.95956 49.0474 6.39412 48.364 6.18295 47.8762C5.97178 47.3885 5.86519 46.8541 5.87135 46.314V11.6241C5.87135 10.6685 6.21688 9.75214 6.83193 9.07648C7.44697 8.40082 8.28116 8.02124 9.15097 8.02124H11.556V43.3288H11.7434Z" fill="#4747CC"/>
<path d="M54.1272 11.644V46.526C54.1272 47.4868 53.5337 48.4083 52.9319 49.0877C52.33 49.7671 51.5138 50.1487 50.6626 50.1487H9.15671C8.63467 50.1545 7.60906 49.6603 7.14844 49.3829L12.2131 43.9383H46.0475L51.4267 50.0107L51.8546 49.5277L45.9569 43.813L46.3837 8.02124L50.9179 8.02124C51.7691 8.02124 52.5854 8.40292 53.1872 9.08232C53.789 9.76172 54.1272 10.6832 54.1272 11.644Z" fill="#4747CC"/>
<path d="M22.37 44.0212H12.2539V8.02124H45.7007V44.0212H22.37Z" fill="#4747CC"/>
<path d="M51.8579 49.4902L51.4308 49.9172L46.0619 44.5483L45.8789 44.3958L46.306 43.9688L46.3975 44.0603L51.8579 49.4902Z" fill="#312893"/>
<path d="M12.2204 44.3653L12.0374 44.5483L7.49217 49.6732L7.30914 49.9172L6.85156 49.5207L6.97358 49.3376L11.5188 44.2433L11.5798 44.1823L11.7629 43.9688L11.9459 44.1518L12.2204 44.3653Z" fill="#312893"/>
<path d="M12.2542 8.02124H11.4883V44.2766H12.2542V8.02124Z" fill="#312893"/>
<path d="M46.4671 8.02124H45.7012V44.2766H46.4671V8.02124Z" fill="#312893"/>
<path d="M72.4797 16.1338C72.4706 15.1066 72.2325 14.099 71.788 13.206C71.3434 12.313 70.7069 11.564 69.9387 11.0297L62.4074 5.61083C62.1134 5.40116 61.7816 5.27023 61.437 5.22784C61.0923 5.18546 60.7438 5.23273 60.4174 5.36611L60.0807 5.54091C59.7499 5.7466 59.4733 6.04954 59.2795 6.41835C59.0857 6.78716 58.9818 7.20843 58.9785 7.63852L59.0397 49.311C59.03 49.8754 59.2046 50.4238 59.5296 50.8492L59.7745 51.1639L66.2343 59.7291C66.5689 60.1697 66.9827 60.5227 67.4477 60.764C67.9126 61.0054 68.4177 61.1293 68.9284 61.1275C69.3862 61.1317 69.8414 61.049 70.2754 60.8828C70.9316 60.6261 71.5005 60.1403 71.9016 59.4941C72.3027 58.8478 72.5156 58.0739 72.5103 57.2819L72.4797 16.1338ZM69.7244 59.2397C69.3187 59.4142 68.8762 59.4441 68.4554 59.3256C68.0345 59.207 67.655 58.9454 67.367 58.5754L60.693 49.7305C60.6114 49.6107 60.5682 49.4627 60.5705 49.311L60.5093 7.60356C60.5183 7.49404 60.551 7.38879 60.6044 7.29726C60.6578 7.20573 60.7303 7.13078 60.8154 7.07916C60.9291 7.0122 61.0549 6.9763 61.1828 6.97428C61.3206 6.97584 61.4564 7.01163 61.5808 7.07916L69.1121 12.498C69.6609 12.8793 70.1168 13.4122 70.4378 14.0476C70.7588 14.683 70.9346 15.4004 70.949 16.1338V57.2819C70.9499 57.7135 70.8322 58.1346 70.6125 58.4858C70.3928 58.837 70.0822 59.1007 69.7244 59.2397Z" fill="#4040B7"/>
<path d="M70.9472 16.1452C70.9329 15.413 70.7572 14.6966 70.4362 14.0622C70.1153 13.4278 69.6594 12.8957 69.1107 12.515L61.5811 7.10472C61.4567 7.03729 61.3209 7.00156 61.1832 7C61.0553 7.00202 60.9295 7.03787 60.8159 7.10472C60.7308 7.15626 60.6583 7.23109 60.6049 7.32247C60.5515 7.41386 60.5188 7.51895 60.5098 7.6283L60.571 49.2704C60.5686 49.4219 60.6118 49.5697 60.6934 49.6893L67.3661 58.5203C67.654 58.8897 68.0334 59.1509 68.4542 59.2693C68.875 59.3877 69.3173 59.3578 69.7229 59.1835C70.0864 59.0507 70.4036 58.79 70.6291 58.4389C70.8545 58.0877 70.9766 57.6641 70.9779 57.2288L70.9472 16.1452ZM65.7438 24.4876C65.7438 23.9291 66.4172 23.6499 66.8457 23.9989L69.0495 25.9885C69.1212 26.0396 69.1792 26.1122 69.217 26.1985C69.2548 26.2847 69.271 26.3811 69.2638 26.4772V30.6658C69.2638 31.2243 68.5904 31.5036 68.1619 31.1196L65.9581 29.1649C65.8341 29.0396 65.7573 28.8645 65.7438 28.6762V24.4876ZM69.4168 41.1025C69.42 41.3586 69.358 41.6102 69.2386 41.8269C69.1191 42.0437 68.9471 42.2164 68.7434 42.3242C68.5927 42.4159 68.4245 42.4638 68.2537 42.4638C67.9623 42.4489 67.683 42.3264 67.4579 42.1148L65.8356 40.4393C65.7136 40.3093 65.6155 40.1528 65.5472 39.979C65.4788 39.8051 65.4416 39.6175 65.4377 39.4271V32.2017C65.4331 31.9408 65.4979 31.6844 65.6236 31.4663C65.7492 31.2482 65.9299 31.0787 66.1417 30.98C66.3453 30.8681 66.5737 30.8282 66.7973 30.8656C67.021 30.9029 67.2297 31.0157 67.3967 31.1894L69.0495 32.8649C69.1674 32.9966 69.2607 33.1542 69.3239 33.3282C69.387 33.5022 69.4186 33.6889 69.4168 33.8771V41.1025Z" fill="#5959FF"/>
<path d="M68.6788 33.3587V41.1339C68.6837 41.1975 68.6669 41.2608 68.6308 41.3148C68.5948 41.3688 68.5414 41.4107 68.4782 41.4344C68.4381 41.472 68.2777 41.5095 68.1173 41.3593L65.9916 39.5563C65.953 39.5312 65.9218 39.4974 65.9007 39.458C65.8797 39.4187 65.8696 39.375 65.8713 39.331V31.5557C65.8757 31.4941 65.8963 31.4344 65.9313 31.382C65.9663 31.3295 66.0146 31.286 66.0718 31.2552H66.1921L66.4328 31.3304L68.5584 33.1709C68.5939 33.19 68.6236 33.2173 68.6446 33.2502C68.6657 33.283 68.6774 33.3204 68.6788 33.3587V33.3587Z" fill="#312893"/>
<path d="M69.0693 32.5696L67.3725 30.8381C67.2011 30.6586 66.9868 30.542 66.7573 30.5034C66.5277 30.4649 66.2933 30.5061 66.0843 30.6217C65.8668 30.7237 65.6813 30.8989 65.5523 31.1243C65.4233 31.3496 65.3568 31.6146 65.3616 31.8842V39.3511C65.3656 39.5479 65.4038 39.7418 65.4739 39.9214C65.5441 40.1011 65.6447 40.2628 65.77 40.3972L67.4354 42.1287C67.6665 42.3473 67.9532 42.4739 68.2523 42.4894C68.4277 42.4894 68.6003 42.4398 68.7551 42.3451C68.9641 42.2337 69.1407 42.0552 69.2633 41.8312C69.386 41.6072 69.4495 41.3472 69.4463 41.0826V33.6157C69.4481 33.4211 69.4157 33.2282 69.3509 33.0484C69.2861 32.8686 69.1903 32.7058 69.0693 32.5696ZM68.5037 41.0826C68.5075 41.1436 68.4944 41.2044 68.4661 41.2563C68.4379 41.3081 68.396 41.3484 68.3466 41.3711C68.3152 41.4072 68.1895 41.4433 68.0638 41.299L66.3985 39.5675C66.3682 39.5434 66.3438 39.511 66.3273 39.4731C66.3108 39.4353 66.3029 39.3934 66.3042 39.3511V31.8842C66.3077 31.825 66.3238 31.7677 66.3512 31.7173C66.3787 31.667 66.4165 31.6252 66.4613 31.5956H66.5556L66.7441 31.6678L68.4094 33.4353C68.4421 33.4565 68.4686 33.4884 68.4854 33.527C68.5022 33.5655 68.5085 33.609 68.5037 33.6517V41.0826Z" fill="#4239AB"/>
<path d="M46.246 43.9382H11.7754V44.5483H46.246V43.9382Z" fill="#312893"/>
<path d="M50.7642 7.00013H9.23412C8.69082 6.99562 8.15213 7.11085 7.6494 7.33913C7.14666 7.56741 6.68992 7.90417 6.30573 8.32983C5.92155 8.75548 5.6176 9.26153 5.41156 9.81853C5.20552 10.3755 5.10151 10.9724 5.10558 11.5743V45.8299C5.10151 46.4319 5.20552 47.0287 5.41156 47.5857C5.6176 48.1427 5.92155 48.6488 6.30573 49.0744C6.68992 49.5001 7.14666 49.8368 7.6494 50.0651C8.15213 50.2934 8.69082 50.4086 9.23412 50.4041H50.7642C51.8591 50.4041 52.9092 49.9222 53.6835 49.0644C54.4577 48.2065 54.8927 47.0431 54.8927 45.8299V11.5743C54.8927 10.3612 54.4577 9.1977 53.6835 8.33988C52.9092 7.48205 51.8591 7.00013 50.7642 7.00013V7.00013ZM53.9752 45.8299C53.9752 46.7735 53.6369 47.6784 53.0347 48.3456C52.4325 49.0128 51.6158 49.3876 50.7642 49.3876H9.23412C8.71177 49.3933 8.19651 49.2535 7.73562 48.981C7.54909 48.8811 7.37446 48.7559 7.21573 48.6083C6.83852 48.277 6.53488 47.8542 6.32813 47.3726C6.12138 46.891 6.01701 46.3632 6.02304 45.8299V11.5743C6.02304 10.6308 6.36135 9.72584 6.96354 9.05864C7.56574 8.39144 8.38249 8.01661 9.23412 8.01661H50.7642C51.6158 8.01661 52.4325 8.39144 53.0347 9.05864C53.6369 9.72584 53.9752 10.6308 53.9752 11.5743V45.8299Z" fill="#4239AB"/>
<path d="M69.4452 26.3914V30.8402C69.4452 31.4333 68.7129 31.7299 68.2468 31.3221L65.8502 29.246C65.7154 29.1129 65.6319 28.927 65.6172 28.727V24.2782C65.6172 23.6851 66.3495 23.3885 66.8155 23.7592L69.2122 25.8724C69.2901 25.9266 69.3532 26.0038 69.3943 26.0954C69.4354 26.1869 69.453 26.2894 69.4452 26.3914Z" fill="#4239AB"/>
<path d="M41.4247 34.0241C41.2881 31.8936 40.5922 29.8368 39.4071 28.0611C38.2221 26.2854 36.5897 24.8535 34.6747 23.9099C32.7597 22.9664 30.6298 22.5444 28.4997 22.6866C26.3696 22.8289 24.3146 23.5303 22.5421 24.7201C21.2216 25.604 20.0825 26.7327 19.1865 28.0451C17.8597 30.0501 17.1548 32.4023 17.1602 34.8066C17.1656 37.2108 17.8812 39.5599 19.217 41.5588C19.9755 42.7176 20.9365 43.7303 22.054 44.5483C22.3446 44.7725 22.6504 44.9764 22.9692 45.1584C24.1796 45.9253 25.5257 46.4534 26.9348 46.7142C27.6898 46.8556 28.4548 46.9372 29.2227 46.9582H29.3142L30.5344 46.8972C32.3332 46.7131 34.0657 46.1182 35.5982 45.1584C35.7633 45.0897 35.9175 44.9972 36.0558 44.8839L36.5134 44.5483L36.9709 44.2127L37.459 43.7857L38.0081 43.2671L38.1606 43.0841C39.7214 41.4429 40.7799 39.3894 41.2111 37.1661C41.3273 36.5621 41.3987 35.9503 41.4247 35.3358C41.4552 34.8991 41.4552 34.4608 41.4247 34.0241V34.0241Z" fill="#C8C5E9"/>
<path d="M36.3295 30.3025C35.7176 29.3705 34.924 28.5714 33.9963 27.953C33.0687 27.3345 32.0258 26.9093 30.9302 26.7029C30.3883 26.5917 29.8359 26.5406 29.2829 26.5504C27.1765 26.538 25.1414 27.3127 23.5766 28.7228C22.0117 30.1329 21.03 32.0766 20.8238 34.173C20.6176 36.2693 21.2018 38.367 22.4619 40.055C23.722 41.7429 25.5672 42.8994 27.6356 43.2976C28.1879 43.4074 28.7503 43.4585 29.3134 43.4501C30.9775 43.4493 32.6031 42.9499 33.9807 42.0164C35.8451 40.7742 37.1399 38.8424 37.5803 36.6457C38.0208 34.4491 37.5709 32.1675 36.3295 30.3025V30.3025Z" stroke="#A49FDA" stroke-width="2" stroke-miterlimit="10" stroke-dasharray="5.12 5.12"/>
<path d="M32.5475 37.0746C32.5475 38.2338 31.0222 39.1794 29.1614 39.1794C27.3006 39.1794 25.7754 38.2338 25.7754 37.0746C25.7754 35.9154 26.4465 35.6409 27.4532 35.2748C27.5353 34.8786 27.7485 34.5216 28.0585 34.2615C28.3684 34.0013 28.757 33.8532 29.1614 33.8411C29.5691 33.8419 29.9635 33.9859 30.2757 34.248C30.588 34.51 30.7982 34.8735 30.8697 35.2748C31.8764 35.6409 32.5475 36.312 32.5475 37.0746Z" fill="#A49FDA"/>
<path d="M26.0509 35.3358C25.9073 35.4105 25.75 35.455 25.5886 35.4668C25.4272 35.4785 25.2651 35.4572 25.1122 35.4042C24.9593 35.3511 24.8188 35.2674 24.6994 35.1582C24.58 35.049 24.4841 34.9166 24.4176 34.7691C24.3511 34.6215 24.3154 34.462 24.3127 34.3002C24.31 34.1384 24.3403 33.9777 24.4018 33.828C24.4633 33.6783 24.5547 33.5428 24.6704 33.4296C24.7861 33.3165 24.9237 33.2281 25.0747 33.17C25.2183 33.0953 25.3756 33.0508 25.537 33.039C25.6984 33.0273 25.8605 33.0486 26.0134 33.1016C26.1663 33.1547 26.3068 33.2384 26.4262 33.3476C26.5456 33.4568 26.6415 33.5892 26.708 33.7367C26.7745 33.8843 26.8102 34.0438 26.8129 34.2056C26.8157 34.3675 26.7853 34.5281 26.7238 34.6778C26.6623 34.8275 26.5709 34.963 26.4552 35.0762C26.3395 35.1893 26.2019 35.2777 26.0509 35.3358V35.3358Z" fill="#A49FDA"/>
<path d="M33.4337 35.3358C33.2901 35.4104 33.1328 35.455 32.9714 35.4667C32.81 35.4785 32.6479 35.4572 32.495 35.4041C32.3421 35.3511 32.2016 35.2674 32.0822 35.1582C31.9628 35.049 31.8669 34.9166 31.8004 34.769C31.7339 34.6215 31.6982 34.4619 31.6955 34.3001C31.6928 34.1383 31.7231 33.9777 31.7846 33.828C31.8461 33.6783 31.9375 33.5427 32.0532 33.4296C32.1689 33.3164 32.3065 33.2281 32.4575 33.1699C32.749 33.034 33.0824 33.0186 33.3852 33.1271C33.6879 33.2357 33.9356 33.4593 34.0743 33.7495C34.1968 34.0451 34.1984 34.377 34.0785 34.6737C33.9587 34.9704 33.7271 35.2082 33.4337 35.3358Z" fill="#A49FDA"/>
<path d="M31.1752 33.292C30.9587 33.3796 30.7211 33.4016 30.4922 33.3552C30.2633 33.3087 30.0531 33.1959 29.8879 33.0308C29.7226 32.8657 29.6096 32.6556 29.563 32.4267C29.5164 32.1978 29.5382 31.9603 29.6256 31.7437C29.7131 31.5271 29.8624 31.3411 30.0549 31.2088C30.2474 31.0765 30.4746 31.0037 30.7081 30.9997C30.9417 30.9956 31.1712 31.0604 31.3682 31.186C31.5652 31.3115 31.7208 31.4923 31.8158 31.7057C31.9383 32.0013 31.9398 32.3332 31.82 32.6299C31.7002 32.9266 31.4686 33.1644 31.1752 33.292Z" fill="#A49FDA"/>
<path d="M28.0951 33.292C27.8786 33.3796 27.641 33.4016 27.4121 33.3552C27.1832 33.3087 26.973 33.1959 26.8078 33.0308C26.6425 32.8657 26.5296 32.6556 26.4829 32.4267C26.4363 32.1978 26.4581 31.9603 26.5455 31.7437C26.633 31.5271 26.7823 31.3411 26.9748 31.2088C27.1673 31.0765 27.3945 31.0037 27.628 30.9997C27.8616 30.9956 28.0912 31.0604 28.2881 31.186C28.4851 31.3115 28.6408 31.4923 28.7357 31.7057C28.8582 32.0013 28.8598 32.3332 28.7399 32.6299C28.6201 32.9266 28.3885 33.1644 28.0951 33.292Z" fill="#A49FDA"/>
<path d="M41.4247 34.0241C41.2881 31.8936 40.5922 29.8368 39.4071 28.0611C38.2221 26.2854 36.5897 24.8535 34.6747 23.9099C32.7597 22.9664 30.6298 22.5444 28.4997 22.6866C26.3696 22.8289 24.3146 23.5303 22.5421 24.7201C21.2216 25.604 20.0825 26.7327 19.1865 28.0451C17.8597 30.0501 17.1548 32.4023 17.1602 34.8066C17.1656 37.2108 17.8812 39.5599 19.217 41.5588C19.9755 42.7176 20.9365 43.7303 22.054 44.5483C22.3446 44.7725 22.6504 44.9764 22.9692 45.1584C24.1796 45.9253 25.5257 46.4534 26.9348 46.7142C27.6898 46.8556 28.4548 46.9372 29.2227 46.9582H29.3142L30.5344 46.8972C32.3332 46.7131 34.0657 46.1182 35.5982 45.1584C35.7633 45.0897 35.9175 44.9972 36.0558 44.8839L36.5134 44.5483L36.9709 44.2127L37.459 43.7857L38.0081 43.2671L38.1606 43.0841C39.7214 41.4429 40.7799 39.3894 41.2111 37.1661C41.3273 36.5621 41.3987 35.9503 41.4247 35.3358C41.4552 34.8991 41.4552 34.4608 41.4247 34.0241V34.0241Z" stroke="#A49FDA" stroke-width="3" stroke-miterlimit="10"/>
</svg>
