<svg width="512" height="512" viewBox="0 0 512 512" fill="none" xmlns="http://www.w3.org/2000/svg">
<rect width="512" height="512" rx="256" fill="url(#paint0_linear_158_31)"/>
<path d="M158.495 202.755C153.802 201.282 150.959 189.186 165.926 184.759C180.893 180.332 193.373 197.665 195.172 201.785C196.972 205.905 193.403 209.159 191.444 208.766C188.275 208.128 183.779 204.419 174.733 202.841C165.686 201.263 163.684 204.388 158.495 202.755Z" fill="white"/>
<path d="M294.519 202.436C299.303 201.3 303 189.437 288.39 183.954C273.773 178.478 260.089 194.877 258.007 198.856C255.925 202.835 259.242 206.341 261.231 206.089C264.437 205.677 269.185 202.3 278.324 201.367C287.462 200.434 289.237 203.694 294.525 202.436H294.519Z" fill="white"/>
<path d="M201.848 147.81C201.848 147.81 155.768 99.458 133.591 111.492C111.413 123.526 125.527 198.544 125.527 198.544C145.444 149.24 201.848 147.81 201.848 147.81Z" fill="white"/>
<path d="M213.983 277.797C204.789 277.429 189.484 278.036 189.847 288.308C190.209 298.58 200.84 306.231 213.031 306.71C225.222 307.189 241.589 295.719 241.356 288.548C241.123 281.376 225.818 278.276 213.989 277.797H213.983Z" fill="white"/>
<path d="M88.8657 361.809C88.8657 377.674 113.831 389.144 178.305 378.626C178.305 378.626 130.929 358.555 120.415 331.791C120.415 331.791 88.8657 345.943 88.8657 361.803V361.809Z" fill="white"/>
<path d="M186.058 221.366C160.356 203.081 136.146 230.625 129.322 256.597C123.242 270.583 106.783 268.477 102.484 268.477C97.8469 294.94 120.411 331.798 120.411 331.798C114.626 305.311 141.133 295.131 153.041 291.938C153.139 291.919 153.232 291.907 153.33 291.889C155.142 291.539 156.88 291.14 158.556 290.704C158.569 290.704 158.581 290.704 158.581 290.704C207.204 278.025 199.588 231.005 186.052 221.384L186.058 221.366Z" fill="white"/>
<path d="M339.019 246.318C324.132 219.855 294.099 198.863 262.538 218.062C242.873 230.023 231.707 287.916 300.487 304.653C300.487 304.653 367.547 321.194 332.497 336.04C304.706 343.248 259.037 356.13 259.037 380.542C259.037 409.215 315.441 402.523 356.553 399.656C397.665 396.788 425.388 353.778 417.736 332.755C413.67 321.575 402.21 319.855 387.679 321.986L420.051 267.777C420.051 267.777 360.207 276.489 339.019 246.324V246.318Z" fill="white"/>
<path d="M410.156 216.945C410.156 216.945 424.92 170.669 423.231 141.068C422.716 131.993 414.799 125.104 405.728 125.737C388.888 126.903 359.942 133.172 334.099 159.795C334.099 159.795 345.375 199.704 410.15 216.945H410.156Z" fill="white"/>
<path d="M316.165 266.531C313.248 266.335 310.81 264.075 310.484 261.067C310.484 261.061 309.981 257.039 307.745 253.116C305.117 248.492 301.34 246.079 296.205 245.729C282.712 244.814 279.304 256.554 278.96 257.898C278.167 261.196 274.857 263.21 271.565 262.417C268.267 261.632 266.234 258.291 267.027 254.994C268.943 246.982 277.682 232.172 297.034 233.48C315.207 234.708 321.766 251.2 322.694 259.747C323.062 263.117 320.624 266.144 317.252 266.513C316.884 266.55 316.521 266.562 316.165 266.537V266.531Z" fill="#E52C00"/>
<path d="M152.681 256.59C152.681 256.59 156.071 240.46 166.776 239.822C178.476 239.122 180.969 256.67 180.969 256.67" stroke="#E52C00" stroke-width="8.43309" stroke-linecap="round" stroke-linejoin="round"/>
<defs>
<linearGradient id="paint0_linear_158_31" x1="512" y1="4.76887e-05" x2="-1.31224" y2="510.681" gradientUnits="userSpaceOnUse">
<stop offset="0.192708" stop-color="#FC4B00"/>
<stop offset="1" stop-color="#D70C00"/>
</linearGradient>
</defs>
</svg>
