<svg width="25" height="24" viewBox="0 0 25 24" fill="none" xmlns="http://www.w3.org/2000/svg">
<g clip-path="url(#clip0_270_25359)">
<ellipse cx="12.9218" cy="12" rx="11.998" ry="12" fill="url(#paint0_radial_270_25359)"/>
<path d="M24.4198 12C24.4198 18.3514 19.2719 23.5 12.9218 23.5C6.57174 23.5 1.42383 18.3514 1.42383 12C1.42383 5.64865 6.57174 0.5 12.9218 0.5C19.2719 0.5 24.4198 5.64865 24.4198 12Z" stroke="white" stroke-opacity="0.2"/>
<path d="M5.91625 18.753L5.86721 18.687C5.48993 18.18 5.24092 17.5769 5.12774 16.8965C5.00135 16.1369 5.00135 15.3434 5.12774 14.5367C5.24645 13.7798 5.4653 13.042 5.77855 12.3427L5.74836 12.3013V12.2937C5.31638 11.5681 4.99192 10.4127 4.88062 9.20264C4.83723 8.74462 4.73914 7.21792 5.2579 6.824C5.4239 6.69771 5.67668 6.63551 6.02755 6.63551C7.33294 6.63551 9.7381 7.52703 10.3512 7.76452C10.7867 7.59122 11.2395 7.46485 11.7018 7.38756C12.0385 7.33141 12.3792 7.30242 12.7205 7.30085C12.9016 7.15007 13.5883 6.57708 14.3768 6.01352C15.6237 5.11824 16.5329 4.66211 17.0762 4.66211C17.16 4.66237 17.2433 4.67507 17.3233 4.69981C17.9402 4.90714 18.3401 6.38295 18.4457 6.82965C18.7212 7.96996 18.7909 9.12724 18.6381 9.94902C19.8643 11.2024 20.6792 12.7461 20.9358 14.303C21.0905 15.2303 20.9622 16.0898 20.5566 16.8588C20.1869 17.5618 19.5851 18.1894 18.7683 18.7266L18.7268 18.753H5.91625Z" fill="#5959FF"/>
<path d="M17.076 4.82799C17.1425 4.82612 17.2089 4.83568 17.2722 4.85626C18.0267 5.10883 18.8303 8.25647 18.4606 10.0037C19.649 11.1987 20.5055 12.7141 20.7733 14.3312C21.0808 16.1897 20.198 17.592 18.6757 18.5909H5.99715C5.64628 18.1178 5.40105 17.5486 5.28975 16.8701C5.03886 15.3528 5.31427 13.7526 5.97074 12.3126C5.93894 12.2824 5.91048 12.249 5.88585 12.2127C4.97284 10.6747 4.72006 7.43658 5.352 6.95595C5.49726 6.84475 5.73117 6.79951 6.02356 6.79951C7.34216 6.79951 9.82089 7.73438 10.3472 7.93983C11.1112 7.62277 11.9307 7.46067 12.758 7.46297H12.7769C12.7769 7.46297 15.8517 4.82611 17.0741 4.82611L17.076 4.82799ZM17.0741 4.50003C16.4893 4.50003 15.5744 4.9505 14.2766 5.87972C13.5277 6.41501 12.8882 6.94276 12.6562 7.13689C11.865 7.14689 11.0822 7.29949 10.3453 7.58736C10.002 7.45543 9.33042 7.20852 8.57775 6.97857C7.4742 6.64307 6.61589 6.47155 6.02356 6.47155C5.63496 6.47155 5.35012 6.54506 5.15393 6.69396C4.92568 6.86925 4.78231 7.20286 4.7144 7.72119C4.66158 8.13773 4.65969 8.65417 4.71251 9.21773C4.8257 10.4391 5.15393 11.6115 5.59158 12.3597C5.29307 13.048 5.08264 13.7712 4.96529 14.5122C4.83701 15.3359 4.83701 16.1482 4.96529 16.9248C5.08225 17.6297 5.34068 18.2573 5.73494 18.7851L5.83303 18.917H18.7756L18.8568 18.8623C19.6981 18.312 20.3187 17.6617 20.7017 16.9361C21.1242 16.135 21.2563 15.2397 21.0978 14.2785C20.962 13.451 20.6752 12.6349 20.2527 11.8527C19.8631 11.1389 19.379 10.4808 18.8134 9.89627C18.9511 9.05941 18.8756 7.91532 18.6059 6.79197C18.4738 6.24349 18.3059 5.75344 18.1211 5.37647C17.8909 4.90715 17.6476 4.63574 17.3759 4.54527C17.279 4.51447 17.1777 4.4992 17.076 4.50003H17.0741Z" fill="black"/>
<path d="M14.2613 17.1736C14.0959 17.1732 13.9339 17.1269 13.7934 17.0397C13.6679 16.9628 13.5632 16.8562 13.4886 16.7293C13.4139 16.6025 13.3716 16.4592 13.3652 16.3122C13.3675 16.2794 13.3818 16.2485 13.4054 16.2255C13.429 16.2025 13.4602 16.189 13.4932 16.1876C13.5261 16.1862 13.5584 16.197 13.5838 16.2179C13.6093 16.2388 13.6262 16.2684 13.6312 16.3009C13.6357 16.4045 13.6655 16.5054 13.7181 16.5948C13.7708 16.6842 13.8446 16.7593 13.933 16.8136C14.0039 16.8573 14.0827 16.8865 14.165 16.8995C14.2473 16.9124 14.3313 16.9089 14.4122 16.889C14.4931 16.8701 14.5693 16.8352 14.6364 16.7863C14.7035 16.7374 14.76 16.6755 14.8027 16.6043C14.8464 16.5338 14.8758 16.4552 14.889 16.3733C14.9023 16.2913 14.8992 16.2075 14.8799 16.1268C14.8606 16.046 14.8255 15.9698 14.7767 15.9027C14.7278 15.8355 14.6661 15.7787 14.5952 15.7354C14.5801 15.7265 14.5669 15.7147 14.5564 15.7006C14.5459 15.6866 14.5383 15.6706 14.5341 15.6535C14.5299 15.6365 14.5291 15.6188 14.5318 15.6015C14.5346 15.5842 14.5407 15.5676 14.5499 15.5526C14.5592 15.5376 14.5713 15.5246 14.5856 15.5143C14.5999 15.504 14.6161 15.4966 14.6333 15.4926C14.6505 15.4885 14.6683 15.4879 14.6857 15.4908C14.7031 15.4937 14.7198 15.4999 14.7348 15.5093C14.8862 15.6023 15.0066 15.7381 15.0809 15.8994C15.1552 16.0608 15.1799 16.2405 15.1521 16.4159C15.1242 16.5913 15.045 16.7546 14.9244 16.8851C14.8038 17.0155 14.6472 17.1074 14.4744 17.1491C14.4044 17.1646 14.333 17.1729 14.2613 17.1736Z" fill="black"/>
<path d="M12.7434 17.3998C12.5819 17.4003 12.4234 17.3566 12.285 17.2735C12.1706 17.2062 12.0726 17.1142 11.9981 17.0044C11.9236 16.8946 11.8744 16.7696 11.8542 16.6384C11.834 16.5073 11.8432 16.3733 11.8812 16.2461C11.9191 16.119 11.9849 16.0019 12.0737 15.9032C12.0854 15.8902 12.0995 15.8797 12.1152 15.8721C12.1309 15.8646 12.148 15.8602 12.1654 15.8592C12.1829 15.8582 12.2003 15.8607 12.2168 15.8665C12.2332 15.8723 12.2484 15.8812 12.2614 15.8929C12.2744 15.9045 12.285 15.9186 12.2926 15.9343C12.3001 15.95 12.3045 15.9671 12.3055 15.9845C12.3064 16.0019 12.304 16.0193 12.2982 16.0358C12.2924 16.0523 12.2834 16.0674 12.2718 16.0804C12.2031 16.1578 12.1543 16.2508 12.1297 16.3513C12.105 16.4518 12.1053 16.5568 12.1303 16.6572C12.1613 16.7783 12.2276 16.8876 12.3207 16.9712C12.4138 17.0548 12.5296 17.109 12.6535 17.127C12.7773 17.1449 12.9038 17.1258 13.0168 17.072C13.1298 17.0183 13.2244 16.9323 13.2886 16.8249C13.3315 16.7538 13.3596 16.6747 13.3713 16.5924C13.383 16.5102 13.3779 16.4264 13.3565 16.3462C13.3484 16.312 13.3539 16.2759 13.3718 16.2457C13.3898 16.2155 13.4188 16.1934 13.4527 16.1841C13.4697 16.1796 13.4874 16.1785 13.5048 16.1809C13.5222 16.1833 13.5389 16.1891 13.554 16.1981C13.5691 16.207 13.5823 16.2189 13.5927 16.233C13.6032 16.2471 13.6107 16.2632 13.6149 16.2802C13.6447 16.3944 13.6513 16.5134 13.6345 16.6303C13.6176 16.7471 13.5776 16.8594 13.5168 16.9606C13.4381 17.0954 13.325 17.207 13.1892 17.2841C13.0534 17.3613 12.8996 17.4011 12.7434 17.3998Z" fill="black"/>
<path d="M15.2238 14.4858C14.9494 14.4843 14.6845 14.385 14.477 14.2056C14.2695 14.0262 14.1329 13.7786 14.092 13.5075L13.9807 12.7593C13.9772 12.7381 13.9779 12.7164 13.9829 12.6955C13.9879 12.6747 13.9969 12.655 14.0095 12.6376C14.0222 12.6202 14.0381 12.6056 14.0565 12.5944C14.0749 12.5833 14.0952 12.5759 14.1165 12.5727C14.1595 12.5662 14.2034 12.577 14.2384 12.6028C14.2734 12.6286 14.2967 12.6673 14.3032 12.7103L14.4145 13.4604C14.4524 13.6703 14.5706 13.8572 14.7441 13.9814C14.9176 14.1056 15.1328 14.1574 15.3438 14.1257C15.5549 14.0941 15.7453 13.9815 15.8747 13.8119C16.0041 13.6423 16.0623 13.429 16.0368 13.2173L15.9256 12.469C15.9223 12.4478 15.9233 12.4262 15.9284 12.4055C15.9336 12.3847 15.9427 12.3651 15.9554 12.3479C15.9681 12.3306 15.9841 12.3161 16.0025 12.305C16.0208 12.2939 16.0411 12.2866 16.0623 12.2833C16.0835 12.2801 16.1051 12.2811 16.1259 12.2862C16.1467 12.2914 16.1663 12.3005 16.1835 12.3132C16.2008 12.3259 16.2154 12.3419 16.2265 12.3602C16.2375 12.3785 16.2449 12.3988 16.2481 12.42L16.3613 13.1683C16.4062 13.4692 16.3297 13.7756 16.1486 14.0201C15.9674 14.2647 15.6966 14.4274 15.3955 14.4726C15.3386 14.4807 15.2813 14.4851 15.2238 14.4858Z" fill="black"/>
<path d="M10.6122 7.83801C10.6122 7.83801 11.1951 8.14712 11.1593 8.87655C11.1235 9.63801 10.6217 9.58147 10.716 10.424C10.8103 11.2665 13.0325 12.8705 11.9497 15.317C10.8839 17.7295 6.07356 17.0962 5.20959 16.1482C5.00208 13.5961 6.63948 11.1006 6.63948 11.1006C6.63948 11.1006 8.63529 8.30356 10.6122 7.83801Z" fill="#6678FF"/>
<path d="M10.8491 15.0059C10.5772 15.0059 10.3142 14.9091 10.1072 14.733C9.90015 14.5569 9.7626 14.3129 9.71915 14.0447L9.60597 13.2964C9.6022 13.2749 9.60278 13.2528 9.60767 13.2315C9.61256 13.2102 9.62166 13.1901 9.63443 13.1724C9.64721 13.1547 9.6634 13.1397 9.68206 13.1283C9.70073 13.1169 9.72148 13.1093 9.7431 13.1061C9.76473 13.1028 9.78679 13.1039 9.80798 13.1092C9.82918 13.1146 9.84909 13.1242 9.86654 13.1373C9.884 13.1505 9.89864 13.167 9.90961 13.1859C9.92058 13.2048 9.92766 13.2257 9.93043 13.2474L10.0417 13.9957C10.0803 14.2047 10.1986 14.3905 10.3717 14.514C10.5448 14.6375 10.7591 14.6891 10.9695 14.6578C11.1798 14.6265 11.3698 14.5148 11.4994 14.3463C11.629 14.1778 11.688 13.9656 11.664 13.7544L11.5527 13.0062C11.5493 12.9851 11.55 12.9635 11.555 12.9428C11.56 12.922 11.5691 12.9024 11.5817 12.8852C11.5944 12.868 11.6103 12.8535 11.6287 12.8426C11.647 12.8316 11.6674 12.8244 11.6886 12.8214C11.7099 12.818 11.7317 12.8188 11.7527 12.8239C11.7737 12.8289 11.7935 12.8382 11.8109 12.851C11.8283 12.8638 11.843 12.8799 11.854 12.8985C11.8651 12.9171 11.8723 12.9376 11.8753 12.959L11.9885 13.7092C12.0282 14.005 11.9509 14.3045 11.773 14.5442C11.5951 14.7839 11.3307 14.9449 11.0359 14.9928C10.974 15.0018 10.9116 15.0062 10.8491 15.0059Z" fill="black"/>
<path d="M8.64189 9.21393C8.64189 9.21393 7.92129 8.21686 7.16107 7.69477C6.40085 7.17267 5.82172 6.92011 5.50292 7.07278C5.10112 7.2688 5.07848 8.50901 5.31051 9.78126C5.54254 11.0535 5.90095 11.651 6.06318 11.9808C6.22541 12.3107 8.64189 9.21393 8.64189 9.21393Z" fill="#6678FF"/>
<path opacity="0.2" d="M16.4924 8.31674C16.3467 8.80856 16.0148 9.22421 15.5672 9.47529C15.1195 9.72638 14.5915 9.79309 14.0955 9.66126C13.5994 9.52942 13.1743 9.20943 12.9107 8.76933C12.6471 8.32923 12.5656 7.80374 12.6838 7.3046C12.6838 7.3046 13.4666 6.57329 16.2094 4.99193C18.9372 3.48973 18.724 9.80764 18.724 9.80764L16.4924 8.31674Z" fill="black"/>
<path d="M15.0625 7.7664C15.0625 7.7664 15.3134 6.87676 15.8586 6.13226C16.4037 5.38776 16.8621 4.95425 17.2149 4.99383C17.6582 5.04472 18.0921 6.20765 18.2958 7.48367C18.4995 8.7597 18.3637 9.44388 18.3184 9.80765C18.0789 9.41184 15.0625 7.7664 15.0625 7.7664Z" fill="#6678FF"/>
<path d="M18.8511 18.917H5.77272L5.72179 18.8491C5.33697 18.3289 5.0823 17.7144 4.96723 17.0208C4.72577 15.5544 4.94082 13.9768 5.59352 12.4596C6.2198 11.0026 7.22903 9.69077 8.43632 8.76155C8.45367 8.74819 8.47347 8.73836 8.49461 8.73264C8.51575 8.72693 8.53781 8.72542 8.55953 8.72822C8.58125 8.73103 8.60221 8.73807 8.6212 8.74897C8.6402 8.75986 8.65686 8.77438 8.67024 8.79171C8.68362 8.80903 8.69345 8.82882 8.69917 8.84995C8.70489 8.87107 8.70639 8.89311 8.70359 8.91481C8.70079 8.93651 8.69374 8.95745 8.68283 8.97643C8.67193 8.99541 8.6574 9.01206 8.64006 9.02543C6.20848 10.897 4.8333 14.1634 5.29735 16.9662C5.39922 17.5768 5.61615 18.1197 5.9425 18.5815H18.7512C20.3716 17.5015 21.0545 16.1048 20.7772 14.4292C20.298 11.5398 17.8929 8.85768 14.9255 7.90773C14.8865 7.8917 14.855 7.86159 14.8372 7.82338C14.8194 7.78517 14.8166 7.74167 14.8295 7.70153C14.8423 7.66139 14.8698 7.62754 14.9065 7.60673C14.9432 7.58591 14.9863 7.57965 15.0274 7.58919C16.4969 8.0604 17.9061 8.98019 18.9983 10.1808C19.5373 10.771 19.9953 11.4302 20.3603 12.141C20.7224 12.8429 20.9743 13.5962 21.1073 14.3745C21.2639 15.3188 21.1318 16.1972 20.7187 16.9831C20.3414 17.6994 19.7264 18.3402 18.8927 18.8887L18.8511 18.917Z" fill="black"/>
<path d="M6.06917 19.2242C5.99246 19.2245 5.91646 19.2096 5.84552 19.1804C5.77459 19.1513 5.7101 19.1084 5.65578 19.0543C5.60145 19.0002 5.55835 18.9359 5.52893 18.8651C5.49952 18.7944 5.48438 18.7185 5.48438 18.6418C5.48406 18.5868 5.49233 18.5322 5.50891 18.4797C5.63907 18.033 5.93523 17.6693 6.36533 17.4337C6.75393 17.2169 7.25383 17.1019 7.80655 17.1019C8.35926 17.1019 8.85916 17.2169 9.24964 17.4318C9.67974 17.6711 9.97591 18.033 10.1061 18.4797C10.1486 18.6284 10.1304 18.7879 10.0554 18.9233C9.98047 19.0586 9.85486 19.1587 9.70615 19.2016C9.65339 19.2167 9.59879 19.2243 9.54392 19.2242H6.06917Z" fill="#5959FF"/>
<path d="M7.80557 17.2678C8.83366 17.2678 9.69763 17.6711 9.94852 18.5268C9.97879 18.6338 9.96542 18.7484 9.91133 18.8455C9.85723 18.9427 9.76683 19.0145 9.6599 19.0452C9.62195 19.0565 9.58255 19.0622 9.54294 19.0621H6.06819C5.95662 19.0621 5.84963 19.0178 5.77073 18.939C5.69184 18.8602 5.64752 18.7533 5.64752 18.6418C5.64763 18.6029 5.65334 18.5641 5.6645 18.5268C5.91351 17.6711 6.77748 17.2678 7.80557 17.2678ZM7.80557 16.9398C6.54168 16.9398 5.623 17.4977 5.34947 18.4345C5.29467 18.6249 5.31771 18.8293 5.41355 19.0028C5.50939 19.1763 5.6702 19.3047 5.86069 19.3599C5.92826 19.3787 5.99806 19.3882 6.06819 19.3882H9.54294C9.6412 19.3884 9.73854 19.3693 9.82939 19.3319C9.92024 19.2945 10.0028 19.2396 10.0724 19.1703C10.142 19.1009 10.1971 19.0186 10.2348 18.9279C10.2725 18.8372 10.2918 18.74 10.2918 18.6418C10.2921 18.5716 10.282 18.5017 10.2617 18.4345C9.99002 17.4977 9.07134 16.9398 7.80557 16.9398Z" fill="black"/>
<path d="M8.61523 18.5005C8.61523 18.5005 8.7303 18.7681 8.69069 18.9962L8.61523 18.5005Z" fill="#5959FF"/>
<path d="M8.69004 19.1601H8.66363C8.62092 19.1528 8.58286 19.1288 8.55777 19.0935C8.53268 19.0582 8.52258 19.0144 8.52969 18.9716C8.55422 18.8246 8.49008 18.6286 8.46367 18.5664C8.44873 18.5268 8.4497 18.483 8.46635 18.4441C8.48301 18.4052 8.51407 18.3742 8.55305 18.3577C8.59202 18.3411 8.63589 18.3403 8.67549 18.3553C8.71508 18.3703 8.74733 18.4 8.76549 18.4382C8.7787 18.4703 8.89754 18.7568 8.85227 19.0244C8.84559 19.0625 8.82565 19.0971 8.79596 19.1219C8.76627 19.1467 8.72876 19.1603 8.69004 19.1601Z" fill="black"/>
<path d="M7.2069 18.5005C7.2069 18.5005 7.03336 18.8416 7.08618 19.0622L7.2069 18.5005Z" fill="#5959FF"/>
<path d="M7.08705 19.2242C7.05038 19.2247 7.01465 19.2126 6.98582 19.19C6.95698 19.1674 6.93679 19.1355 6.92859 19.0998C6.86257 18.8303 7.04178 18.4665 7.06253 18.4269C7.08204 18.3885 7.11605 18.3593 7.15709 18.3459C7.19813 18.3324 7.24283 18.3358 7.28135 18.3553C7.31987 18.3748 7.34907 18.4088 7.36251 18.4498C7.37595 18.4908 7.37254 18.5355 7.35303 18.574C7.29267 18.6946 7.2191 18.9132 7.24551 19.0225C7.25084 19.0435 7.25193 19.0652 7.24872 19.0866C7.2455 19.1079 7.23806 19.1284 7.22681 19.1469C7.21557 19.1653 7.20075 19.1813 7.18323 19.194C7.1657 19.2066 7.14583 19.2156 7.12478 19.2205C7.11246 19.2236 7.09974 19.2248 7.08705 19.2242Z" fill="black"/>
<path d="M15.1102 11.7056C15.5438 11.6654 15.8737 11.4001 15.8471 11.113C15.8204 10.8258 15.4473 10.6257 15.0137 10.6659C14.58 10.7061 14.2501 10.9714 14.2768 11.2585C14.3034 11.5456 14.6766 11.7458 15.1102 11.7056Z" fill="#6678FF"/>
<path d="M10.4036 12.4086C10.8347 12.3346 11.1445 12.0433 11.0954 11.7578C11.0463 11.4723 10.6571 11.3009 10.2259 11.3749C9.79481 11.4488 9.48508 11.7402 9.53414 12.0257C9.5832 12.3111 9.97247 12.4826 10.4036 12.4086Z" fill="#5959FF"/>
<path opacity="0.2" d="M19.3252 10.8048C19.3252 10.8048 18.8838 11.5663 18.4631 11.8735C18.0424 12.1807 17.2633 12.2505 17.252 12.552C17.2407 12.8536 18.6027 13.4134 20.1344 12.0167L19.3252 10.8048Z" fill="black"/>
<path opacity="0.2" d="M20.2101 12.1298C20.2101 12.1298 19.6367 12.7989 19.167 13.0232C18.6972 13.2475 17.9182 13.174 17.8521 13.468C17.7861 13.762 19.0217 14.5612 20.7836 13.4699L20.2101 12.1298Z" fill="black"/>
<path d="M13.4081 15.0719C13.4034 15.0847 13.3954 15.0959 13.385 15.1046C13.3746 15.1133 13.362 15.119 13.3486 15.1213C13.3352 15.1236 13.3215 15.1224 13.3088 15.1177C13.296 15.113 13.2847 15.105 13.2761 15.0945C13.1384 14.9381 12.9007 14.8797 12.712 14.9626C12.4744 15.0663 12.3536 15.3584 12.4442 15.6185C12.5347 15.8786 13.2459 16.3875 13.4968 16.3084C13.7684 16.2707 14.291 15.5808 14.3174 15.317C14.3438 15.0531 14.1608 14.7949 13.908 14.7704C13.7081 14.7496 13.5006 14.8797 13.4081 15.0719Z" fill="black"/>
<path opacity="0.1" d="M18.5411 10.0282C18.5486 10.047 20.4633 14.2464 18.5335 16.8682C17.9318 17.6862 16.9546 18.2404 15.8926 18.6135H18.7561C20.2766 17.6146 21.1613 16.2142 20.8538 14.3557C20.5859 12.7386 19.7295 11.2213 18.5411 10.0282Z" fill="black"/>
<path d="M16.6454 19.2242C16.5688 19.2245 16.4929 19.2096 16.422 19.1804C16.3512 19.1512 16.2869 19.1083 16.2327 19.0542C16.1785 19.0001 16.1356 18.9358 16.1064 18.865C16.0772 18.7942 16.0623 18.7184 16.0625 18.6418C16.0625 18.587 16.0701 18.5324 16.0851 18.4797C16.2153 18.033 16.5115 17.6693 16.9416 17.4337C17.3302 17.2169 17.8301 17.1019 18.3847 17.1019C18.9393 17.1019 19.4373 17.2169 19.8259 17.4318C20.256 17.6711 20.5521 18.033 20.6823 18.4797C20.7037 18.5532 20.7103 18.6302 20.7019 18.7063C20.6934 18.7824 20.67 18.8561 20.6331 18.9231C20.5961 18.9902 20.5463 19.0493 20.4864 19.0971C20.4266 19.1448 20.3579 19.1804 20.2843 19.2016C20.2315 19.2167 20.1769 19.2243 20.122 19.2242H16.6454Z" fill="#5959FF"/>
<path d="M18.3851 17.2678C19.4132 17.2678 20.2772 17.6711 20.5262 18.5268C20.5414 18.5798 20.5461 18.6353 20.5398 18.69C20.5335 18.7448 20.5165 18.7978 20.4897 18.8459C20.4629 18.8941 20.4268 18.9365 20.3835 18.9707C20.3403 19.0049 20.2907 19.0302 20.2376 19.0452C20.2003 19.0564 20.1615 19.0622 20.1225 19.0621H16.6459C16.5345 19.0616 16.4277 19.0172 16.349 18.9385C16.2702 18.8598 16.2257 18.7531 16.2252 18.6418C16.2253 18.6029 16.231 18.5641 16.2422 18.5268C16.4912 17.6711 17.3552 17.2678 18.3832 17.2678H18.3851ZM18.3832 16.9398C17.1194 16.9398 16.2007 17.4977 15.9272 18.4345C15.8729 18.6249 15.8961 18.8291 15.9919 19.0024C16.0877 19.1758 16.2482 19.3043 16.4384 19.3599C16.5059 19.3787 16.5757 19.3882 16.6459 19.3882H20.1225C20.3206 19.3882 20.5106 19.3096 20.6507 19.1696C20.7908 19.0296 20.8695 18.8398 20.8695 18.6418C20.8695 18.5717 20.86 18.502 20.8412 18.4345C20.5677 17.4977 19.649 16.9398 18.3851 16.9398H18.3832Z" fill="black"/>
<path d="M19.1934 18.5005C19.1934 18.5005 19.3084 18.7681 19.2688 18.9962L19.1934 18.5005Z" fill="#5959FF"/>
<path d="M19.2682 19.1601H19.2399C19.1972 19.1528 19.1591 19.1288 19.134 19.0935C19.1089 19.0582 19.0988 19.0144 19.1059 18.9716C19.1323 18.8246 19.0682 18.6286 19.0418 18.5664C19.0269 18.5268 19.0278 18.483 19.0445 18.4441C19.0611 18.4052 19.0922 18.3742 19.1312 18.3577C19.1701 18.3411 19.214 18.3403 19.2536 18.3553C19.2932 18.3703 19.3255 18.4 19.3436 18.4382C19.3568 18.4703 19.4757 18.7568 19.4304 19.0263C19.423 19.0639 19.4028 19.0978 19.3732 19.1222C19.3436 19.1466 19.3065 19.16 19.2682 19.1601Z" fill="black"/>
<path d="M17.785 18.5004C17.785 18.5004 17.6115 18.8415 17.6643 19.062L17.785 18.5004Z" fill="#5959FF"/>
<path d="M17.6652 19.2242C17.6285 19.2247 17.5928 19.2126 17.5639 19.19C17.5351 19.1673 17.5149 19.1355 17.5067 19.0998C17.4407 18.8303 17.6199 18.4665 17.6407 18.4269C17.6503 18.4078 17.6635 18.3908 17.6798 18.3768C17.696 18.3629 17.7148 18.3522 17.7351 18.3456C17.7555 18.3389 17.7769 18.3364 17.7983 18.338C17.8196 18.3397 17.8404 18.3456 17.8595 18.3553C17.8788 18.3647 17.896 18.3779 17.9102 18.394C17.9243 18.4101 17.9351 18.4289 17.942 18.4492C17.9488 18.4696 17.9516 18.4911 17.95 18.5125C17.9485 18.5339 17.9427 18.5548 17.933 18.5739C17.8708 18.6946 17.7991 18.9132 17.8255 19.0225C17.8357 19.0647 17.8288 19.1093 17.8061 19.1464C17.7835 19.1835 17.7471 19.2101 17.7048 19.2204C17.6918 19.2235 17.6785 19.2248 17.6652 19.2242Z" fill="black"/>
</g>
<defs>
<radialGradient id="paint0_radial_270_25359" cx="0" cy="0" r="1" gradientUnits="userSpaceOnUse" gradientTransform="translate(12.9218 12) rotate(90) scale(12 11.998)">
<stop stop-color="#36ABBF"/>
<stop offset="0.557292" stop-color="#1A2FAB"/>
<stop offset="1" stop-color="#1C109E"/>
</radialGradient>
<clipPath id="clip0_270_25359">
<rect width="23.996" height="24" fill="white" transform="translate(0.923828)"/>
</clipPath>
</defs>
</svg>
