<svg width="66" height="66" viewBox="0 0 66 66" fill="none" xmlns="http://www.w3.org/2000/svg">
<path d="M57.5899 0.5H5.96811C4.45415 0.508147 3.00456 1.09917 1.93401 2.14478C0.863462 3.19038 0.258342 4.60619 0.25 6.08488L0.25 40.556C0.25 41.0835 0.408836 48.2197 0.408836 48.2197C0.404892 49.8295 0.948848 51.3949 1.95518 52.6699C2.96151 53.9448 4.37314 54.8569 5.96811 55.2628L45.5184 65.5018C46.1517 65.6606 46.8024 65.7439 47.4562 65.75C49.428 65.7337 51.3139 64.9593 52.7052 63.5945C54.0966 62.2298 54.8814 60.3846 54.8897 58.4586V48.2817H57.5899C59.6878 48.2817 61.6998 47.4678 63.1832 46.0189C64.6666 44.5701 65.5 42.605 65.5 40.556V8.22575C65.5 6.17675 64.6666 4.21168 63.1832 2.76282C61.6998 1.31396 59.6878 0.5 57.5899 0.5V0.5ZM53.3014 58.4586C53.3032 59.3363 53.0978 60.2026 52.7011 60.9901C52.3045 61.7777 51.7272 62.4653 51.0143 62.9996C50.3013 63.5338 49.4718 63.9004 48.5903 64.0706C47.7087 64.2409 46.7989 64.2104 45.9314 63.9815L6.38109 53.7735C5.12465 53.4512 4.01297 52.7313 3.21981 51.7265C2.42665 50.7217 1.99671 49.4885 1.9972 48.2197C1.9972 48.2197 1.9019 19.4886 1.83836 19.3645V10.5528L50.2517 23.1498C51.1764 23.6416 51.948 24.3683 52.4848 25.2531C53.0216 26.1378 53.3037 27.1478 53.3014 28.1762V58.4586ZM63.9116 40.556C63.9116 42.1935 63.2456 43.764 62.0601 44.9219C60.8745 46.0799 59.2666 46.7304 57.5899 46.7304H54.8897V28.1762C54.8937 26.5664 54.3497 25.0009 53.3434 23.726C52.3371 22.451 50.9254 21.5389 49.3305 21.133L46.8208 20.4815L44.4383 19.8609L14.3864 12.1041L11.9721 11.4836L9.78019 10.8941C9.40477 10.8019 9.0223 10.7396 8.63656 10.7079L3.6491 9.40478C2.92603 8.91752 2.38089 8.21776 2.09289 7.40718C1.80488 6.5966 1.78903 5.71744 2.04762 4.89745C2.30621 4.07747 2.82579 3.35939 3.53083 2.84755C4.23588 2.33572 5.08966 2.05681 5.96811 2.05136H57.5899C59.2666 2.05136 60.8745 2.70187 62.0601 3.85979C63.2456 5.01772 63.9116 6.5882 63.9116 8.22575V40.556Z" fill="#4040B7"/>
<path d="M63.9122 8.22578V40.556C63.9122 42.1936 63.2462 43.7641 62.0607 44.922C60.8751 46.0799 59.2672 46.7304 57.5905 46.7304H54.8903V28.1762C54.8943 26.5664 54.3503 25.0009 53.344 23.726C52.3377 22.4511 50.926 21.539 49.3311 21.1331L46.8214 20.4815H55.1127V19.8609H44.4389L14.387 12.1042H59.5601V11.4836H11.9727L9.78078 10.8941C9.40536 10.8019 9.0229 10.7397 8.63716 10.708L3.6497 9.40482C2.92663 8.91756 2.38149 8.21779 2.09348 7.40721C1.80548 6.59663 1.78962 5.71747 2.04822 4.89749C2.30681 4.0775 2.82638 3.35942 3.53143 2.84759C4.23647 2.33576 5.09026 2.05685 5.96871 2.05139H57.5905C59.2672 2.05139 60.8751 2.70191 62.0607 3.85983C63.2462 5.01775 63.9122 6.58823 63.9122 8.22578Z" fill="#5050E5"/>
<path d="M40.8481 36.1191C41.172 35.8613 41.5566 35.6865 41.9671 35.6107C42.3776 35.5348 42.801 35.5603 43.1989 35.6847L51.8078 38.0738C52.4179 38.2585 52.9448 38.6418 53.3009 39.1597V28.1761C53.3032 27.1477 53.0211 26.1378 52.4843 25.253C51.9475 24.3683 51.176 23.6416 50.2512 23.1497L1.83789 10.5527V19.3644C1.90143 19.4885 1.99673 48.2196 1.99673 48.2196C1.99624 49.4884 2.42617 50.7216 3.21933 51.7265C4.01249 52.7313 5.12418 53.4511 6.38061 53.7735L45.9309 63.9814C46.7984 64.2104 47.7083 64.2409 48.5898 64.0706C49.4714 63.9003 50.3008 63.5338 51.0138 62.9995C51.7267 62.4653 52.304 61.7776 52.7006 60.9901C53.0973 60.2025 53.3027 59.3363 53.3009 58.4586V48.7471C53.1335 48.983 52.93 49.1923 52.6973 49.3676C52.2278 49.7061 51.6607 49.8907 51.0772 49.8951C50.8306 49.8946 50.585 49.8634 50.3465 49.802L49.1711 49.4607V50.3605H48.5358V49.3056L41.7058 47.3819C41.1466 47.2264 40.6547 46.8968 40.3049 46.4431C39.9551 45.9894 39.7666 45.4366 39.768 44.8687V38.1979C39.7705 37.7933 39.8694 37.3948 40.0568 37.034C40.2443 36.6731 40.5152 36.3599 40.8481 36.1191V36.1191ZM49.1711 35.4675H48.5358V32.9853H49.1711V35.4675ZM49.0758 27.9589C49.1388 28.2129 49.1707 28.4733 49.1711 28.7346V30.5032H48.5358V28.7346C48.532 28.5264 48.5107 28.3189 48.4723 28.1141L49.0758 27.9589ZM45.0732 24.9183L46.5345 25.3216C46.898 25.419 47.2418 25.5764 47.551 25.787L47.2016 26.2835C46.9392 26.12 46.6485 26.0043 46.3439 25.9422L44.8826 25.5078L45.0732 24.9183ZM40.181 23.5841L42.6271 24.2357L42.4365 24.8562L39.9904 24.1736L40.181 23.5841ZM48.5358 52.8427H49.1711V55.3248H48.5358V52.8427ZM48.2817 57.6519L48.8535 57.9001C48.4728 58.7311 47.7787 59.3868 46.9157 59.7307L46.6615 59.1722C47.3836 58.8908 47.9648 58.3453 48.2817 57.6519V57.6519ZM41.96 58.5206L44.406 59.1722L44.2154 59.7617L41.7694 59.1101L41.96 58.5206ZM8.22311 14.9896L8.28665 15.6102C7.51825 15.6694 6.80219 16.0135 6.28531 16.572L5.8088 16.1686C6.42794 15.4864 7.29285 15.0641 8.22311 14.9896V14.9896ZM5.5229 45.9547H4.88755V43.4725H5.5229V45.9547ZM5.5229 40.9903H4.88755V38.5082H5.5229V40.9903ZM5.5229 36.026H4.88755V33.5438H5.5229V36.026ZM5.5229 31.0616H4.88755V28.5795H5.5229V31.0616ZM5.5229 26.0973H4.88755V23.6151H5.5229V26.0973ZM5.5229 21.133H4.88755V18.6508H5.5229V21.133ZM9.97031 50.3295L7.52423 49.6469C6.80661 49.4542 6.17166 49.0407 5.7135 48.4679L6.19001 48.0645C6.57458 48.5482 7.10976 48.8967 7.71484 49.0574L10.1609 49.74L9.97031 50.3295ZM10.828 15.486L13.2741 16.1376L13.0835 16.7271L10.6692 16.0756L10.828 15.486ZM14.8625 51.6636L12.4164 51.0121L12.607 50.3915L15.0531 51.0741L14.8625 51.6636ZM15.7202 16.8202L18.1663 17.5028L17.9757 18.0923L15.5296 17.4097L15.7202 16.8202ZM19.7546 53.0288L17.3086 52.3462L17.4992 51.7567L19.9452 52.4393L19.7546 53.0288ZM20.6124 18.1854L23.0584 18.837L22.8678 19.4265L20.4218 18.7749L20.6124 18.1854ZM24.6468 54.363L22.2007 53.7114L22.3913 53.0909L24.8374 53.7735L24.6468 54.363ZM25.5045 19.5196L27.9506 20.2022L27.76 20.7917L25.3139 20.1091L25.5045 19.5196ZM29.539 55.7282L27.0929 55.0456L27.2835 54.4561L29.7296 55.1387L29.539 55.7282ZM30.3967 20.8848L32.8428 21.5363L32.6522 22.1569L30.2061 21.4743L30.3967 20.8848ZM34.4311 57.0624L31.985 56.4108L32.1756 55.7902L34.6217 56.4728L34.4311 57.0624ZM35.2888 22.2189L37.7349 22.9015L37.5443 23.491L35.0982 22.8084L35.2888 22.2189ZM39.3233 58.4275L36.8772 57.745L37.0678 57.1554L39.5139 57.838L39.3233 58.4275Z" fill="#5959FF"/>
<path d="M59.5589 11.4836H10.002V12.1042H59.5589V11.4836Z" fill="#4040B7"/>
<path d="M5.52402 23.6152H4.88867V26.0974H5.52402V23.6152Z" fill="#4040B7"/>
<path d="M15.0527 51.0742L14.8621 51.6637L12.416 51.0121L12.6066 50.3916L15.0527 51.0742Z" fill="#4040B7"/>
<path d="M5.52402 33.5438H4.88867V36.026H5.52402V33.5438Z" fill="#4040B7"/>
<path d="M5.52402 28.5796H4.88867V31.0618H5.52402V28.5796Z" fill="#4040B7"/>
<path d="M13.2748 16.1377L13.0842 16.7582L10.6699 16.0756L10.8288 15.4861L13.2748 16.1377Z" fill="#4040B7"/>
<path d="M10.1623 49.74L9.97166 50.3296L7.52558 49.647C6.80795 49.4542 6.173 49.0408 5.71484 48.4679L6.19135 48.0646C6.57593 48.5483 7.11111 48.8968 7.71618 49.0574L10.1623 49.74Z" fill="#4040B7"/>
<path d="M5.52402 18.6509H4.88867V21.133H5.52402V18.6509Z" fill="#4040B7"/>
<path d="M49.1725 32.9854H48.5371V35.4675H49.1725V32.9854Z" fill="#4040B7"/>
<path d="M49.1715 28.7347V30.5032H48.5362V28.7347C48.5324 28.5265 48.5111 28.3189 48.4727 28.1141L49.0762 27.959C49.1391 28.213 49.1711 28.4733 49.1715 28.7347V28.7347Z" fill="#4040B7"/>
<path d="M47.5513 25.7871L47.2018 26.2835C46.9394 26.12 46.6488 26.0044 46.3441 25.9422L44.8828 25.5079L45.0734 24.9183L46.5347 25.3217C46.8983 25.419 47.2421 25.5765 47.5513 25.7871Z" fill="#4040B7"/>
<path d="M5.52402 43.4725H4.88867V45.9547H5.52402V43.4725Z" fill="#4040B7"/>
<path d="M5.52402 38.5082H4.88867V40.9903H5.52402V38.5082Z" fill="#4040B7"/>
<path d="M8.28644 15.6102C7.51805 15.6694 6.80198 16.0135 6.2851 16.572L5.80859 16.1687C6.42773 15.4865 7.29264 15.0641 8.22291 14.9896L8.28644 15.6102Z" fill="#4040B7"/>
<path d="M19.9453 52.4394L19.7547 53.0289L17.3086 52.3464L17.4992 51.7568L19.9453 52.4394Z" fill="#4040B7"/>
<path d="M42.6269 24.2357L42.4363 24.8562L39.9902 24.1736L40.1808 23.5841L42.6269 24.2357Z" fill="#4040B7"/>
<path d="M44.4062 59.1722L44.2156 59.7928L41.7695 59.1102L41.9601 58.4896L44.4062 59.1722Z" fill="#4040B7"/>
<path d="M18.166 17.5029L17.9754 18.0924L15.5293 17.4098L15.7199 16.8203L18.166 17.5029Z" fill="#4040B7"/>
<path d="M49.1725 52.8428H48.5371V55.3249H49.1725V52.8428Z" fill="#4040B7"/>
<path d="M49.1725 49.0574V50.3605H48.5371V48.9954C48.7229 49.0468 48.9161 49.0677 49.1089 49.0574H49.1725Z" fill="#4040B7"/>
<path d="M48.854 57.9002C48.4734 58.7312 47.7793 59.3869 46.9162 59.7308L46.6621 59.1723C47.3842 58.8909 47.9654 58.3454 48.2822 57.652L48.854 57.9002Z" fill="#4040B7"/>
<path d="M37.7363 22.9016L37.5457 23.4911L35.0996 22.8085L35.2902 22.219L37.7363 22.9016Z" fill="#4040B7"/>
<path d="M39.5136 57.8381L39.323 58.4276L36.877 57.745L37.0676 57.1555L39.5136 57.8381Z" fill="#4040B7"/>
<path d="M24.8379 53.7735L24.6473 54.3631L22.2012 53.7115L22.3918 53.0909L24.8379 53.7735Z" fill="#4040B7"/>
<path d="M23.0586 18.837L22.868 19.4265L20.4219 18.7749L20.6125 18.1854L23.0586 18.837Z" fill="#4040B7"/>
<path d="M27.9511 20.2022L27.7605 20.7918L25.3145 20.1092L25.5051 19.5197L27.9511 20.2022Z" fill="#4040B7"/>
<path d="M29.7304 55.1388L29.5398 55.7283L27.0938 55.0457L27.2844 54.4562L29.7304 55.1388Z" fill="#4040B7"/>
<path d="M32.8437 21.5363L32.6531 22.1569L30.207 21.4743L30.3976 20.8848L32.8437 21.5363Z" fill="#4040B7"/>
<path d="M34.623 56.4729L34.4324 57.0624L31.9863 56.4108L32.1769 55.7903L34.623 56.4729Z" fill="#4040B7"/>
<path d="M53.3004 39.1598C52.9444 38.6418 52.4175 38.2586 51.8074 38.0738L43.1985 35.6847C42.8006 35.5603 42.3772 35.5349 41.9667 35.6107C41.5561 35.6866 41.1715 35.8613 40.8477 36.1191C40.5148 36.36 40.2439 36.6732 40.0564 37.034C39.8689 37.3948 39.77 37.7933 39.7676 38.1979V44.8688C39.7661 45.4367 39.9546 45.9895 40.3044 46.4432C40.6542 46.8968 41.1462 47.2265 41.7054 47.382L48.5354 49.3056L49.1707 49.4608L50.3461 49.8021C50.5846 49.8634 50.8301 49.8947 51.0767 49.8951C51.6603 49.8908 52.2274 49.7062 52.6969 49.3677C52.9295 49.1924 53.1331 48.9831 53.3004 48.7471C53.5905 48.3135 53.745 47.8068 53.7452 47.2889V40.587C53.7483 40.0783 53.5932 39.5806 53.3004 39.1598V39.1598ZM53.1098 47.2889C53.1136 47.5949 53.0436 47.8976 52.9057 48.1724C52.7677 48.4473 52.5656 48.6866 52.3157 48.8713C52.0583 49.0551 51.7625 49.1811 51.4495 49.2401C51.1364 49.2991 50.8138 49.2897 50.5049 49.2126L41.896 46.7924C41.4653 46.6765 41.0857 46.4253 40.8158 46.0776C40.546 45.7299 40.4008 45.3051 40.4029 44.8688V38.1979C40.4054 37.8897 40.4813 37.5862 40.6247 37.3115C40.768 37.0369 40.9749 36.7986 41.2289 36.6156C41.5719 36.3497 41.9982 36.2072 42.436 36.2122C42.6288 36.2019 42.8221 36.2228 43.0079 36.2743L51.6485 38.6944C52.0708 38.8099 52.4424 39.0577 52.7065 39.3997C52.9705 39.7416 53.1122 40.1588 53.1098 40.587V47.2889Z" fill="#4040B7"/>
<path d="M51.6499 38.6943L43.0092 36.2742C42.8235 36.2228 42.6302 36.2018 42.4374 36.2122C41.9995 36.2072 41.5733 36.3496 41.2303 36.6155C40.9763 36.7985 40.7694 37.0368 40.6261 37.3115C40.4827 37.5861 40.4068 37.8896 40.4043 38.1979V44.8687C40.4022 45.305 40.5473 45.7299 40.8172 46.0776C41.0871 46.4253 41.4667 46.6765 41.8974 46.7924L50.5063 49.2125C50.8152 49.2897 51.1378 49.2991 51.4508 49.2401C51.7639 49.1811 52.0597 49.0551 52.317 48.8712C52.567 48.6866 52.7691 48.4472 52.9071 48.1724C53.045 47.8975 53.1149 47.5949 53.1112 47.2888V40.587C53.1136 40.1587 52.9718 39.7416 52.7078 39.3996C52.4438 39.0577 52.0722 38.8099 51.6499 38.6943V38.6943ZM44.5658 45.6754C43.2634 45.7375 42.1197 44.2792 41.9927 42.4176C41.8656 40.5559 42.8822 38.9425 44.1846 38.8805C45.4871 38.8184 46.6625 40.2767 46.7578 42.1383C46.8531 44 45.9001 45.6134 44.5658 45.6754Z" fill="#5959FF"/>
<path d="M44.5663 45.6755C43.2639 45.7376 42.1202 44.2793 41.9932 42.4177C41.8661 40.556 42.8826 38.9426 44.1851 38.8806C45.4876 38.8185 46.663 40.2768 46.7583 42.1384C46.8536 44 45.9005 45.6135 44.5663 45.6755Z" fill="#C8C5E9"/>
<path d="M55.1113 19.861V20.4815H43.7704C43.5734 20.3432 43.3601 20.2286 43.1351 20.1402L42.2773 19.861H55.1113Z" fill="#4040B7"/>
<path d="M26.5856 16.9753L25.9185 17.9372C25.0607 19.1783 24.1395 20.4194 23.2182 21.6604C21.9158 23.5221 20.5816 25.3837 19.2156 27.2143C17.1189 30.1308 15.0541 33.0474 12.9892 35.995C9.55831 40.8042 6.06391 45.5823 2.37891 50.2054C2.69684 51.0743 3.22793 51.8538 3.92572 52.4758C4.6235 53.0979 5.46671 53.5434 6.38158 53.7735L10.2254 54.7664L12.8939 51.1362L12.4174 51.0121L12.608 50.3915L13.2751 50.5777C16.706 45.7995 20.0733 40.9903 23.5677 36.2432C27.0621 31.496 30.8424 26.9661 34.305 22.1879C34.9616 21.2778 35.5969 20.378 36.2111 19.4885L26.5856 16.9753ZM9.97129 50.3295L7.52521 49.6469C6.80758 49.4542 6.17263 49.0407 5.71447 48.4679L6.19098 48.0645C6.57556 48.5482 7.11074 48.8967 7.71581 49.0574L10.1619 49.74L9.97129 50.3295ZM27.761 20.7917L25.3149 20.1091L25.5055 19.5196L27.9516 20.2022L27.761 20.7917ZM32.6531 22.1569L30.207 21.4743L30.3977 20.8848L32.8437 21.5363L32.6531 22.1569Z" fill="#6678FF"/>
<path d="M41.7073 20.9159C40.5954 22.6224 39.3882 24.2978 38.1811 25.9423C34.7502 30.5963 30.9699 35.0022 27.6344 39.7183C24.68 43.8759 21.7574 48.0026 18.7713 52.0981L19.9467 52.4394L19.7561 53.0289L18.3901 52.6566L15.7852 56.1937L26.5543 58.9861L28.5556 55.4491L27.0943 55.0457L27.2849 54.4562L28.8415 54.8906C34.4008 45.055 39.8648 35.1884 46.1864 25.8802L44.884 25.5079L45.0746 24.9184L46.5359 25.3217H46.5677L48.4419 22.6224L41.7073 20.9159ZM24.6482 54.3631L22.2021 53.7115L22.3928 53.091L24.8388 53.7736L24.6482 54.3631ZM42.4379 24.8563L39.9918 24.1737L40.1824 23.5842L42.6285 24.2358L42.4379 24.8563Z" fill="#6678FF"/>
</svg>
