<svg width="30" height="29" viewBox="0 0 30 29" fill="none" xmlns="http://www.w3.org/2000/svg">
<path d="M26.4763 0H3.53705C2.86429 0.00362099 2.22014 0.266297 1.74442 0.731011C1.2687 1.19573 0.999801 1.82497 0.996094 2.48217L0.996094 17.8027C0.996094 18.0371 1.06668 21.2087 1.06668 21.2087C1.06492 21.9242 1.30664 22.62 1.75382 23.1866C2.20101 23.7533 2.82829 24.1586 3.53705 24.339L21.112 28.8897C21.3935 28.9603 21.6826 28.9973 21.9731 29C22.8494 28.9928 23.6874 28.6486 24.3057 28.042C24.9239 27.4355 25.2727 26.6154 25.2764 25.7594V21.2363H26.4763C27.4085 21.2363 28.3026 20.8746 28.9618 20.2306C29.6209 19.5867 29.9913 18.7133 29.9913 17.8027V3.43367C29.9913 2.523 29.6209 1.64963 28.9618 1.0057C28.3026 0.36176 27.4085 0 26.4763 0V0ZM24.5706 25.7594C24.5714 26.1495 24.4801 26.5345 24.3038 26.8845C24.1276 27.2345 23.8711 27.5401 23.5542 27.7776C23.2374 28.015 22.8688 28.1779 22.4771 28.2536C22.0854 28.3293 21.681 28.3157 21.2955 28.214L3.72057 23.6771C3.16224 23.5339 2.66825 23.2139 2.31579 22.7673C1.96333 22.3207 1.77228 21.7727 1.7725 21.2087C1.7725 21.2087 1.73015 8.43937 1.70192 8.38421V4.4679L23.2154 10.0666C23.6263 10.2852 23.9691 10.6081 24.2077 11.0014C24.4462 11.3946 24.5716 11.8434 24.5706 12.3005V25.7594ZM29.2854 17.8027C29.2854 18.5305 28.9895 19.2285 28.4627 19.7431C27.9358 20.2577 27.2213 20.5468 26.4763 20.5468H25.2764V12.3005C25.2781 11.585 25.0364 10.8893 24.5892 10.3227C24.142 9.75602 23.5148 9.35063 22.806 9.17023L21.6908 8.88065L20.6321 8.60485L7.27791 5.15739L6.20506 4.8816L5.23103 4.61959C5.0642 4.57861 4.89425 4.55094 4.72284 4.53685L2.50655 3.95768C2.18524 3.74112 1.943 3.43011 1.81502 3.06986C1.68704 2.7096 1.67999 2.31886 1.7949 1.95442C1.90981 1.58999 2.1407 1.27084 2.454 1.04336C2.7673 0.815877 3.1467 0.691917 3.53705 0.689491H26.4763C27.2213 0.689491 27.9358 0.978609 28.4627 1.49324C28.9895 2.00787 29.2854 2.70587 29.2854 3.43367V17.8027Z" fill="#4040B7"/>
<path d="M29.2847 3.43363V17.8026C29.2847 18.5304 28.9888 19.2284 28.462 19.743C27.9351 20.2577 27.2206 20.5468 26.4756 20.5468H25.2757V12.3005C25.2774 11.585 25.0357 10.8893 24.5885 10.3226C24.1413 9.75598 23.5141 9.35059 22.8053 9.17019L21.6901 8.88061H25.3745V8.60481H20.6314L7.27721 5.15736H27.3508V4.88156H6.20436L5.23033 4.61955C5.0635 4.57858 4.89355 4.55091 4.72213 4.53681L2.50585 3.95764C2.18454 3.74108 1.9423 3.43008 1.81432 3.06982C1.68634 2.70956 1.67929 2.31882 1.7942 1.95439C1.90911 1.58995 2.14 1.2708 2.4533 1.04332C2.7666 0.815839 3.146 0.691879 3.53635 0.689453H26.4756C27.2206 0.689453 27.9351 0.978571 28.462 1.4932C28.9888 2.00784 29.2847 2.70583 29.2847 3.43363Z" fill="#5050E5"/>
<path d="M19.0362 15.8307C19.1801 15.7161 19.351 15.6385 19.5334 15.6048C19.7158 15.571 19.904 15.5823 20.0808 15.6377L23.9063 16.6995C24.1774 16.7816 24.4116 16.9519 24.5698 17.1821V12.3005C24.5708 11.8434 24.4455 11.3946 24.2069 11.0014C23.9684 10.6081 23.6256 10.2852 23.2146 10.0666L1.70117 4.4679V8.38421C1.7294 8.43936 1.77175 21.2087 1.77175 21.2087C1.77154 21.7726 1.96259 22.3207 2.31504 22.7673C2.6675 23.2139 3.1615 23.5339 3.71982 23.6771L21.2948 28.214C21.6803 28.3157 22.0846 28.3293 22.4763 28.2536C22.8681 28.1779 23.2367 28.015 23.5535 27.7776C23.8703 27.5401 24.1268 27.2345 24.3031 26.8845C24.4793 26.5345 24.5706 26.1495 24.5698 25.7594V21.4432C24.4954 21.548 24.405 21.641 24.3016 21.719C24.093 21.8694 23.841 21.9515 23.5817 21.9534C23.4721 21.9532 23.363 21.9393 23.257 21.912L22.7347 21.7603V22.1602H22.4523V21.6914L19.4173 20.8364C19.1688 20.7673 18.9502 20.6208 18.7948 20.4192C18.6393 20.2175 18.5556 19.9718 18.5562 19.7194V16.7546C18.5573 16.5748 18.6012 16.3977 18.6845 16.2373C18.7679 16.077 18.8882 15.9377 19.0362 15.8307ZM22.7347 15.5411H22.4523V14.4379H22.7347V15.5411ZM22.6923 12.204C22.7203 12.3169 22.7345 12.4326 22.7347 12.5487V13.3348H22.4523V12.5487C22.4507 12.4562 22.4412 12.364 22.4241 12.2729L22.6923 12.204ZM20.9137 10.8526L21.563 11.0319C21.7246 11.0751 21.8773 11.1451 22.0147 11.2387L21.8595 11.4593C21.7428 11.3867 21.6137 11.3353 21.4783 11.3076L20.829 11.1146L20.9137 10.8526ZM18.7397 10.2596L19.8267 10.5492L19.742 10.825L18.655 10.5216L18.7397 10.2596ZM22.4523 23.2634H22.7347V24.3666H22.4523V23.2634ZM22.3394 25.4008L22.5935 25.5112C22.4244 25.8805 22.1159 26.1719 21.7324 26.3248L21.6195 26.0766C21.9403 25.9515 22.1986 25.709 22.3394 25.4008ZM19.5302 25.787L20.6172 26.0766L20.5325 26.3386L19.4455 26.049L19.5302 25.787ZM4.53858 6.43984L4.56681 6.71564C4.22536 6.74196 3.90716 6.89491 3.67747 7.14312L3.46573 6.96385C3.74085 6.66065 4.1252 6.47293 4.53858 6.43984ZM3.33868 20.2021H3.05635V19.0989H3.33868V20.2021ZM3.33868 17.9957H3.05635V16.8925H3.33868V17.9957ZM3.33868 15.7893H3.05635V14.6862H3.33868V15.7893ZM3.33868 13.583H3.05635V12.4798H3.33868V13.583ZM3.33868 11.3766H3.05635V10.2734H3.33868V11.3766ZM3.33868 9.17023H3.05635V8.06704H3.33868V9.17023ZM5.31498 22.1465L4.22802 21.8431C3.90912 21.7574 3.62697 21.5737 3.42338 21.3191L3.63512 21.1398C3.80602 21.3548 4.04384 21.5097 4.31271 21.5811L5.39968 21.8844L5.31498 22.1465ZM5.69613 6.66048L6.78309 6.95006L6.69839 7.21207L5.62554 6.92248L5.69613 6.66048ZM7.48891 22.7394L6.40195 22.4498L6.48665 22.174L7.57361 22.4774L7.48891 22.7394ZM7.87006 7.25344L8.95702 7.55682L8.87232 7.81882L7.78536 7.51545L7.87006 7.25344ZM9.66285 23.3462L8.57588 23.0428L8.66058 22.7808L9.74755 23.0842L9.66285 23.3462ZM10.044 7.86019L11.131 8.14978L11.0463 8.41178L9.95929 8.1222L10.044 7.86019ZM11.8368 23.9391L10.7498 23.6495L10.8345 23.3737L11.9215 23.6771L11.8368 23.9391ZM12.2179 8.45315L13.3049 8.75653L13.2202 9.01854L12.1332 8.71516L12.2179 8.45315ZM14.0107 24.5459L12.9237 24.2425L13.0084 23.9805L14.0954 24.2839L14.0107 24.5459ZM14.3919 9.05991L15.4788 9.34949L15.3941 9.62529L14.3072 9.32191L14.3919 9.05991ZM16.1846 25.1388L15.0977 24.8493L15.1824 24.5735L16.2693 24.8768L16.1846 25.1388ZM16.5658 9.65287L17.6528 9.95624L17.5681 10.2183L16.4811 9.91488L16.5658 9.65287ZM18.3586 25.7456L17.2716 25.4422L17.3563 25.1802L18.4433 25.4836L18.3586 25.7456Z" fill="#5959FF"/>
<path d="M27.3517 4.88159H5.33008V5.15739H27.3517V4.88159Z" fill="#4040B7"/>
<path d="M3.33902 10.2734H3.05664V11.3766H3.33902V10.2734Z" fill="#4040B7"/>
<path d="M7.5742 22.4774L7.48949 22.7395L6.40234 22.4499L6.48706 22.1741L7.5742 22.4774Z" fill="#4040B7"/>
<path d="M3.33902 14.6862H3.05664V15.7893H3.33902V14.6862Z" fill="#4040B7"/>
<path d="M3.33902 12.4797H3.05664V13.5829H3.33902V12.4797Z" fill="#4040B7"/>
<path d="M6.78469 6.95011L6.69998 7.22591L5.62695 6.92253L5.69755 6.66052L6.78469 6.95011Z" fill="#4040B7"/>
<path d="M5.40013 21.8844L5.31543 22.1464L4.22847 21.843C3.90957 21.7574 3.62742 21.5736 3.42383 21.319L3.63557 21.1398C3.80647 21.3548 4.04429 21.5096 4.31316 21.581L5.40013 21.8844Z" fill="#4040B7"/>
<path d="M3.33902 8.06702H3.05664V9.1702H3.33902V8.06702Z" fill="#4040B7"/>
<path d="M22.7355 14.438H22.4531V15.5412H22.7355V14.438Z" fill="#4040B7"/>
<path d="M22.7364 12.5487V13.3347H22.454V12.5487C22.4523 12.4562 22.4429 12.364 22.4258 12.2729L22.694 12.204C22.722 12.3169 22.7362 12.4326 22.7364 12.5487Z" fill="#4040B7"/>
<path d="M22.0161 11.2387L21.8608 11.4593C21.7441 11.3866 21.615 11.3352 21.4795 11.3076L20.8301 11.1145L20.9148 10.8525L21.5643 11.0318C21.7258 11.0751 21.8786 11.145 22.0161 11.2387Z" fill="#4040B7"/>
<path d="M3.33902 19.0989H3.05664V20.2021H3.33902V19.0989Z" fill="#4040B7"/>
<path d="M3.33902 16.8926H3.05664V17.9958H3.33902V16.8926Z" fill="#4040B7"/>
<path d="M4.56806 6.71562C4.22655 6.74194 3.9083 6.89489 3.67858 7.1431L3.4668 6.96383C3.74197 6.66063 4.12637 6.47291 4.53983 6.43982L4.56806 6.71562Z" fill="#4040B7"/>
<path d="M9.74803 23.0841L9.66332 23.3461L8.57617 23.0428L8.66088 22.7808L9.74803 23.0841Z" fill="#4040B7"/>
<path d="M19.8281 10.5492L19.7434 10.825L18.6562 10.5217L18.741 10.2596L19.8281 10.5492Z" fill="#4040B7"/>
<path d="M20.6172 26.0766L20.5325 26.3524L19.4453 26.049L19.53 25.7732L20.6172 26.0766Z" fill="#4040B7"/>
<path d="M8.95702 7.55679L8.8723 7.8188L7.78516 7.51542L7.86987 7.25342L8.95702 7.55679Z" fill="#4040B7"/>
<path d="M22.7355 23.2634H22.4531V24.3666H22.7355V23.2634Z" fill="#4040B7"/>
<path d="M22.7355 21.581V22.1602H22.4531V21.5535C22.5357 21.5763 22.6216 21.5856 22.7073 21.581H22.7355Z" fill="#4040B7"/>
<path d="M22.5953 25.5112C22.4261 25.8805 22.1176 26.172 21.734 26.3248L21.6211 26.0766C21.942 25.9515 22.2003 25.7091 22.3412 25.4009L22.5953 25.5112Z" fill="#4040B7"/>
<path d="M17.6543 9.95621L17.5696 10.2182L16.4824 9.91484L16.5671 9.65283L17.6543 9.95621Z" fill="#4040B7"/>
<path d="M18.4433 25.4836L18.3586 25.7456L17.2715 25.4422L17.3562 25.1802L18.4433 25.4836Z" fill="#4040B7"/>
<path d="M11.9219 23.6772L11.8371 23.9392L10.75 23.6496L10.8347 23.3738L11.9219 23.6772Z" fill="#4040B7"/>
<path d="M11.1328 8.14982L11.0481 8.41182L9.96094 8.12224L10.0457 7.86023L11.1328 8.14982Z" fill="#4040B7"/>
<path d="M13.3066 8.7565L13.2219 9.01851L12.1348 8.71513L12.2195 8.45312L13.3066 8.7565Z" fill="#4040B7"/>
<path d="M14.0957 24.2838L14.011 24.5459L12.9238 24.2425L13.0085 23.9805L14.0957 24.2838Z" fill="#4040B7"/>
<path d="M15.4805 9.34952L15.3957 9.62532L14.3086 9.32194L14.3933 9.05994L15.4805 9.34952Z" fill="#4040B7"/>
<path d="M16.2695 24.8769L16.1848 25.1389L15.0977 24.8493L15.1824 24.5735L16.2695 24.8769Z" fill="#4040B7"/>
<path d="M24.5703 17.1822C24.412 16.952 24.1779 16.7816 23.9068 16.6995L20.0812 15.6377C19.9044 15.5824 19.7163 15.5711 19.5338 15.6048C19.3514 15.6385 19.1805 15.7162 19.0366 15.8308C18.8887 15.9378 18.7683 16.077 18.685 16.2374C18.6017 16.3977 18.5577 16.5748 18.5566 16.7547V19.7195C18.556 19.9719 18.6398 20.2176 18.7952 20.4192C18.9506 20.6208 19.1692 20.7674 19.4177 20.8365L22.4528 21.6914L22.7351 21.7604L23.2574 21.9121C23.3634 21.9393 23.4725 21.9532 23.5821 21.9534C23.8414 21.9515 24.0934 21.8694 24.302 21.719C24.4054 21.6411 24.4959 21.5481 24.5703 21.4432C24.6991 21.2505 24.7678 21.0253 24.7679 20.7951V17.8165C24.7692 17.5904 24.7003 17.3692 24.5703 17.1822ZM24.4856 20.7951C24.4872 20.9311 24.4561 21.0656 24.3948 21.1878C24.3335 21.3099 24.2437 21.4163 24.1326 21.4984C24.0183 21.5801 23.8868 21.6361 23.7477 21.6623C23.6086 21.6885 23.4653 21.6844 23.328 21.6501L19.5024 20.5745C19.3111 20.523 19.1424 20.4113 19.0224 20.2568C18.9025 20.1022 18.838 19.9134 18.839 19.7195V16.7547C18.8401 16.6177 18.8738 16.4828 18.9375 16.3607C19.0012 16.2386 19.0931 16.1327 19.206 16.0514C19.3584 15.9332 19.5478 15.8699 19.7424 15.8721C19.8281 15.8675 19.914 15.8769 19.9965 15.8997L23.8362 16.9753C24.0238 17.0267 24.189 17.1368 24.3063 17.2888C24.4236 17.4408 24.4866 17.6262 24.4856 17.8165V20.7951Z" fill="#4040B7"/>
<path d="M23.8371 16.9753L19.9974 15.8997C19.9148 15.8768 19.829 15.8675 19.7433 15.8721C19.5487 15.8699 19.3593 15.9332 19.2069 16.0514C19.094 16.1327 19.0021 16.2386 18.9384 16.3607C18.8747 16.4828 18.8409 16.6176 18.8399 16.7547V19.7195C18.8389 19.9134 18.9034 20.1022 19.0233 20.2567C19.1433 20.4113 19.3119 20.5229 19.5033 20.5744L23.3289 21.65C23.4661 21.6843 23.6095 21.6885 23.7486 21.6623C23.8877 21.6361 24.0192 21.5801 24.1335 21.4984C24.2446 21.4163 24.3344 21.3099 24.3957 21.1878C24.457 21.0656 24.4881 20.9311 24.4864 20.7951V17.8165C24.4875 17.6261 24.4245 17.4407 24.3072 17.2888C24.1899 17.1368 24.0247 17.0267 23.8371 16.9753ZM20.6891 20.078C20.1103 20.1056 19.6021 19.4575 19.5457 18.6301C19.4892 17.8027 19.9409 17.0856 20.5197 17.058C21.0985 17.0305 21.6208 17.6786 21.6631 18.506C21.7055 19.3334 21.282 20.0504 20.6891 20.078Z" fill="#5959FF"/>
<path d="M20.6892 20.0779C20.1104 20.1055 19.6023 19.4574 19.5458 18.63C19.4893 17.8026 19.9411 17.0856 20.5198 17.058C21.0986 17.0304 21.6209 17.6785 21.6633 18.5059C21.7056 19.3333 21.2821 20.0504 20.6892 20.0779Z" fill="#C8C5E9"/>
<path d="M25.3749 8.60486V8.88065H20.3353C20.2478 8.81919 20.153 8.76826 20.053 8.72897L19.6719 8.60486H25.3749Z" fill="#4040B7"/>
<path d="M12.6981 7.32239L12.4017 7.74987C12.0205 8.30147 11.6112 8.85306 11.2018 9.40465C10.623 10.232 10.0301 11.0594 9.42312 11.873C8.49144 13.1693 7.57387 14.4655 6.6563 15.7755C5.13172 17.913 3.57891 20.0366 1.94141 22.0913C2.08269 22.4775 2.31869 22.8239 2.62876 23.1004C2.93884 23.3768 3.31353 23.5749 3.72008 23.6771L5.42817 24.1184L6.61395 22.505L6.4022 22.4498L6.4869 22.174L6.78335 22.2568C8.30792 20.1331 9.80427 17.9957 11.3571 15.8859C12.9099 13.776 14.5897 11.7627 16.1284 9.63908C16.4202 9.23458 16.7025 8.83467 16.9754 8.43936L12.6981 7.32239ZM5.31524 22.1464L4.22827 21.8431C3.90938 21.7574 3.62723 21.5737 3.42363 21.3191L3.63538 21.1398C3.80627 21.3548 4.04409 21.5097 4.31297 21.5811L5.39994 21.8844L5.31524 22.1464ZM13.2204 9.01854L12.1335 8.71516L12.2182 8.45315L13.3051 8.75653L13.2204 9.01854ZM15.3944 9.62529L14.3074 9.32191L14.3921 9.05991L15.4791 9.34949L15.3944 9.62529Z" fill="#6678FF"/>
<path d="M19.4175 9.07373C18.9234 9.83217 18.387 10.5768 17.8505 11.3077C16.326 13.3762 14.6461 15.3343 13.1639 17.4304C11.851 19.2782 10.5523 21.1122 9.22538 22.9325L9.74769 23.0842L9.66299 23.3462L9.05599 23.1807L7.89844 24.7528L12.6839 25.9938L13.5732 24.4218L12.9239 24.2425L13.0086 23.9805L13.7003 24.1736C16.1707 19.8022 18.5987 15.417 21.4079 11.2801L20.8291 11.1146L20.9138 10.8526L21.5632 11.0319H21.5773L22.4101 9.83217L19.4175 9.07373ZM11.8369 23.9392L10.75 23.6496L10.8347 23.3738L11.9216 23.6772L11.8369 23.9392ZM19.7421 10.825L18.6552 10.5217L18.7399 10.2597L19.8268 10.5492L19.7421 10.825Z" fill="#6678FF"/>
</svg>
